<?xml version="1.0" standalone="no"?>
<!DOCTYPE svg PUBLIC "-//W3C//DTD SVG 1.1//EN" "http://www.w3.org/Graphics/SVG/1.1/DTD/svg11.dtd" >
<svg xmlns="http://www.w3.org/2000/svg" xmlns:xlink="http://www.w3.org/1999/xlink" version="1.1">
<metadata></metadata>
<defs>
<font id="finale_ash_textregular" horiz-adv-x="414" >
<font-face units-per-em="1000" ascent="800" descent="-200" />
<missing-glyph horiz-adv-x="278" />
<glyph unicode=" "  horiz-adv-x="278" />
<glyph unicode="&#x09;" horiz-adv-x="278" />
<glyph unicode="&#xa0;" horiz-adv-x="278" />
<glyph unicode="!" horiz-adv-x="248" d="M192 796q0 -16 -3 -100t-3 -106q1 -137 1 -147q0 -94 -18 -258q-15 -14 -37 -15l-14 15q-13 155 -13 259q0 126 29 360q17 12 20 12q5 0 21.5 -7.5t16.5 -12.5zM178 88q0 -96 -35 -96q-36 0 -49 25l10 82q7 7 18 14q56 -9 56 -25z" />
<glyph unicode="&#x22;" horiz-adv-x="368" d="M348 841q2 -16 2 -23q-2 -48 -8 -135t-8 -117q-2 -25 -18 -35q-3 -2 -11 -2q-17 0 -32.5 19.5t-18.5 34.5l6 253q2 44 20 72l15 11l13 4l12 -7q17 -20 28 -75zM192 859q0 -1 0.5 -6.5t0.5 -10.5q0 -29 -8 -143q-9 -140 -14 -150l-13 -13l-11 -5q-18 0 -36 3l-9 9l-12 28 q-7 19 -7 28l17 233q5 59 34 81q4 2 9 2q1 0 3 -1h2q38 -17 44 -55z" />
<glyph unicode="#" horiz-adv-x="347" d="M329 259q0 -30 -0.5 -44t-7.5 -24t-12 -12t-25.5 -8t-35.5 -12v-237q0 -26 -7.5 -54t-19.5 -28q-20 0 -20 129v181q-25 -6 -77 -11v-226q0 -73 -21 -73q-11 0 -18.5 26t-7.5 58v213h-11q-32 0 -42 12.5t-10 40.5q0 71 32 71l30 -3v187q-13 -5 -22 -5q-31 0 -31 46t51 75 v174q0 103 28 103q20 0 20 -87v-54q0 -10 -0.5 -27.5t-0.5 -27.5q0 -53 1 -68l75 25v50q0 7 0.5 32t0.5 43v75q0 74 30 74q6 0 11 -9.5t5 -16.5v-80q0 -15 -0.5 -38t-0.5 -30l1 -86q48 16 66 16q17 0 17 -51q0 -38 -25 -54l-57 -24v-16q0 -10 0.5 -42t0.5 -53v-110l36 9 q18 4 30 4q17 0 17 -33zM200 271v211q-35 -13 -78 -26v-196q41 1 78 11z" />
<glyph unicode="$" horiz-adv-x="505" d="M387 652q0 -59 -37 -105q-8 -5 -14 -5q-17 0 -23 9.5t-6 29.5v18q0 14 -2 19t-10 5q-7 0 -22 -8t-19 -13q-2 -6 -2 -84q0 -70 1 -90q65 -20 93.5 -62.5t28.5 -125.5q0 -98 -24 -136q-20 -33 -107 -87l-2 -119q-1 -35 -8.5 -66.5t-18.5 -38.5l-6 6q-6 15 -6 49q0 12 2 67 t2 67q0 31 -17 51q-24 25 -32 42q-14 31 -16 102v13l4 8q12 9 23 9t24 -25l18 -35q-2 74 -2 167q-62 32 -77 46q-17 16 -21 49q-2 18 -2 31q0 55 49 149q41 78 49 91v250q0 11 11.5 21.5t23.5 10.5q2 0 5 -1l6 -9l1 -238q18 19 56 19q36 0 56.5 -22.5t20.5 -58.5zM210 477 v11.5t-0.5 25t-0.5 29.5v25q-1 -3 -12 -26.5t-18 -43.5t-7 -31q0 -21 36 -34q2 40 2 44zM309 223q0 51 -62 84q0 -11 -1 -62t-1 -63v-39q64 19 64 80z" />
<glyph unicode="%" horiz-adv-x="793" d="M710 307q0 -87 -53 -205q-61 -136 -138 -136q-34 0 -56.5 47t-22.5 108q0 52 22 108q30 77 78 136t84 59q37 0 61.5 -34.5t24.5 -82.5zM646 308l-3 6h-4l-3 1q-26 0 -58.5 -43t-54 -94t-21.5 -77q0 -12 13 -13q42 11 70 59q38 66 61 161zM618 646q0 -22 -20 -48l-33 -43 l-259 -435q-41 -69 -58 -90t-33 -27q-16 1 -25.5 19.5t-9.5 41.5q0 36 35 83l21 22l333 535q7 12 23 12q26 0 26 -70zM318 496q0 -91 -51 -162t-123 -71q-33 0 -53.5 39t-20.5 100q0 73 58.5 172.5t119.5 99.5q32 0 51 -51t19 -127zM250 488q0 55 -21 55q-17 0 -55.5 -61 t-38.5 -90l1 -4q8 -5 14 -5q32 0 66 36.5t34 68.5z" />
<glyph unicode="&#x26;" horiz-adv-x="578" d="M447 626q0 -22 -16 -41t-36 -19q-3 0 -10 2.5t-18 2.5q-32 -10 -78 -64l-60 -78q-2 -3 -2 -8t9 -9q12 0 45 25.5t48 25.5q10 0 17.5 -18t7.5 -46q0 -20 -14.5 -42t-35 -43t-25.5 -30l-60 -103q-1 -1 -1 -5q0 -14 14 -14q4 0 5 1l70 46q10 7 44.5 52.5t44.5 45.5l4 -2 q17 -23 17 -55q0 -40 -42 -86q-49 -56 -54 -69q9 -54 9 -114q0 -19 -1 -48.5t-1 -41.5q0 -3 0.5 -13.5t0.5 -20.5q0 -16 -4 -23q-3 -3 -5 -3h-13q-12 0 -18.5 52.5t-6.5 120.5q0 58 -1 64q-42 -14 -57 -14q-37 0 -58.5 26.5t-21.5 71.5q0 41 13 74l34 68l-1 6q-35 8 -35 60 q0 67 33 133q11 24 39 64q10 14 25.5 34t23 30.5t7.5 14.5l-20 205q0 19 9 43t20 27q12 0 17 -5t9 -28.5t8 -81.5l9 -126q40 15 50 15q62 0 62 -59z" />
<glyph unicode="'" horiz-adv-x="197" d="M72 623l53 105h-18q-34 4 -34 50q2 15 10.5 38t27 48.5t40.5 25.5q19 0 34 -46q8 -27 8 -51q0 -41 -23.5 -104t-50.5 -92q-18 -6 -26 -6q-8 1 -11.5 2t-6.5 8.5t-3 21.5z" />
<glyph unicode="(" horiz-adv-x="304" d="M248 813q0 -24 -4 -31q-74 -179 -96 -248q-41 -135 -41 -263q0 -15 4 -87t4 -88q0 -64 -15 -92l-12 -5q-10 3 -18 13q-21 45 -21 189q0 214 101 480q1 2 5.5 15t10.5 28t12 28q29 66 51 66q1 0 7 -2t12 -3z" />
<glyph unicode=")" horiz-adv-x="254" d="M195 459q0 -119 -21 -235q-15 -87 -46 -168.5t-54 -81.5q-19 0 -19 20q0 10 12 44q76 215 76 389q0 74 -11 137q-1 6 -19 69t-18 87q0 85 24 85q30 1 53 -120t23 -226z" />
<glyph unicode="*" horiz-adv-x="601" d="M576 403l-184 -4q-19 -13 -19 -18q0 -2 1 -3l83 -127v-70q-9 -11 -15 -11q-30 0 -94 118q-2 -28 -2 -42q0 -26 -5 -88q-5 -69 -18 -76l-7 -5l-15 7q-6 25 -6 145q0 1 0.5 15t1 32t0.5 28q0 19 -5 18q-14 -8 -45.5 -34t-59 -47t-37.5 -21q-28 0 -28 44t17 64l73 61 q2 2 2 3q0 4 -24 4q-18 0 -40 -2.5t-33 -2.5q-38 0 -48 14t-10 55q5 10 14 30q21 6 54 6h19.5h16t11 0.5t7.5 0.5h3q30 0 54 4q-15 22 -33.5 67t-18.5 72v34q9 16 14 16q12 0 16 -9q74 -138 92 -166q2 15 5 71t8.5 91t16.5 56h15q11 -5 11 -40l4 -163q10 7 62 60t76 60 q9 -4 9 -31q0 -6 -0.5 -13t-0.5 -12t-0.5 -9.5t-1.5 -6.5v-2q0 -22 -19 -44q-14 -14 -21 -25h85q26 0 26 -72q0 -19 -7 -32z" />
<glyph unicode="+" horiz-adv-x="559" d="M508 309q0 -36 -10 -43q-11 -10 -74 -25.5t-112 -19.5q-1 -8 -1 -28q0 -27 1 -61t1 -35q0 -51 -5 -96q-12 -5 -22 -5q-9 1 -34 4l-2 216q-48 -2 -117 -2q-53 0 -64.5 9t-12.5 54q0 40 10.5 51t42.5 11q14 0 72 -2.5t71 -2.5q1 13 1 42q0 14 -1 74.5t-1 74.5q0 44 28 44 q20 0 29 -11q0 -2 3 -220q54 5 157 28q12 2 15 2q25 0 25 -59z" />
<glyph unicode="," horiz-adv-x="214" d="M37 -116l54 105h-19q-34 4 -34 50q2 15 10.5 38t27 48.5t40.5 25.5q19 0 34 -46q8 -27 8 -51q0 -41 -23.5 -104t-50.5 -92q-18 -6 -26 -6q-8 1 -11.5 2t-6.5 8.5t-3 21.5z" />
<glyph unicode="-" horiz-adv-x="452" d="M393 216h-305q-21 0 -30 13.5t-9 55.5q0 30 22 30q301 0 321 -7q9 -12 9 -55q0 -34 -8 -37z" />
<glyph unicode="." horiz-adv-x="162" d="M61 0q-41 0 -51 34l11 89q8 5 26 19l34 -9q16 -7 24 -25q0 -108 -44 -108z" />
<glyph unicode="/" horiz-adv-x="416" d="M490 941q0 -24 -14 -52l-396 -751l-32 -75q-11 -26 -26 -44.5t-27 -18.5q-37 21 -37 71q0 31 25 78l447 833q13 21 26 21q10 0 15 -5q19 -20 19 -57z" />
<glyph unicode="0" horiz-adv-x="412" d="M162 0q-37 0 -73 28.5t-59 77.5q-32 68 -32 182q0 125 65 282q78 189 186 189q40 0 76 -44q27 -33 50 -164q19 -108 19 -178q0 -110 -60 -230q-72 -143 -172 -143zM240 612q-41 0 -78.5 -48t-58.5 -112.5t-21 -119.5v-49q0 -38 25.5 -81.5t55.5 -43.5h29q55 24 89 78.5 t34 116.5q0 63 -24 161t-51 98z" />
<glyph unicode="1" horiz-adv-x="214" d="M152 89q-2 -53 -23 -85q-11 -16 -32 -16q-16 0 -24 11q-4 5 -4 26q0 42 6.5 230.5t6.5 229.5q0 93 -5 148l-6 30q-4 17 -4 30q0 36 14 59.5t39 23.5q18 0 35 -10q15 -36 15 -102q0 -188 -18 -575z" />
<glyph unicode="2" horiz-adv-x="385" d="M375 688q0 -80 -42 -165q-109 -222 -173 -348q-13 -27 -14 -31q3 -1 12 -1q27 0 91.5 19.5t93.5 19.5q21 0 21 -26v-84q0 -13 -5 -21q-8 -15 -99.5 -36.5t-125.5 -21.5q-75 0 -75 67q0 81 51 183l139 276q43 88 45 104q0 8 -8 8q-18 0 -74 -44q-58 -47 -68 -62 q-4 -7 -31 -113q-5 -20 -10 -32.5t-18.5 -25.5t-32.5 -13q-18 0 -31.5 16.5t-13.5 37.5q0 192 209 335q70 47 110 47q21 0 35 -25t14 -64z" />
<glyph unicode="3" horiz-adv-x="374" d="M331 555q-20 -26 -63 -89q39 -1 65 -36.5t26 -83.5q0 -111 -94 -226q-99 -120 -209 -120q-48 0 -48 61q0 50 46 93q8 2 11 2q16 0 20.5 -15.5t13.5 -15.5q47 0 107 58t60 107q0 46 -55 46q-7 0 -14 -2t-17 -8t-16.5 -10.5t-22 -15.5t-23.5 -17l-17 2q-13 32 -13 46 q0 59 50 116l88 99q47 52 47 74h-6q-42 0 -121 -65l-113 -93q-10 -2 -12 -2q-15 0 -15 32q0 81 118 171q112 85 196 85q50 0 50 -85q0 -51 -39 -108z" />
<glyph unicode="4" horiz-adv-x="405" d="M365 238q-14 -7 -44 -15l-45 -12q-1 -27 -9 -108t-11 -86q-14 -22 -29 -22q-28 0 -28 38q0 14 5.5 80t5.5 84l-72 -12q-41 -7 -72 -7q-83 0 -83 59q0 46 82 195l111 204q65 137 104 137q14 0 22 -17q-13 -248 -18 -413q74 27 98 27q27 0 27 -52q0 -57 -44 -80zM230 560v5 q-91 -151 -134 -251q49 0 121 16q0 2 0.5 5t0.5 4q12 159 12 221z" />
<glyph unicode="5" horiz-adv-x="432" d="M336 587l-123 -75q-14 -9 -59 -42q86 -3 136 -69.5t50 -172.5q0 -95 -42.5 -162t-108.5 -68q-42 -1 -51 -1q-73 0 -105 24.5t-32 79.5q0 75 51 75q12 0 64 -13.5t65 -13.5q34 0 55 15.5t21 40.5q0 48 -39.5 82t-91.5 34q-8 0 -44 -7.5t-46 -7.5q-17 0 -17 30q0 28 23 108 q28 96 43 116q39 52 143 115q137 81 180 81q15 0 24 -16.5t9 -39.5q0 -22 -7 -37q-10 -22 -98 -76z" />
<glyph unicode="6" horiz-adv-x="457" d="M107 -7q-55 0 -85.5 35.5t-30.5 96.5q0 119 27 217q25 91 74 192t102 173q32 43 63 70t49 27q30 0 30 -47q0 -19 -12.5 -51.5t-25.5 -40.5l-41 -25q-45 -26 -116 -201q-66 -165 -66 -231q0 -11 5 -28q20 40 37 71q45 79 119 141.5t128 62.5q28 0 48.5 -34t20.5 -75 q0 -81 -46 -163.5t-123 -136t-157 -53.5zM304 309q-30 0 -81 -51.5t-89 -118.5q5 -4 18 -4q48 0 106 45q33 26 57.5 56t24.5 43q0 30 -36 30z" />
<glyph unicode="7" horiz-adv-x="419" d="M275 247q-17 -28 -43 -87t-31 -82l-10 -47q-2 -12 -14 -21.5t-28 -9.5q-30 0 -30 39q0 94 71 236l116 231q37 72 48 142q-77 -10 -197 -65q-24 -11 -69 -71q-41 -53 -70 -53q-36 0 -36 62q0 34 13 64q6 13 16.5 37.5t14 31t11 19.5t13 17t14.5 10t22 10l242 80 q36 12 76 12q54 0 54 -30q0 -98 -66 -268q-25 -64 -117 -257z" />
<glyph unicode="8" horiz-adv-x="431" d="M86 -3q-42 0 -60.5 35.5t-18.5 121.5q0 82 54 172q19 19 39 47q-2 0 -4.5 -0.5t-3.5 -0.5q-56 0 -56 110q0 93 75 184t171 91q60 0 60 -96q0 -41 -14.5 -96.5t-31.5 -76.5q75 -1 99.5 -27.5t24.5 -104.5q0 -110 -115 -234q-116 -125 -219 -125zM260 630q-84 0 -148 -132 q45 10 71 24q29 16 56 53.5t27 47.5q0 7 -6 7zM348 350v5q0 16 -40 16q-12 0 -20 -3q-78 -29 -145 -103t-73 -144q4 -6 12 -6q53 0 160 92q106 91 106 143z" />
<glyph unicode="9" horiz-adv-x="342" d="M269 171l-18 -83q-12 -55 -23.5 -77t-34.5 -22q-13 0 -21 12t-8 28q0 48 33 180q42 164 47 189q-36 -52 -83.5 -90.5t-73.5 -38.5q-70 0 -70 115q0 83 37.5 179t93 160.5t104.5 64.5q39 0 66 -50t27 -114q0 -96 -25 -229q-19 -91 -51 -224zM238 647q-23 0 -44 -16 q-39 -30 -72 -92t-33 -102q0 -21 12 -21q30 0 91 72.5t61 106.5v19q0 33 -15 33z" />
<glyph unicode=":" horiz-adv-x="216" d="M161 462q0 -114 -59 -114q-21 0 -40 12.5t-24 30.5l11 125q11 10 33 27l39 -10q14 -3 27 -15.5t13 -24.5v-31zM160 211q-4 -112 -59 -112q-23 0 -42.5 13.5t-24.5 31.5l15 125q1 0 34 25l46 -12q32 -7 32 -54q0 -3 -0.5 -8.5t-0.5 -8.5z" />
<glyph unicode=";" horiz-adv-x="202" d="M161 458q-7 -112 -60 -112q-21 0 -40.5 12.5t-25.5 32.5l15 125q1 0 34 25l40 -11q28 -8 38 -34q0 -27 -1 -38zM27 22l58 114v0v0v0h-1v0h-1h-1h-1h-1h-9q-29 0 -43 50q0 3 -1 5q34 121 84 121q10 0 20 -15q25 -36 25 -90q0 -43 -25.5 -114t-53.5 -99q-3 -1 -11.5 -2.5 t-13.5 -2.5l-5 -1q-20 0 -20 34z" />
<glyph unicode="&#x3c;" horiz-adv-x="537" d="M498 585q0 -28 -13.5 -56.5t-34.5 -43.5q-87 -44 -290 -156q27 -23 82.5 -52t112 -55t69.5 -33q1 0 9 -4.5t13.5 -8t14 -9.5t14 -11t9.5 -11.5t4 -12.5l-6 -75q-3 -36 -10.5 -47t-26.5 -11q-17 0 -189 103q-172 104 -198 126q-8 21 -8 71q0 53 5 84q4 25 10.5 33t39.5 26 q64 34 192 104q154 82 176 82q25 0 25 -43z" />
<glyph unicode="=" horiz-adv-x="492" d="M386 366v-53q0 -10 -5 -12q-23 -8 -212 -8q-29 0 -48.5 8.5t-19.5 23.5v13t0.5 13t1 11t2 10.5t3.5 7.5t5.5 5.5t8.5 1.5q69 0 117 -2q22 -1 51 -2t36 -1q1 0 9.5 -0.5t14.5 -0.5q21 0 28 -2.5t8 -12.5zM395 135h-248q-23 0 -30.5 11t-7.5 48q0 30 22 30q269 0 272 -12 q5 -22 5 -50q0 -27 -13 -27z" />
<glyph unicode="&#x3e;" horiz-adv-x="497" d="M455 299q0 -58 -17 -138q-5 -24 -13 -31.5t-42 -22.5q-34 -14 -97 -40.5t-96.5 -40.5t-74 -30.5t-61.5 -24t-27 -7.5q-27 0 -27 36q0 26 33 65q9 11 18 19.5t25 18.5t28 16.5t40.5 20t48 22t66 29t80.5 35.5q-17 20 -87 69.5t-128.5 93.5t-58.5 59v10l14 72q11 53 29 53 q19 0 44 -17.5t133 -106.5q122 -101 146 -123.5t24 -36.5z" />
<glyph unicode="?" horiz-adv-x="381" d="M366 713q0 -67 -45 -155q-19 -35 -85 -142q-13 -23 -25 -50q4 0 38.5 21t42.5 21q18 0 18 -82q-80 -111 -183 -150q-22 -8 -25 -8q-14 0 -24 10q0 79 24.5 138.5t109.5 186.5q101 150 101 189q0 10 -11 10q-85 -47 -160 -142l-22 -28q-16 -21 -24 -21q-21 0 -21 23 q0 52 12 73q38 64 108.5 123.5t129.5 76.5q41 -14 41 -94zM251 110q-1 -7 -1 -17q0 -26 -33.5 -61t-59.5 -35q-9 19 -9 47q0 49 23.5 86.5t59.5 37.5q11 0 15.5 -11.5t4.5 -46.5z" />
<glyph unicode="@" horiz-adv-x="732" d="M402 82q-12 0 -35.5 15t-26.5 15q-3 -1 -7 -7q-11 -37 -43 -65.5t-64 -28.5q-25 0 -42 32.5t-17 79.5q0 189 123 310q35 35 60 35q31 0 49.5 -36t18.5 -86q0 -54 -29 -66q0 -51 7 -67q3 -7 18 -7q18 -1 37.5 20.5t36.5 59.5q29 64 29 120q0 71 -31 136q-50 102 -135 102 q-73 0 -143 -118q-64 -106 -64 -185q0 -8 -17 -8q-10 0 -13 6t-3 16q0 114 76 251q86 155 189 155q116 0 172 -141q35 -89 35 -202q0 -55 -10 -102q-21 -96 -71 -165t-100 -69zM359 322l2 4q-5 13 -21 29q-34 0 -77 -76q-42 -77 -42 -117q0 -26 15 -37q21 2 38 20 q21 25 35.5 88.5t31.5 84.5z" />
<glyph unicode="A" horiz-adv-x="413" d="M309 -2q-20 0 -32 12t-24 214q-40 -5 -149 -23q-4 -1 -16 -73l-15 -90q-10 -39 -41 -39q-27 0 -27 74q0 141 58 362q87 328 174 328q17 0 31.5 -14.5t16.5 -32.5l26 -292q1 -16 16 -59.5t15 -65.5q0 -6 -6.5 -37t-6.5 -38q0 -16 6.5 -90t6.5 -92q0 -44 -33 -44zM220 596 q0 4 -3 4q-23 -7 -39.5 -54t-40.5 -155l-9 -38q15 1 57 10t56 9q-4 74 -21 224z" />
<glyph unicode="B" horiz-adv-x="462" d="M89 -1q-31 0 -55 12t-24 31q0 38 1 209.5t1 210.5q-5 12 -5 28q0 100 100 200q83 81 154 81q85 0 85 -109q0 -74 -81 -177q10 2 12 2q53 0 90 -48q34 -42 34 -121q0 -126 -93 -222.5t-219 -96.5zM256 651q-37 0 -108 -56q-69 -54 -69 -98q0 -3 0.5 -11.5t0.5 -14.5v-31 q66 41 127.5 105t64.5 101q-8 5 -16 5zM258 363q-78 0 -181 -68q4 -116 4 -163q18 -8 40 -8q69 0 139 56.5t70 122.5q0 60 -72 60z" />
<glyph unicode="C" horiz-adv-x="471" d="M416 191q-12 -74 -94.5 -138t-160.5 -64q-72 0 -113.5 78.5t-41.5 204.5q0 136 57 291q74 197 186 197q44 0 76.5 -57t32.5 -112q0 -62 -12.5 -105t-32.5 -43q-26 0 -33 61l-10 77q-10 49 -42 49q-50 0 -94.5 -117t-44.5 -202q0 -173 99 -173q52 0 99 42q13 12 72 84 q19 24 32 24q28 0 28 -55q0 -23 -3 -42z" />
<glyph unicode="D" horiz-adv-x="468" d="M176 82q-40 -56 -54.5 -69.5t-36.5 -13.5q-67 0 -67 156q0 41 1 120t1.5 141.5t0.5 63.5q0 12 -0.5 38t-0.5 43q0 68 5.5 87.5t24.5 31.5q39 24 131.5 61t124.5 37q121 0 121 -166q0 -178 -251 -530zM301 625q-35 0 -116.5 -31.5t-96.5 -52.5q0 -42 -4 -195t-4 -178 q16 -6 36 -8q29 27 83 112l78 124q32 51 55 108t23 82q0 18 -16 28.5t-38 10.5z" />
<glyph unicode="E" horiz-adv-x="403" d="M385 689q-287 -143 -305 -167q-8 -44 -9 -150q173 78 201 78q17 0 17 -26q0 -13 0.5 -30.5t0.5 -22.5q0 -25 -7.5 -33.5t-38.5 -21.5l-176 -78q0 -55 -2 -97q12 -4 39 -4q15 0 85 3.5t86 3.5q59 0 59 -18q0 -96 -12 -112t-188 -16q-87 0 -121 8q-11 41 -11 105 q0 24 4 212l4 176q2 58 8.5 87.5t26.5 47.5q14 13 83 48q225 117 246 117q12 0 20 -9.5t8 -20.5q0 -33 -18 -80z" />
<glyph unicode="F" horiz-adv-x="370" d="M316 694q-11 -14 -112.5 -88.5t-125.5 -96.5q-5 -25 -5 -56q0 -1 0.5 -10t1 -22t0.5 -25q0 -3 -0.5 -8.5t-0.5 -7.5q33 23 84 59.5t79.5 55t63.5 36.5q2 1 5 1q9 0 15.5 -16t6.5 -40q0 -36 -6.5 -52.5t-24.5 -32.5q-43 -37 -95 -70l-132 -85q-5 -28 -5 -77q0 -32 2 -128 q0 -32 -29 -32q-20 0 -26.5 27t-6.5 91q0 108 5 254q5 173 5 210q1 11 2.5 16t10 14.5t27.5 23.5l208 155q32 24 49 24q18 -10 18 -41q0 -62 -14 -79z" />
<glyph unicode="G" horiz-adv-x="505" d="M452 386q-12 -34 -148 -97q-6 -186 -79 -249q-50 -42 -127 -42q-43 0 -70 65t-27 164q0 351 181 519q25 23 53 23q32 0 57 -32.5t25 -67.5q0 -65 -11 -107q-4 -18 -9.5 -25.5t-18.5 -7.5q-16 1 -22.5 22t-6.5 42q-1 13 -3 19t-9.5 12t-21.5 6q-52 -21 -94 -141.5 t-42 -230.5q0 -119 49 -119q53 0 79 33t26 88q0 6 -2 8l-5 -1q-6 -1 -14 -1.5t-14 -0.5q-22 0 -30.5 12t-8.5 48q0 62 22 81q4 4 13 7t39.5 12t59.5 18q9 3 73 34t72 31q24 0 24 -25q0 -70 -10 -97z" />
<glyph unicode="H" horiz-adv-x="429" d="M350 11q-8 -15 -22 -15t-31 18q-14 15 -17 23.5t-3 33.5q0 41 1.5 121t1.5 95q-96 -2 -184 -29l-6 -249q-11 -10 -23 -10q-15 0 -26.5 13.5t-11.5 29.5v579q0 30 16.5 60.5t36.5 30.5q18 0 18 -36q0 -25 -1.5 -133t-1.5 -132q16 6 48.5 11.5t61 8.5t53.5 5l24 3 q0 15 -1 82t-1 82q0 158 47 158q28 0 28 -46q0 -193 -7 -704z" />
<glyph unicode="I" horiz-adv-x="238" d="M162 58q0 -26 -16.5 -48.5t-37.5 -22.5q-32 0 -32 48l-3 632q0 26 16 56.5t34 30.5q38 0 41 -43q1 -10 1 -117q0 -50 -1.5 -269t-1.5 -267z" />
<glyph unicode="J" horiz-adv-x="490" d="M426 659q-14 -10 -65.5 -38.5t-56.5 -31.5v-405q0 -133 -15 -174q-4 -10 -29 -10h-184q-38 0 -38 36q0 121 30 121q6 0 23 -8t21 -8h108q15 0 15 33v384l-100 -56q-73 -42 -98 -47q-23 8 -23 28q0 82 23 113q78 46 205 108q17 8 87.5 45t143.5 69q8 0 14 -13t6 -26 q0 -72 -67 -120z" />
<glyph unicode="K" horiz-adv-x="536" d="M436 11q-29 0 -64 29l-229 188q-9 7 -39 40v-217q0 -19 -10 -35.5t-24 -16.5q-12 0 -20.5 12.5t-8.5 27.5l3 601q0 38 15 76t36 38q22 0 22 -44q0 -23 -2.5 -129t-2.5 -131l128 117q76 69 111 129l28 48q17 29 41 29q22 0 22 -43q0 -77 -103 -198q-32 -37 -164 -169 q67 -67 138 -126.5t103 -76.5l33 -17q24 -8 31 -19t7 -52q0 -61 -51 -61z" />
<glyph unicode="L" horiz-adv-x="444" d="M414 162q0 -93 -29 -125q-35 -38 -137 -38q-145 0 -207 8q-18 33 -18 164q0 14 5 508q0 28 17.5 56t45.5 28q22 0 22 -39q0 -32 -2 -174t-2 -173v-206q13 0 73.5 -3t74.5 -3q41 0 83.5 20.5t49.5 20.5q24 0 24 -44z" />
<glyph unicode="M" horiz-adv-x="637" d="M570 88q0 -90 -44 -90q-14 0 -23 17.5t-14.5 70t-5.5 143.5q0 149 -26 355q-17 -29 -41 -81l-62 -137q-82 -183 -111 -183q-18 0 -33.5 59t-28 132t-19.5 88q-37 -56 -44 -158q-2 -31 -3 -82.5t-2.5 -85t-5.5 -68.5t-14 -52.5t-26 -17.5q-50 0 -50 148q0 126 13 223 q15 104 68.5 188.5t103.5 84.5q55 0 84 -158q39 106 91.5 194t89.5 88q44 0 66.5 -92.5t29.5 -332.5l4 -126q3 -79 3 -127z" />
<glyph unicode="N" horiz-adv-x="537" d="M434 14q-23 -16 -58 -16q-40 0 -67 27q-39 39 -102 199q-10 26 -91 244q0 -14 2.5 -152.5t2.5 -181.5q0 -134 -51 -134q-22 0 -37 17q-7 7 -7 150q0 277 4.5 401t18.5 133q23 15 48 15q46 0 145 -262q91 -246 123 -281q15 108 15 218q0 23 -1.5 61t-4 76.5t-4.5 73 t-3.5 57.5t-1.5 24q0 67 33 67q32 0 49.5 -112t17.5 -322q0 -48 -8 -160q-11 -134 -23 -142z" />
<glyph unicode="O" horiz-adv-x="486" d="M407 215q-13 -70 -44 -131q-22 -45 -55 -71q-17 -14 -65 -14q-13 0 -45.5 0.5t-56.5 0.5q-52 0 -65 5t-29 30q-9 17 -24 113.5t-15 138.5q0 131 58 289q72 196 176 196q42 0 79.5 -40.5t61.5 -109.5q37 -104 37 -257q0 -85 -13 -150zM232 633q-30 0 -61 -45 q-86 -121 -86 -290q0 -23 11 -107q5 -34 20 -42t51 -8q104 0 140 40.5t36 152.5q0 299 -111 299z" />
<glyph unicode="P" horiz-adv-x="418" d="M91 253q0 -35 0.5 -74.5t0.5 -52.5q0 -67 -6 -115q-17 -14 -33 -14q-9 0 -27 5q-6 67 -6 199q0 31 1 169.5t1 168.5q0 99 78.5 164t188.5 65q47 0 73.5 -36t26.5 -99q0 -185 -298 -380zM277 645q-47 0 -111 -40q-54 -34 -65 -57.5t-11 -86.5v-80q71 38 145 113t87 129 q-4 22 -45 22z" />
<glyph unicode="Q" horiz-adv-x="494" d="M405 -121h-7q-23 0 -51 30.5t-69 89.5q-15 0 -83 -1t-83 -1q-24 0 -36 3q-26 27 -43 101.5t-17 155.5q0 137 33 249q29 99 85 173t115 74q68 0 119 -88q27 -47 39 -96q18 -78 18 -217q0 -65 -6.5 -112.5t-19.5 -102t-19 -87.5q1 -4 35.5 -49t34.5 -58q0 -29 -45 -64z M242 592q-46 0 -79 -43.5t-48 -112t-15 -153.5q0 -59 2.5 -89t14 -45t23.5 -17t42 -2q13 0 16 1q-12 20 -12 53q0 23 17 49.5t39 26.5q5 0 12 -6.5t17 -22.5t16 -26t19 -33t16 -28q20 85 20 203q0 245 -100 245z" />
<glyph unicode="R" horiz-adv-x="502" d="M184 310q21 -28 107 -87l119 -84q17 -12 21 -19.5t4 -27.5q0 -94 -55 -94q-26 0 -93.5 50.5t-201.5 163.5q0 -13 1 -71t1 -72q0 -77 -34 -78q-19 7 -34 21q-6 6 -6 336v217q0 77 120 141q107 57 189 57q57 0 91 -26t34 -74q0 -101 -62.5 -184.5t-200.5 -168.5zM315 629 q-56 0 -134 -38q-66 -32 -83.5 -62t-17.5 -96q0 -38 1 -49q40 12 157 99q118 88 118 112q0 34 -41 34z" />
<glyph unicode="S" horiz-adv-x="464" d="M343 374q-26 0 -26 40q0 8 4.5 36t4.5 36q0 43 -40 89.5t-81 46.5q-65 0 -65 -58t49 -162q8 -17 25.5 -52t28.5 -58.5t23.5 -51.5t19 -48.5t6.5 -33.5q0 -135 -15 -147q-13 -10 -34 -12h-213q-40 0 -40 74q0 34 10.5 60.5t35.5 26.5q17 0 21 -19q19 -11 95 -11q38 0 54 4 q0 9 -21 54l-95 202q-40 84 -40 151q0 102 45 160.5t127 58.5q78 0 132.5 -82t54.5 -179q0 -50 -18.5 -87.5t-47.5 -37.5z" />
<glyph unicode="T" horiz-adv-x="483" d="M432 644q-17 -10 -55 -26t-70 -28.5t-33 -12.5q0 -16 -0.5 -55t-1.5 -119.5t-1 -186.5q0 -96 -3 -128q-9 -88 -47 -88q-21 0 -21 39v509l-92 -37q-68 -27 -88 -27q-27 0 -27 53q0 81 46 102q6 3 29 11.5t78 29.5t105 40q191 73 194 73q31 0 31 -44q0 -81 -44 -105z" />
<glyph unicode="U" horiz-adv-x="480" d="M331 44q-35 -44 -81 -44h-156q-42 0 -66.5 92t-24.5 251q0 154 18 267.5t48 113.5q29 0 29 -42q0 -30 -6.5 -166t-6.5 -166q0 -200 48 -200h105q47 0 74 108t27 256q0 18 -2 100t-2 100q0 58 24 58q58 0 58 -226q0 -122 -19 -261q-24 -186 -67 -241z" />
<glyph unicode="V" horiz-adv-x="509" d="M466 651l-238 -636q-5 -14 -23 -14q-21 0 -26 18l-145 512q-22 76 -22 95q0 17 16 46.5t30 29.5q24 0 39 -49l128 -438l99 246q7 19 25.5 66t39 99.5t43.5 106.5q9 23 26 23t17 -24q0 -57 -9 -81z" />
<glyph unicode="W" horiz-adv-x="597" d="M500 123q-46 -127 -107 -127q-39 0 -84 68t-79 172q-9 -30 -49 -137q-43 -99 -96 -99q-16 0 -23 4q-25 12 -41 103t-16 219q0 89 20 207q30 167 75 167q20 0 20 -32q0 -10 -11 -103q-20 -165 -20 -260q0 -90 15 -144q23 41 38 90l30 95q48 152 84 152q31 0 66 -92 l40 -107q21 -59 51 -103q33 38 33 150q0 32 -11 174t-11 175q0 29 10.5 52.5t18.5 23.5q28 0 53 -135q28 -163 28 -309q0 -114 -34 -204z" />
<glyph unicode="X" horiz-adv-x="552" d="M486 20q-9 -21 -39 -22q-18 13 -76 99l-80 118q-11 16 -27 36t-19 24q-22 -33 -38 -63q-106 -196 -131 -209q-21 0 -27.5 14t-6.5 47t11 57q3 6 19.5 33t51.5 85t72 121q-2 2 -11 19l-152 248q-9 15 -9 34q0 35 16 71.5t37 41.5q15 -6 24 -21l157 -287q19 31 32 61l42 97 q23 54 48 91t42 38q21 -6 21 -30q0 -39 -44 -149t-86 -190q3 -6 13 -20l155 -215q12 -16 12 -38q0 -7 -3 -35t-4 -56z" />
<glyph unicode="Y" horiz-adv-x="469" d="M190 106q-7 -12 -23 -45.5t-30 -50.5t-32 -17q-20 0 -20 28q0 20 54 135.5t59 130.5l-138 173q-56 71 -56 153q0 34 15 68t35 34q7 0 12.5 -4.5t11.5 -15.5t10.5 -21t12 -27.5t12.5 -29.5q20 -44 57 -87q84 -100 91 -108q59 115 110 259l6.5 19.5t13 37t13.5 34.5 q6 13 8.5 18t7 9t11.5 4q23 0 23 -34q0 -70 -110 -328q-72 -169 -154 -335z" />
<glyph unicode="Z" horiz-adv-x="466" d="M391 7q-10 -5 -25 -5h-358q-12 0 -12 15q0 81 27 138q12 24 113 204.5t127 239.5q-36 -1 -87 -17l-34.5 -11.5t-36.5 -12t-31 -8.5t-29 -4q-23 0 -30.5 9.5t-7.5 43.5q0 49 18.5 73t70.5 41q145 47 247 47q20 0 25.5 -7t5.5 -28q0 -98 -61 -224q-7 -14 -52.5 -94 t-86 -156t-46.5 -100q9 0 79 3t91 3q102 0 114 -19v-13q0 -34 -21 -118z" />
<glyph unicode="[" horiz-adv-x="388" d="M350 -170l-213 -3q-27 0 -35 23q-4 10 -4 46q0 23 13 30l-3 874q-5 4 -8 13q-2 4 -2 16q0 5 0.5 16t0.5 18q0 30 24 30q220 0 227 -7q9 -9 9 -35v-20q0 -37 -13 -37h-146v-45q0 -43 -1.5 -397.5t-1.5 -425.5l116 -3q18 0 34 -1q7 0 11.5 -18.5t4.5 -36.5q0 -37 -13 -37z " />
<glyph unicode="\" horiz-adv-x="483" d="M464 52q0 -35 -24 -62q-6 -3 -12 -3q-16 0 -28 23l-341 841q-18 42 -18 72q0 56 44 76q19 -3 35 -40t37 -105l297 -756q10 -26 10 -46z" />
<glyph unicode="]" horiz-adv-x="340" d="M281 -170h-6l-199 -3q-27 0 -35 23q-4 10 -4 46q0 29 19 30h65q31 0 79 -2l-3 870h-130q-32 0 -38 19q-2 4 -2 16q0 5 0.5 16t0.5 18q0 30 22 30h20q30 0 83 -2t121 -2q8 0 13 -42q2 -20 2 -98q0 -45 -1.5 -404.5t-1.5 -424.5q8 -16 8 -53t-13 -37z" />
<glyph unicode="^" horiz-adv-x="577" d="M477 230q0 -17 -9 -37t-22 -29q-12 0 -14 4q-16 22 -72 165q-46 122 -64 181l-3 1q-17 -30 -45 -98l-63 -153q-32 -75 -53 -103l-11 -5l-9 11v18q0 19 9 51q4 14 91 221q60 144 87 194q5 9 19 9q10 0 17 -4q13 -26 78 -218q64 -189 64 -208z" />
<glyph unicode="_" horiz-adv-x="466" d="M508 -123q0 -30 -13 -50q-18 -2 -484 -2q-20 0 -20 21q0 85 25 85h468q24 0 24 -54z" />
<glyph unicode="`" horiz-adv-x="254" d="M91 730q19 -17 69.5 -94t54.5 -89q1 -19 -10 -30q-9 -7 -29 -18q-19 1 -62 35l-80 119q-24 36 -24 66q0 25 13 28q12 2 18 2q29 0 50 -19z" />
<glyph unicode="a" horiz-adv-x="413" d="M309 -2q-20 0 -32 12t-24 214q-40 -5 -149 -23q-4 -1 -16 -73l-15 -90q-10 -39 -41 -39q-27 0 -27 74q0 141 58 362q87 328 174 328q17 0 31.5 -14.5t16.5 -32.5l26 -292q1 -16 16 -59.5t15 -65.5q0 -6 -6.5 -37t-6.5 -38q0 -16 6.5 -90t6.5 -92q0 -44 -33 -44zM220 596 q0 4 -3 4q-23 -7 -39.5 -54t-40.5 -155l-9 -38q15 1 57 10t56 9q-4 74 -21 224z" />
<glyph unicode="b" horiz-adv-x="462" d="M89 -1q-31 0 -55 12t-24 31q0 38 1 209.5t1 210.5q-5 12 -5 28q0 100 100 200q83 81 154 81q85 0 85 -109q0 -74 -81 -177q10 2 12 2q53 0 90 -48q34 -42 34 -121q0 -126 -93 -222.5t-219 -96.5zM256 651q-37 0 -108 -56q-69 -54 -69 -98q0 -3 0.5 -11.5t0.5 -14.5v-31 q66 41 127.5 105t64.5 101q-8 5 -16 5zM258 363q-78 0 -181 -68q4 -116 4 -163q18 -8 40 -8q69 0 139 56.5t70 122.5q0 60 -72 60z" />
<glyph unicode="c" horiz-adv-x="471" d="M416 191q-12 -74 -94.5 -138t-160.5 -64q-72 0 -113.5 78.5t-41.5 204.5q0 136 57 291q74 197 186 197q44 0 76.5 -57t32.5 -112q0 -62 -12.5 -105t-32.5 -43q-26 0 -33 61l-10 77q-10 49 -42 49q-50 0 -94.5 -117t-44.5 -202q0 -173 99 -173q52 0 99 42q13 12 72 84 q19 24 32 24q28 0 28 -55q0 -23 -3 -42z" />
<glyph unicode="d" horiz-adv-x="468" d="M176 82q-40 -56 -54.5 -69.5t-36.5 -13.5q-67 0 -67 156q0 41 1 120t1.5 141.5t0.5 63.5q0 12 -0.5 38t-0.5 43q0 68 5.5 87.5t24.5 31.5q39 24 131.5 61t124.5 37q121 0 121 -166q0 -178 -251 -530zM301 625q-35 0 -116.5 -31.5t-96.5 -52.5q0 -42 -4 -195t-4 -178 q16 -6 36 -8q29 27 83 112l78 124q32 51 55 108t23 82q0 18 -16 28.5t-38 10.5z" />
<glyph unicode="e" horiz-adv-x="433" d="M405 689q-287 -143 -305 -167q-8 -44 -9 -150q173 78 201 78q17 0 17 -26q0 -13 0.5 -30.5t0.5 -22.5q0 -25 -7.5 -33.5t-38.5 -21.5l-176 -78q0 -55 -2 -97q12 -4 39 -4q15 0 85 3.5t86 3.5q59 0 59 -18q0 -96 -12 -112t-188 -16q-87 0 -121 8q-11 41 -11 105 q0 24 4 212l4 176q2 58 8.5 87.5t26.5 47.5q14 13 83 48q225 117 246 117q12 0 20 -9.5t8 -20.5q0 -33 -18 -80z" />
<glyph unicode="f" horiz-adv-x="370" d="M326 694q-11 -14 -112.5 -88.5t-125.5 -96.5q-5 -25 -5 -56q0 -1 0.5 -10t1 -22t0.5 -25q0 -3 -0.5 -8.5t-0.5 -7.5q33 23 84 59.5t79.5 55t63.5 36.5q2 1 5 1q9 0 15.5 -16t6.5 -40q0 -36 -6.5 -52.5t-24.5 -32.5q-43 -37 -95 -70l-132 -85q-5 -28 -5 -77q0 -32 2 -128 q0 -32 -29 -32q-20 0 -26.5 27t-6.5 91q0 108 5 254q5 173 5 210q1 11 2.5 16t10 14.5t27.5 23.5l208 155q31 24 49 24q18 -10 18 -41q0 -62 -14 -79z" />
<glyph unicode="g" horiz-adv-x="505" d="M452 386q-12 -34 -148 -97q-6 -186 -79 -249q-50 -42 -127 -42q-43 0 -70 65t-27 164q0 351 181 519q25 23 53 23q32 0 57 -32.5t25 -67.5q0 -65 -11 -107q-4 -18 -9.5 -25.5t-18.5 -7.5q-16 1 -22.5 22t-6.5 42q-1 13 -3 19t-9.5 12t-21.5 6q-52 -21 -94 -141.5 t-42 -230.5q0 -119 49 -119q53 0 79 33t26 88q0 6 -2 8l-5 -1q-6 -1 -14 -1.5t-14 -0.5q-22 0 -30.5 12t-8.5 48q0 62 22 81q4 4 13 7t39.5 12t59.5 18q9 3 73 34t72 31q24 0 24 -25q0 -70 -10 -97z" />
<glyph unicode="h" horiz-adv-x="429" d="M350 11q-8 -15 -22 -15t-31 18q-14 15 -17 23.5t-3 33.5q0 41 1.5 121t1.5 95q-96 -2 -184 -29l-6 -249q-11 -10 -23 -10q-15 0 -26.5 13.5t-11.5 29.5v579q0 30 16.5 60.5t36.5 30.5q18 0 18 -36q0 -25 -1.5 -133t-1.5 -132q16 6 48.5 11.5t61 8.5t53.5 5l24 3 q0 15 -1 82t-1 82q0 158 47 158q28 0 28 -46q0 -193 -7 -704z" />
<glyph unicode="i" horiz-adv-x="238" d="M162 58q0 -26 -16.5 -48.5t-37.5 -22.5q-32 0 -32 48l-3 632q0 26 16 56.5t34 30.5q38 0 41 -43q1 -10 1 -117q0 -50 -1.5 -269t-1.5 -267z" />
<glyph unicode="j" horiz-adv-x="490" d="M426 659q-14 -10 -65.5 -38.5t-56.5 -31.5v-405q0 -133 -15 -174q-4 -10 -29 -10h-184q-38 0 -38 36q0 121 30 121q6 0 23 -8t21 -8h108q15 0 15 33v384l-100 -56q-73 -42 -98 -47q-23 8 -23 28q0 82 23 113q78 46 205 108q17 8 87.5 45t143.5 69q8 0 14 -13t6 -26 q0 -72 -67 -120z" />
<glyph unicode="k" horiz-adv-x="536" d="M436 11q-29 0 -64 29l-229 188q-9 7 -39 40v-217q0 -19 -10 -35.5t-24 -16.5q-12 0 -20.5 12.5t-8.5 27.5l3 601q0 38 15 76t36 38q22 0 22 -44q0 -23 -2.5 -129t-2.5 -131l128 117q76 69 111 129l28 48q17 29 41 29q22 0 22 -43q0 -77 -103 -198q-32 -37 -164 -169 q67 -67 138 -126.5t103 -76.5l33 -17q24 -8 31 -19t7 -52q0 -61 -51 -61z" />
<glyph unicode="l" horiz-adv-x="444" d="M414 162q0 -93 -29 -125q-35 -38 -137 -38q-145 0 -207 8q-18 33 -18 164q0 14 5 508q0 28 17.5 56t45.5 28q22 0 22 -39q0 -32 -2 -174t-2 -173v-206q13 0 73.5 -3t74.5 -3q41 0 83.5 20.5t49.5 20.5q24 0 24 -44z" />
<glyph unicode="m" horiz-adv-x="637" d="M570 88q0 -90 -44 -90q-14 0 -23 17.5t-14.5 70t-5.5 143.5q0 149 -26 355q-17 -29 -41 -81l-62 -137q-82 -183 -111 -183q-18 0 -33.5 59t-28 132t-19.5 88q-37 -56 -44 -158q-2 -31 -3 -82.5t-2.5 -85t-5.5 -68.5t-14 -52.5t-26 -17.5q-50 0 -50 148q0 126 13 223 q15 104 68.5 188.5t103.5 84.5q55 0 84 -158q39 106 91.5 194t89.5 88q44 0 66.5 -92.5t29.5 -332.5l4 -126q3 -79 3 -127z" />
<glyph unicode="n" horiz-adv-x="537" d="M434 14q-23 -16 -58 -16q-40 0 -67 27q-39 39 -102 199q-10 26 -91 244q0 -14 2.5 -152.5t2.5 -181.5q0 -134 -51 -134q-22 0 -37 17q-7 7 -7 150q0 277 4.5 401t18.5 133q23 15 48 15q46 0 145 -262q91 -246 123 -281q15 108 15 218q0 23 -1.5 61t-4 76.5t-4.5 73 t-3.5 57.5t-1.5 24q0 67 33 67q32 0 49.5 -112t17.5 -322q0 -48 -8 -160q-11 -134 -23 -142z" />
<glyph unicode="o" horiz-adv-x="486" d="M407 215q-13 -70 -44 -131q-22 -45 -55 -71q-17 -14 -65 -14q-13 0 -45.5 0.5t-56.5 0.5q-52 0 -65 5t-29 30q-9 17 -24 113.5t-15 138.5q0 131 58 289q72 196 176 196q42 0 79.5 -40.5t61.5 -109.5q37 -104 37 -257q0 -85 -13 -150zM232 633q-30 0 -61 -45 q-86 -121 -86 -290q0 -23 11 -107q5 -34 20 -42t51 -8q104 0 140 40.5t36 152.5q0 299 -111 299z" />
<glyph unicode="p" horiz-adv-x="418" d="M91 253q0 -35 0.5 -74.5t0.5 -52.5q0 -67 -6 -115q-17 -14 -33 -14q-9 0 -27 5q-6 67 -6 199q0 31 1 169.5t1 168.5q0 99 78.5 164t188.5 65q47 0 73.5 -36t26.5 -99q0 -185 -298 -380zM277 645q-47 0 -111 -40q-54 -34 -65 -57.5t-11 -86.5v-80q71 38 145 113t87 129 q-4 22 -45 22z" />
<glyph unicode="q" horiz-adv-x="494" d="M405 -121h-7q-23 0 -51 30.5t-69 89.5q-15 0 -83 -1t-83 -1q-24 0 -36 3q-26 27 -43 101.5t-17 155.5q0 137 33 249q29 99 85 173t115 74q68 0 119 -88q27 -47 39 -96q18 -78 18 -217q0 -65 -6.5 -112.5t-19.5 -102t-19 -87.5q1 -4 35.5 -49t34.5 -58q0 -29 -45 -64z M242 592q-46 0 -79 -43.5t-48 -112t-15 -153.5q0 -59 2.5 -89t14 -45t23.5 -17t42 -2q13 0 16 1q-12 20 -12 53q0 23 17 49.5t39 26.5q5 0 12 -6.5t17 -22.5t16 -26t19 -33t16 -28q20 85 20 203q0 245 -100 245z" />
<glyph unicode="r" horiz-adv-x="502" d="M184 310q21 -28 107 -87l119 -84q17 -12 21 -19.5t4 -27.5q0 -94 -55 -94q-26 0 -93.5 50.5t-201.5 163.5q0 -13 1 -71t1 -72q0 -77 -34 -78q-19 7 -34 21q-6 6 -6 336v217q0 77 120 141q107 57 189 57q57 0 91 -26t34 -74q0 -101 -62.5 -184.5t-200.5 -168.5zM315 629 q-56 0 -134 -38q-66 -32 -83.5 -62t-17.5 -96q0 -38 1 -49q40 12 157 99q118 88 118 112q0 34 -41 34z" />
<glyph unicode="s" horiz-adv-x="464" d="M343 374q-26 0 -26 40q0 8 4.5 36t4.5 36q0 43 -40 89.5t-81 46.5q-65 0 -65 -58t49 -162q8 -17 25.5 -52t28.5 -58.5t23.5 -51.5t19 -48.5t6.5 -33.5q0 -135 -15 -147q-13 -10 -34 -12h-213q-40 0 -40 74q0 34 10.5 60.5t35.5 26.5q17 0 21 -19q19 -11 95 -11q38 0 54 4 q0 9 -21 54l-95 202q-40 84 -40 151q0 102 45 160.5t127 58.5q78 0 132.5 -82t54.5 -179q0 -50 -18.5 -87.5t-47.5 -37.5z" />
<glyph unicode="t" horiz-adv-x="483" d="M432 644q-17 -10 -55 -26t-70 -28.5t-33 -12.5q0 -16 -0.5 -55t-1.5 -119.5t-1 -186.5q0 -96 -3 -128q-9 -88 -47 -88q-21 0 -21 39v509l-92 -37q-68 -27 -88 -27q-27 0 -27 53q0 81 46 102q6 3 29 11.5t78 29.5t105 40q191 73 194 73q31 0 31 -44q0 -81 -44 -105z" />
<glyph unicode="u" horiz-adv-x="480" d="M331 44q-35 -44 -81 -44h-156q-42 0 -66.5 92t-24.5 251q0 154 18 267.5t48 113.5q29 0 29 -42q0 -30 -6.5 -166t-6.5 -166q0 -200 48 -200h105q47 0 74 108t27 256q0 18 -2 100t-2 100q0 58 24 58q58 0 58 -226q0 -122 -19 -261q-24 -186 -67 -241z" />
<glyph unicode="v" horiz-adv-x="509" d="M466 651l-238 -636q-5 -14 -23 -14q-21 0 -26 18l-145 512q-22 76 -22 95q0 17 16 46.5t30 29.5q24 0 39 -49l128 -438l99 246q7 19 25.5 66t39 99.5t43.5 106.5q9 23 26 23t17 -24q0 -57 -9 -81z" />
<glyph unicode="w" horiz-adv-x="597" d="M500 123q-46 -127 -107 -127q-39 0 -84 68t-79 172q-9 -30 -49 -137q-43 -99 -96 -99q-16 0 -23 4q-25 12 -41 103t-16 219q0 89 20 207q30 167 75 167q20 0 20 -32q0 -10 -11 -103q-20 -165 -20 -260q0 -90 15 -144q23 41 38 90l30 95q48 152 84 152q31 0 66 -92 l40 -107q21 -59 51 -103q33 38 33 150q0 32 -11 174t-11 175q0 29 10.5 52.5t18.5 23.5q28 0 53 -135q28 -163 28 -309q0 -114 -34 -204z" />
<glyph unicode="x" horiz-adv-x="552" d="M486 20q-9 -21 -39 -22q-18 13 -76 99l-80 118q-11 16 -27 36t-19 24q-22 -33 -38 -63q-106 -196 -131 -209q-21 0 -27.5 14t-6.5 47t11 57q3 6 19.5 33t51.5 85t72 121q-2 2 -11 19l-152 248q-9 15 -9 34q0 35 16 71.5t37 41.5q15 -6 24 -21l157 -287q19 31 32 61l42 97 q23 54 48 91t42 38q21 -6 21 -30q0 -39 -44 -149t-86 -190q3 -6 13 -20l155 -215q12 -16 12 -38q0 -7 -3 -35t-4 -56z" />
<glyph unicode="y" horiz-adv-x="469" d="M190 106q-7 -12 -23 -45.5t-30 -50.5t-32 -17q-20 0 -20 28q0 20 54 135.5t59 130.5l-138 173q-56 71 -56 153q0 34 15 68t35 34q7 0 12.5 -4.5t11.5 -15.5t10.5 -21t12 -27.5t12.5 -29.5q20 -44 57 -87q84 -100 91 -108q59 115 110 259l6.5 19.5t13 37t13.5 34.5 q6 13 8.5 18t7 9t11.5 4q23 0 23 -34q0 -70 -110 -328q-72 -169 -154 -335z" />
<glyph unicode="z" horiz-adv-x="466" d="M391 7q-10 -5 -25 -5h-358q-12 0 -12 15q0 81 27 138q12 24 113 204.5t127 239.5q-36 -1 -87 -17l-34.5 -11.5t-36.5 -12t-31 -8.5t-29 -4q-23 0 -30.5 9.5t-7.5 43.5q0 49 18.5 73t70.5 41q145 47 247 47q20 0 25.5 -7t5.5 -28q0 -98 -61 -224q-7 -14 -52.5 -94 t-86 -156t-46.5 -100q9 0 79 3t91 3q102 0 114 -19v-13q0 -34 -21 -118z" />
<glyph unicode="{" horiz-adv-x="380" d="M345 871q10 0 10 -10q0 -41 -18 -79q-4 -8 -18 -9.5t-38 -5t-45 -15.5q-15 -8 -22.5 -26t-8.5 -32t-1 -41q0 -33 10 -88t10 -79q0 -21 -16 -47.5t-44 -42.5l-53 -30q7 -6 33.5 -26.5t39.5 -32.5t26 -32t13 -39q0 -26 -10 -89t-10 -84q0 -44 8 -73t20 -29q19 0 51 4.5 t47 4.5q26 0 26 -18q0 -29 -11.5 -59t-32.5 -30q-7 1 -49.5 2.5t-48.5 3.5q-46 10 -71.5 51.5t-25.5 88.5q0 76 11 140q3 23 3 43q0 23 -10.5 43.5t-22 31t-33.5 28.5q-45 29 -45 68q3 32 29 47q80 44 80 92q0 24 -4 71.5t-4 70.5q0 81 32 127q46 65 94 83q47 17 99 17z" />
<glyph unicode="|" horiz-adv-x="321" d="M203 -50q0 -26 -16.5 -48.5t-37.5 -22.5q-32 0 -32 48l-3 826q0 26 16 56.5t34 30.5q38 0 41 -43q1 -10 1 -117q0 -50 -1.5 -366t-1.5 -364z" />
<glyph unicode="}" horiz-adv-x="397" d="M29 -137q-10 0 -10 10q0 14 7 46t14 47q4 8 17 10t36.5 6t44.5 16q15 8 22.5 26t8.5 32t1 41q0 34 -10 88.5t-10 78.5q0 21 16 47.5t44 42.5l53 30q-7 6 -33.5 26.5t-39.5 32.5t-26 32t-13 39q0 26 10 89t10 84q0 44 -8 70t-20 26q-19 0 -51 -1.5t-47 -1.5q-26 0 -26 18 q0 27 16 58t38 31q8 -1 45 -1t43 -2q46 -10 71.5 -53t25.5 -90q0 -76 -11 -140q-3 -23 -3 -43q0 -23 10.5 -43.5t22 -31t33.5 -28.5q45 -29 45 -68q-3 -32 -29 -47q-80 -44 -80 -92q0 -24 4 -71.5t4 -70.5q0 -97 -32 -143q-46 -65 -94 -83q-47 -17 -99 -17z" />
<glyph unicode="~" horiz-adv-x="618" d="M562 321q0 -12 -15 -34q-12 -16 -92.5 -64.5t-100.5 -48.5q-28 0 -86 64q-59 65 -72 65q-16 0 -65 -39t-61 -39q-13 0 -13 21q0 26 72.5 81.5t106.5 55.5q24 0 78 -64q52 -64 69 -64q23 0 89 40.5t79 42.5q11 -5 11 -17z" />
<glyph unicode="&#xa1;" horiz-adv-x="209" d="M50 -111q0 11 3 84.5t3 99.5v97q0 204 17 330q15 14 37 15l14 -15q13 -155 13 -259q0 -126 -29 -360q-16 -12 -20 -12q-5 0 -21.5 7.5t-16.5 12.5zM100 693q37 0 47 -25l-9 -82l-19 -14l-32 8q-23 5 -23 18q0 95 36 95z" />
<glyph unicode="&#xa2;" horiz-adv-x="441" d="M268 13q0 -23 -15 -43t-33 -20q-28 0 -28 43v39q-8 -2 -23 -2q-63 0 -100 73.5t-37 186.5q0 83 45 189.5t112 149.5v27q0 23 14 50t30 27q34 0 37 -38v-17q1 -18 1 -31q35 -11 64 -58t29 -88q0 -91 -41 -91q-11 0 -17.5 8.5t-11.5 34.5l-8 38q-4 17 -15 25l-3 -317 q8 6 12 10q40 35 63 64q17 21 29 21q14 0 19.5 -7.5t5.5 -30.5q0 -22 -3 -37q-7 -43 -42.5 -86t-83.5 -72v-48zM106 315q0 -75 21 -109t64 -35l-2 334q-34 -29 -58.5 -85.5t-24.5 -104.5z" />
<glyph unicode="&#xa3;" horiz-adv-x="510" d="M334 652q-75 0 -158 -75q0 -13 -0.5 -32.5t-1 -55.5t-0.5 -72q12 3 56.5 20.5t65.5 20.5q3 -4 3 -26q0 -8 -0.5 -26.5t-0.5 -25.5q-1 -35 -8 -37l-99 -31l-12 -161q32 3 90 3q7 0 13.5 -0.5t18.5 -0.5q25 0 61 10t47 10q38 0 38 -40q0 -51 -7 -77.5t-24 -45.5 q-14 -15 -59 -15q-19 0 -50 6t-50 6q-50 0 -94.5 -7t-53.5 -7t-14 1q-10 17 -10 70q0 26 3 57l14 169q-2 0 -6 -1t-8.5 -2t-10 -3t-10.5 -3.5t-9 -2.5t-6 -2l-2 -1q-6 0 -6 19q0 5 0.5 13.5t0.5 10.5q0 3 1 11.5t1 25.5q3 26 24 27l31 13l5 152l-22 -2q-27 0 -27 53 q0 29 9 51.5t20.5 37t37.5 29t44.5 22t57.5 21.5q87 31 121 31q31 0 39 -17t8 -56q0 -37 -16 -51t-45 -14z" />
<glyph unicode="&#xa4;" horiz-adv-x="672" d="M364 65q-44 0 -93 22t-76 45q-28 23 -52 51l-48 -47q-13 -13 -24 -13q-18 0 -52 34q-13 13 -13 23q0 7 7 14l78 78q-16 45 -16 105q0 104 44 186l-69 70q-13 13 -13 24q0 18 34 52q13 13 23 13q7 0 14 -7l71 -71q80 77 193 77q62 0 119 -47q55 53 70 62q14 -2 45 -33 q21 -20 21 -32l-72 -72q57 -89 57 -199q0 -88 -33 -157q58 -61 58 -65q-2 -14 -33 -45q-20 -21 -32 -21l-49 49q-59 -60 -159 -96zM322 171q86 3 157 63.5t71 160.5q0 73 -43 135q-60 87 -148 87q-97 0 -154.5 -74.5t-57.5 -164.5q0 -79 45.5 -128t129.5 -79z" />
<glyph unicode="&#xa5;" horiz-adv-x="527" d="M416 95h-94v-36q0 -26 -16.5 -48.5t-37.5 -22.5q-33 0 -33 48v59h-67q-23 0 -30.5 11t-7.5 48q0 30 22 30h83v29h-45q-29 0 -48.5 8.5t-19.5 23.5v13t0.5 13t1 11t2 10.5t3.5 7.5t5.5 5.5t8.5 1.5q49 0 81 -1l-122 154q-56 71 -56 153q0 34 15 68t35 34q7 0 12.5 -4.5 t11.5 -15.5t10.5 -21t12 -27.5t12.5 -29.5q20 -44 57 -87q84 -100 91 -108q59 115 110 259l6.5 19.5t13 37t13.5 34.5q6 13 8.5 18t7 9t11.5 4q23 0 23 -34q0 -70 -110 -328q-5 -12 -28 -60t-33 -78q4 0 11.5 -0.5t10.5 -0.5q1 0 9.5 -0.5t14.5 -0.5q21 0 28 -2.5t8 -12.5 v-53q0 -10 -5 -12q-17 -6 -80 -7v-31q99 -3 102 -11q5 -22 5 -50q0 -27 -13 -27z" />
<glyph unicode="&#xa6;" horiz-adv-x="244" d="M162 378q0 -26 -16.5 -48.5t-37.5 -22.5q-32 0 -32 48l-3 222q0 26 16 56.5t34 30.5q38 0 41 -43q1 -10 1 -117q0 -50 -1.5 -64t-1.5 -62zM161 -32q0 -26 -16.5 -48.5t-37.5 -22.5q-32 0 -32 48l-3 232q0 26 16 56.5t34 30.5q38 0 41 -43q1 -10 1 -117q0 -50 -1.5 -69 t-1.5 -67z" />
<glyph unicode="&#xa7;" horiz-adv-x="534" d="M175 610q0 -10 18.5 -24t48.5 -33t66 -44t71.5 -62t65.5 -81.5t48.5 -109t18.5 -138.5q0 -46 -38.5 -114t-83.5 -68l-308 -10q-18 0 -28.5 27.5t-10.5 66.5q0 34 10.5 60.5t35.5 26.5q17 0 21 -19q19 -11 189 -11q48 0 64.5 10.5t16.5 36.5q-321 87 -321 277q0 64 17 146 q-4 20 -4 61q0 75 46 128.5t130 53.5q77 0 145 -37.5t91 -110.5q9 -30 -28 -52q-34 -21 -56 -7q-12 7 -12 24q0 19 -44 38.5t-86 19.5q-35 0 -59 -14t-24 -41zM168 445v-9q0 -44 14 -76.5t46.5 -57.5t55 -37t69.5 -33l25 -11q-5 39 -50 90t-87 83t-73 51z" />
<glyph unicode="&#xa8;" horiz-adv-x="465" d="M147 820q-41 0 -51 34l11 89q8 5 26 19l31 -8q17 -4 27 -26q0 -108 -44 -108zM303 820q-41 0 -51 34l11 89q8 5 26 19l31 -8q17 -4 27 -26q0 -108 -44 -108z" />
<glyph unicode="&#xa9;" horiz-adv-x="820" d="M678 427q0 -126 -40 -232t-109 -157q-51 -38 -118 -38q-254 0 -254 300q0 164 82 301q96 160 253 160q56 0 100 -53t65 -128t21 -153zM611 425q0 110 -34 186.5t-97 76.5q-24 0 -51 -13q-91 -42 -150.5 -148t-59.5 -222q0 -111 51.5 -180t138.5 -69q96 0 149 97.5 t53 271.5zM566 277q0 -68 -56.5 -119t-124.5 -51q-50 0 -79 54t-29 144q0 98 40 205q51 136 130 136q31 0 53.5 -40.5t22.5 -77.5q0 -44 -9 -73.5t-22 -30.5q-15 0 -20 32.5t-12.5 65.5t-27.5 33t-35.5 -23t-31.5 -67q-30 -83 -30 -133q0 -121 69 -121q34 0 67 27 q11 9 27 29t28.5 34.5t19.5 14.5q20 0 20 -39z" />
<glyph unicode="&#xaa;" horiz-adv-x="383" d="M324 342q0 -30 -13 -51q-7 -9 -17 -9q-9 0 -14 6q-1 3 -1 15q0 42 1 70q-35 -76 -96 -76q-23 0 -56 14q-40 17 -54.5 49.5t-14.5 98.5q0 69 14 107q16 45 62.5 81t92.5 36q29 0 47 -21q7 35 31 35q5 0 17 -6q9 -25 9 -60q0 -114 -8 -289zM254 543q0 23 -39 23h-11 q-84 -38 -84 -100q0 -12 10.5 -24t23.5 -18q10 -5 36 -5q64 24 64 124z" />
<glyph unicode="&#xab;" horiz-adv-x="717" d="M412 513q0 -23 -12 -46t-31 -36q-18 -9 -46.5 -25.5t-86 -49t-120.5 -67.5q36 -30 106.5 -74t116.5 -67q63 -33 63 -51l-4 -47q-2 -31 -9 -41t-23 -10q-14 0 -166 90q-152 91 -174 111q-7 19 -7 62q0 45 4 74q4 22 9.5 29.5t34.5 22.5l169 91q135 72 154 72q22 0 22 -38z M691 518q0 -24 -12 -49.5t-30 -37.5q-129 -68 -254 -137q31 -26 69 -46.5t92 -44t75 -34.5q49 -24 51 -48l-5 -66q-1 -15 -2.5 -21.5t-8.5 -13t-21 -6.5q-15 0 -166 90q-175 105 -175 118q-6 15 -6 45q0 22 3 49q0 21 11 33t34 24q31 17 92 52t84 48q37 20 73.5 42 t52.5 31.5t21 9.5q22 0 22 -38z" />
<glyph unicode="&#xac;" horiz-adv-x="592" d="M536 401v-129q0 -26 -16.5 -48.5t-37.5 -22.5q-32 0 -32 48l-1 115h-383q-27 0 -35 23q-4 10 -4 46q0 30 22 30q457 0 478 -7q7 -14 9 -43v-12z" />
<glyph unicode="&#xae;" horiz-adv-x="820" d="M678 427q0 -116 -35 -217t-95 -157q-57 -53 -137 -53q-254 0 -254 300q0 89 31.5 187.5t89.5 168.5q88 105 214 105q80 0 133 -101t53 -233zM611 425q0 113 -36.5 188t-94.5 75q-20 0 -51 -13q-90 -39 -150 -146.5t-60 -223.5q0 -111 51.5 -180t138.5 -69q96 0 149 97.5 t53 271.5zM549 534q0 -114 -158 -212q13 -16 81 -63q48 -34 58.5 -43.5t10.5 -21.5q0 -59 -33 -59q-25 0 -177 128q0 -8 1 -43t1 -43q0 -45 -21 -46q-20 7 -21 15q-3 32 -3 188v141q0 47 75 86q63 33 111 33q75 0 75 -60zM494 493q0 20 -25 20q-35 0 -80 -22 q-40 -19 -50.5 -37t-10.5 -58q0 -23 1 -30q21 6 93 59t72 68z" />
<glyph unicode="&#xaf;" horiz-adv-x="498" d="M437 782h-394q-27 0 -35 23q-4 10 -4 46q0 30 22 30q394 0 415 -7q9 -17 9 -55q0 -37 -13 -37z" />
<glyph unicode="&#xb0;" horiz-adv-x="361" d="M241 663q0 -25 -6 -42q-5 -15 -17 -31q-20 -26 -41 -26h-27q-40 0 -54.5 17.5t-14.5 64.5q0 34 26 78.5t62 44.5q32 0 52 -30.5t20 -75.5zM187 651v42q-3 15 -18 15q-37 -34 -37 -62q0 -21 10 -21q45 0 45 26z" />
<glyph unicode="&#xb1;" horiz-adv-x="583" d="M508 449q0 -36 -10 -43q-11 -10 -74 -25.5t-112 -19.5q-1 -8 -1 -28q0 -27 1 -61t1 -35q0 -51 -5 -96q-12 -5 -22 -5q-9 1 -34 4l-2 216q-48 -2 -117 -2q-53 0 -64.5 9t-12.5 54q0 40 10.5 51t42.5 11q14 0 72 -2.5t71 -2.5q1 13 1 42q0 14 -1 74.5t-1 74.5q0 44 28 44 q20 0 29 -11q0 -2 3 -220q54 5 157 28q12 2 15 2q25 0 25 -59zM475 6h-355q-21 0 -30 13.5t-9 55.5q0 30 22 30q351 0 371 -7q9 -12 9 -55q0 -34 -8 -37z" />
<glyph unicode="&#xb2;" horiz-adv-x="408" d="M322 755q0 -56 -30 -116l-131 -265q3 -1 9 -1q13 0 65 14t64 14q15 0 15 -19v-58q0 -10 -4 -15q-4 -8 -69.5 -24.5t-87.5 -16.5q-53 0 -53 47q0 63 51 162l82 160q32 64 32 74q0 4 -6 4q-9 0 -47 -29t-52 -45l-20 -78q-17 -51 -44 -51q-14 0 -23 11.5t-9 26.5 q0 133 146 234q48 33 77 33q35 0 35 -62z" />
<glyph unicode="&#xb3;" horiz-adv-x="415" d="M316 677l-45 -64q27 -1 45 -25.5t18 -58.5q0 -81 -67.5 -161.5t-144.5 -80.5q-33 0 -33 42q0 15 11.5 41t28.5 26q7 0 12.5 -11t10.5 -11q33 0 75 41.5t42 74.5q0 32 -38 32q-11 0 -23 -7t-24 -17t-18 -13l-12 1q-9 22 -9 32q0 42 38 85l58 66q33 37 33 52q-33 0 -89 -46 l-79 -65q-3 -1 -8 -1q-11 0 -11 23q0 54 78 116t142 62q35 0 35 -59q0 -36 -26 -74z" />
<glyph unicode="&#xb4;" horiz-adv-x="475" d="M206 781q-23 -4 -30 -4q-18 3 -18 19q0 22 37 84l45 75q42 68 63 68q24 0 24 -24q0 -43 -73 -157q-12 -20 -48 -61z" />
<glyph unicode="&#xb5;" horiz-adv-x="833" d="M201 -62q0 -26 -16.5 -48.5t-37.5 -22.5q-32 0 -32 48l-3 548q0 45 15 80t35 35q38 0 41 -43q1 -10 1 -137q0 -16 -0.5 -76.5t-0.5 -99.5q11 -81 41 -81h65q51 0 93.5 69t42.5 205q0 18 0.5 51.5t0.5 47.5q0 58 24 58q29 0 41 -55t12 -171q0 -66 -27.5 -173t-53.5 -129 q-36 -44 -81 -44h-156h-4v-62z" />
<glyph unicode="&#xb6;" horiz-adv-x="490" d="M313 -29q0 -26 -16.5 -48.5t-37.5 -22.5q-32 0 -32 48l-2 431q-169 78 -169 240q0 58 27 92t73 34q116 0 196.5 -51.5t80.5 -147.5q0 -30 1 -168.5t1 -169.5q0 -233 -6 -300q-18 -5 -27 -5q-26 0 -43 14q-6 48 -6 95q0 13 -0.5 152.5t-0.5 174.5q-15 3 -37 8 q-2 -274 -2 -376z" />
<glyph unicode="&#xb7;" horiz-adv-x="314" d="M156 306q-41 0 -51 34l11 89q8 5 26 19l34 -9q16 -7 24 -25q0 -108 -44 -108z" />
<glyph unicode="&#xb8;" horiz-adv-x="373" d="M222 -7l-18 -31q51 -13 51 -79q0 -41 -21 -75t-52 -34q-30 0 -52.5 13t-22.5 33q0 37 23 37q9 0 29.5 -12t33.5 -12q25 0 25 26q0 49 -65 49q-17 0 -17 9q0 20 36 73q5 7 14 21q15 20 30 22q2 1 18 -1q13 -2 -2 -24q-2 -3 -3.5 -5t-3 -4.5t-3.5 -5.5z" />
<glyph unicode="&#xb9;" horiz-adv-x="395" d="M250 354q0 -38 -15 -62q-9 -11 -24 -11q-10 0 -17 8q-2 3 -2 18q0 31 4.5 157.5t4.5 156.5q0 58 -4 106l-4 21q-3 15 -3 21q0 27 10 43.5t28 16.5q10 0 23 -7q11 -27 11 -73q0 -150 -12 -395z" />
<glyph unicode="&#xba;" horiz-adv-x="359" d="M187 297q-23 0 -56 14q-40 17 -54.5 49.5t-14.5 98.5q0 69 14 107q16 45 62.5 81t92.5 36q40 0 61 -40.5t21 -109.5q0 -97 -33 -166.5t-93 -69.5zM257 543q0 23 -39 23h-11q-84 -38 -84 -100q0 -12 10.5 -24t23.5 -18q10 -5 36 -5q64 24 64 124z" />
<glyph unicode="&#xbb;" horiz-adv-x="733" d="M393 314q2 -15 2 -35q0 -21 -4 -57q-2 -21 -8.5 -29t-34.5 -24q-56 -31 -133 -77t-119.5 -70.5t-52.5 -24.5q-24 0 -24 32q0 25 23 58q7 10 14.5 18.5t20.5 18.5t23 17t33.5 21t41 24t56 32.5t67.5 39.5q-17 16 -83.5 53t-122.5 70.5t-58 47.5l-1 9l5 65q2 40 30 40 q12 0 37.5 -15.5t122.5 -79.5q74 -49 111 -76.5t45 -37.5t9 -20zM296 37q0 23 12 46t31 36q18 9 46.5 25.5t86 49t120.5 67.5q-36 30 -106.5 74t-116.5 67q-63 33 -63 51l4 47q2 31 9 41t23 10q14 0 166 -90q152 -91 174 -111q7 -19 7 -62q0 -45 -4 -74q-4 -22 -9.5 -29.5 t-34.5 -22.5l-169 -91q-135 -72 -154 -72q-22 0 -22 38z" />
<glyph unicode="&#xbc;" horiz-adv-x="632" d="M665 788q0 -31 -17 -48l-429 -434l-33 -40q-24 -29 -38 -29q-11 0 -19 15.5t-8 32.5q0 29 32 61l476 473q9 8 19 8q7 0 12 -14t5 -25zM306 575q0 -30 -13 -51q-7 -9 -17 -9q-9 0 -14 6q-1 3 -1 15q0 26 2 129.5t2 128.5q0 7 -4 87l-4 18q-1 8 -1 17q0 22 8.5 36.5 t23.5 14.5q5 0 17 -6q9 -25 9 -60q0 -151 -8 -326zM565 165q-11 -5 -30 -9l-31 -9q-1 -22 -6 -74.5t-8 -56.5q-9 -15 -20 -15q-19 0 -19 26q0 9 3.5 53t3.5 57l-48 -6q-25 -5 -49 -5q-55 0 -55 36q0 35 54 133l76 140q43 91 69 91q9 0 15 -12q-9 -172 -12 -278q51 18 68 18 t17 -36q0 -38 -28 -53zM471 386q-23 -40 -53 -99.5t-37 -71.5q27 0 82 12q8 112 8 159z" />
<glyph unicode="&#xbd;" horiz-adv-x="617" d="M311 905q0 -8 -1 -51.5t-3 -116t-5 -153.5q0 -23 -12 -53l-15 -8l-16 5q-2 6 -2 20q0 30 2 121t2 120q0 63 -3 96q0 3 -3 18.5t-3 20.5q0 30 20 50l15 3l14 -8q10 -21 10 -64zM575 445q0 -52 -26 -106l-121 -244l1 -2l5 -1q12 0 61 12.5t61 12.5h4q2 -1 4 -1l3 -6 q0 -2 1 -4v-58q0 -7 -3 -13q-8 -8 -65.5 -22t-77.5 -14q-46 0 -46 41q0 36 20.5 87.5t65 139.5t64.5 132l-4 7l-8 3q-12 -3 -44 -29q-5 -4 -12 -9.5t-10 -8t-7.5 -6.5t-6.5 -6.5t-4.5 -6.5t-4 -8t-3 -9t-3.5 -11q-14 -61 -22 -76.5t-27 -15.5q-27 0 -27 33q0 124 133 215 q43 29 69 29q30 0 30 -55zM665 788q0 -31 -17 -48l-429 -434l-33 -40q-24 -29 -38 -29q-11 0 -19 15.5t-8 32.5q0 29 32 61l476 473q9 8 19 8q7 0 12 -14t5 -25z" />
<glyph unicode="&#xbe;" horiz-adv-x="763" d="M459 850q0 -34 -25 -71l-43 -62q26 -1 43.5 -25t17.5 -56q0 -73 -58 -146q-70 -88 -146 -88q-33 0 -33 42q0 20 12.5 41.5t25.5 21.5q11 0 14.5 -10t9.5 -10q32 0 72 39.5t40 71.5q0 31 -37 31q-6 0 -11.5 -1.5t-13 -6.5t-11.5 -7.5t-13.5 -10.5t-12.5 -10l-12 2 q-8 21 -8 31q0 42 51 99q63 68 73 91v5q-32 0 -85 -44l-77 -63q-1 -1 -8 -1q-10 0 -10 15q0 60 74 119.5t138 59.5q33 0 33 -57zM727 701q0 -31 -17 -48l-429 -434l-35 -40q-24 -29 -38 -29q-11 0 -18 14t-7 31q0 32 32 64l476 473q9 8 19 8q7 0 12 -14t5 -25zM695 166 q-11 -4 -30 -9l-31 -9q-1 -22 -6 -74.5t-8 -56.5q-9 -15 -20 -15q-19 0 -19 25q0 9 3.5 54t3.5 58l-48 -8q-25 -5 -49 -5q-55 0 -55 36q0 35 54 133l76 140q43 92 71 92q7 0 13 -13q-9 -172 -12 -278q64 17 67 17q16 0 16 -35q0 -38 -26 -52zM601 386q-23 -40 -53 -99.5 t-37 -71.5q57 7 82 12q8 112 8 159z" />
<glyph unicode="&#xbf;" horiz-adv-x="342" d="M14 -6q0 69 45 155q19 35 85 142q10 15 25 50q-8 0 -37.5 -21t-43.5 -21q-18 0 -18 82q80 111 183 150q22 8 25 8q14 0 24 -10q-1 -78 -28.5 -145t-105.5 -180q-46 -67 -73.5 -119.5t-27.5 -69.5q0 -10 11 -10q75 39 160 142l22 28q16 21 24 21q21 0 21 -23 q0 -52 -12 -73q-38 -65 -108.5 -124.5t-129.5 -75.5q-41 14 -41 94zM129 580q0 1 0.5 4.5t0.5 11v18.5q0 26 32.5 61t60.5 35q9 -20 9 -47q0 -49 -23.5 -86.5t-59.5 -37.5q-20 0 -20 41z" />
<glyph unicode="&#xc0;" horiz-adv-x="413" d="M119 1006q31 -38 67 -103.5t36 -102.5q0 -24 -23 -24t-57 66l-39 72q-29 53 -31 78q0 17 18 19q2 0 29 -5zM309 -2q-20 0 -32 12t-24 214q-40 -5 -149 -23q-4 -1 -16 -73l-15 -90q-10 -39 -41 -39q-27 0 -27 74q0 141 58 362q87 328 174 328q17 0 31.5 -14.5t16.5 -32.5 l26 -292q1 -16 16 -59.5t15 -65.5q0 -6 -6.5 -37t-6.5 -38q0 -16 6.5 -90t6.5 -92q0 -44 -33 -44zM220 596q0 4 -3 4q-23 -7 -39.5 -54t-40.5 -155l-9 -38q15 1 57 10t56 9q-4 74 -21 224z" />
<glyph unicode="&#xc1;" d="M309 -2q-20 0 -32 12t-24 214q-40 -5 -149 -23q-4 -1 -16 -73l-15 -90q-10 -39 -41 -39q-27 0 -27 74q0 141 58 362q87 328 174 328q17 0 31.5 -14.5t16.5 -32.5l26 -292q1 -16 16 -59.5t15 -65.5q0 -6 -6.5 -37t-6.5 -38q0 -16 6.5 -90t6.5 -92q0 -44 -33 -44zM220 596 q0 4 -3 4q-23 -7 -39.5 -54t-40.5 -155l-9 -38q15 1 57 10t56 9q-4 74 -21 224zM206 781q-23 -4 -30 -4q-18 3 -18 19q0 22 37 84l45 75q42 68 63 68q24 0 24 -24q0 -43 -73 -157q-12 -20 -48 -61z" />
<glyph unicode="&#xc2;" d="M311 817q0 -7 -6 -15.5t-15 -8.5q-8 0 -41 55.5t-39 74.5q-9 -11 -62 -93q-19 -27 -30 -38q-2 -2 -5 -2q-6 0 -6 11q0 14 44 81q56 84 62 91q6 2 9 2q7 0 10 -1q5 -3 42 -77t37 -80zM309 -2q-20 0 -32 12t-24 214q-40 -5 -149 -23q-4 -1 -16 -73l-15 -90q-10 -39 -41 -39 q-27 0 -27 74q0 141 58 362q87 328 174 328q17 0 31.5 -14.5t16.5 -32.5l26 -292q1 -16 16 -59.5t15 -65.5q0 -6 -6.5 -37t-6.5 -38q0 -16 6.5 -90t6.5 -92q0 -44 -33 -44zM220 596q0 4 -3 4q-23 -7 -39.5 -54t-40.5 -155l-9 -38q15 1 57 10t56 9q-4 74 -21 224z" />
<glyph unicode="&#xc3;" d="M309 -2q-20 0 -32 12t-24 214q-40 -5 -149 -23q-4 -1 -16 -73l-15 -90q-10 -39 -41 -39q-27 0 -27 74q0 141 58 362q87 328 174 328q17 0 31.5 -14.5t16.5 -32.5l26 -292q1 -16 16 -59.5t15 -65.5q0 -6 -6.5 -37t-6.5 -38q0 -16 6.5 -90t6.5 -92q0 -44 -33 -44zM220 596 q0 4 -3 4q-23 -7 -39.5 -54t-40.5 -155l-9 -38q15 1 57 10t56 9q-4 74 -21 224zM369 891q0 -9 -9 -23q-6 -8 -53.5 -42t-58.5 -34q-14 0 -49 43.5t-43 43.5q-7 0 -36 -26.5t-37 -26.5q-7 0 -7 15q0 17 42 54.5t62 37.5q13 0 45.5 -43.5t39.5 -43.5q13 0 52.5 27.5t45.5 28.5 q6 -4 6 -11z" />
<glyph unicode="&#xc4;" d="M147 820q-41 0 -51 34l11 89q8 5 26 19l31 -8q17 -4 27 -26q0 -108 -44 -108zM309 -2q-20 0 -32 12t-24 214q-40 -5 -149 -23q-4 -1 -16 -73l-15 -90q-10 -39 -41 -39q-27 0 -27 74q0 141 58 362q87 328 174 328q17 0 31.5 -14.5t16.5 -32.5l26 -292q1 -16 16 -59.5 t15 -65.5q0 -6 -6.5 -37t-6.5 -38q0 -16 6.5 -90t6.5 -92q0 -44 -33 -44zM220 596q0 4 -3 4q-23 -7 -39.5 -54t-40.5 -155l-9 -38q15 1 57 10t56 9q-4 74 -21 224zM303 820q-41 0 -51 34l11 89q8 5 26 19l31 -8q17 -4 27 -26q0 -108 -44 -108z" />
<glyph unicode="&#xc5;" horiz-adv-x="415" d="M321 853q0 -27 -6 -45q-5 -13 -19 -34q-18 -19 -29 -24q16 -15 18 -34l26 -292q1 -16 16 -59.5t15 -65.5q0 -6 -6.5 -37t-6.5 -38q0 -16 6.5 -90t6.5 -92q0 -44 -33 -44q-20 0 -32 12t-24 214q-40 -5 -149 -23q-4 -1 -16 -73l-15 -90q-10 -39 -41 -39q-27 0 -27 74 q0 141 58 362q68 254 135 311q-34 4 -47 23.5t-13 65.5q0 38 29.5 86.5t71.5 48.5q37 0 59.5 -33.5t22.5 -83.5zM220 596q0 4 -3 4q-23 -7 -39.5 -54t-40.5 -155l-9 -38q15 1 57 10t56 9q-4 74 -21 224zM260 872q0 30 -21 30q-3 0 -6 -5q-37 -31 -37 -63q0 -22 12 -22 q35 0 43.5 8.5t8.5 51.5z" />
<glyph unicode="&#xc6;" horiz-adv-x="692" d="M661 690q-287 -143 -305 -167q-8 -43 -9 -150q173 78 201 78q17 0 17 -26q0 -13 0.5 -30.5t0.5 -22.5q0 -25 -7.5 -33.5t-38.5 -21.5l-176 -78q0 -55 -2 -97q12 -4 39 -4q16 0 85.5 3.5t85.5 3.5q59 0 59 -18q0 -95 -12 -112q-12 -16 -188 -16q-53 0 -85 3q-10 -4 -17 -4 q-20 0 -32 12t-24 214q-40 -5 -149 -23q-4 -1 -16 -73l-15 -90q-10 -39 -41 -39q-27 0 -27 74q0 141 58 362q87 328 174 328q17 0 31.5 -14.5t16.5 -32.5l11 -125q7 27 26 44q14 13 83 48q225 117 246 117q12 0 20 -9.5t8 -20.5q0 -33 -18 -80zM220 596q0 4 -3 4 q-23 -7 -39.5 -54t-40.5 -155l-9 -38q15 1 57 10t56 9q-4 74 -21 224z" />
<glyph unicode="&#xc7;" horiz-adv-x="490" d="M416 191q-11 -69 -77.5 -127t-145.5 -72q-9 -14 -22 -30q54 -14 54 -79q0 -41 -21 -75t-52 -34q-30 0 -52.5 13t-22.5 33q0 37 23 37q9 0 29.5 -12t33.5 -12q25 0 25 26q0 49 -65 49q-17 0 -17 9q0 20 36 73q-65 9 -100.5 85.5t-35.5 196.5q0 136 57 291q74 197 186 197 q44 0 76.5 -57t32.5 -112q0 -62 -12.5 -105t-32.5 -43q-26 0 -33 61l-10 77q-10 49 -42 49q-50 0 -94.5 -117t-44.5 -202q0 -173 99 -173q52 0 99 42q13 12 72 84q19 24 32 24q28 0 28 -55q0 -23 -3 -42z" />
<glyph unicode="&#xc8;" horiz-adv-x="412" d="M385 689q-287 -143 -305 -167q-8 -44 -9 -150q173 78 201 78q17 0 17 -26q0 -13 0.5 -30.5t0.5 -22.5q0 -25 -7.5 -33.5t-38.5 -21.5l-176 -78q0 -55 -2 -97q12 -4 39 -4q15 0 85 3.5t86 3.5q59 0 59 -18q0 -96 -12 -112t-188 -16q-87 0 -121 8q-11 41 -11 105 q0 24 4 212l4 176q2 58 8.5 87.5t26.5 47.5q14 13 83 48q225 117 246 117q12 0 20 -9.5t8 -20.5q0 -33 -18 -80zM119 1006q31 -38 67 -103.5t36 -102.5q0 -24 -23 -24t-57 66l-39 72q-29 53 -31 78q0 17 18 19q2 0 29 -5z" />
<glyph unicode="&#xc9;" horiz-adv-x="415" d="M385 689q-287 -143 -305 -167q-8 -44 -9 -150q173 78 201 78q17 0 17 -26q0 -13 0.5 -30.5t0.5 -22.5q0 -25 -7.5 -33.5t-38.5 -21.5l-176 -78q0 -55 -2 -97q12 -4 39 -4q15 0 85 3.5t86 3.5q59 0 59 -18q0 -96 -12 -112t-188 -16q-87 0 -121 8q-11 41 -11 105 q0 24 4 212l4 176q2 58 8.5 87.5t26.5 47.5q14 13 83 48q225 117 246 117q12 0 20 -9.5t8 -20.5q0 -33 -18 -80zM206 781q-23 -4 -30 -4q-18 3 -18 19q0 22 37 84l45 75q42 68 63 68q24 0 24 -24q0 -43 -73 -157q-12 -20 -48 -61z" />
<glyph unicode="&#xca;" horiz-adv-x="416" d="M385 689q-287 -143 -305 -167q-8 -44 -9 -150q173 78 201 78q17 0 17 -26q0 -13 0.5 -30.5t0.5 -22.5q0 -25 -7.5 -33.5t-38.5 -21.5l-176 -78q0 -55 -2 -97q12 -4 39 -4q15 0 85 3.5t86 3.5q59 0 59 -18q0 -96 -12 -112t-188 -16q-87 0 -121 8q-11 41 -11 105 q0 24 4 212l4 176q2 58 8.5 87.5t26.5 47.5q14 13 83 48q225 117 246 117q12 0 20 -9.5t8 -20.5q0 -33 -18 -80zM311 817q0 -7 -6 -15.5t-15 -8.5q-8 0 -41 55.5t-39 74.5q-9 -11 -62 -93q-19 -27 -30 -38q-2 -2 -5 -2q-6 0 -6 11q0 14 44 81q56 84 62 91q6 2 9 2q7 0 10 -1 q5 -3 42 -77t37 -80z" />
<glyph unicode="&#xcb;" horiz-adv-x="418" d="M385 689q-287 -143 -305 -167q-8 -44 -9 -150q173 78 201 78q17 0 17 -26q0 -13 0.5 -30.5t0.5 -22.5q0 -25 -7.5 -33.5t-38.5 -21.5l-176 -78q0 -55 -2 -97q12 -4 39 -4q15 0 85 3.5t86 3.5q59 0 59 -18q0 -96 -12 -112t-188 -16q-87 0 -121 8q-11 41 -11 105 q0 24 4 212l4 176q2 58 8.5 87.5t26.5 47.5q14 13 83 48q225 117 246 117q12 0 20 -9.5t8 -20.5q0 -33 -18 -80zM147 820q-41 0 -51 34l11 89q8 5 26 19l31 -8q17 -4 27 -26q0 -108 -44 -108zM303 820q-41 0 -51 34l11 89q8 5 26 19l31 -8q17 -4 27 -26q0 -108 -44 -108z " />
<glyph unicode="&#xcc;" horiz-adv-x="241" d="M162 58q0 -26 -16.5 -48.5t-37.5 -22.5q-32 0 -32 48l-3 632q0 26 16 56.5t34 30.5q38 0 41 -43q1 -10 1 -117q0 -50 -1.5 -269t-1.5 -267zM72 1016q31 -38 67 -103.5t36 -102.5q0 -24 -23 -24q-22 0 -57 66l-39 72q-29 53 -31 78q0 17 18 19q2 0 29 -5z" />
<glyph unicode="&#xcd;" horiz-adv-x="256" d="M162 58q0 -26 -16.5 -48.5t-37.5 -22.5q-32 0 -32 48l-3 632q0 26 16 56.5t34 30.5q38 0 41 -43q1 -10 1 -117q0 -50 -1.5 -269t-1.5 -267zM96 786q-23 -4 -30 -4q-18 3 -18 19q0 22 37 84l45 75q42 68 63 68q24 0 24 -24q0 -43 -73 -157q-12 -20 -48 -61z" />
<glyph unicode="&#xce;" horiz-adv-x="297" d="M183 64q0 -26 -16.5 -48.5t-37.5 -22.5q-32 0 -32 48l-3 632q0 26 16 56.5t34 30.5q38 0 41 -43q1 -10 1 -117q0 -50 -1.5 -269t-1.5 -267zM252 822q0 -8 -6 -16t-15 -8q-8 0 -41 55.5t-39 74.5q-9 -11 -62 -93q-19 -27 -30 -38q-2 -2 -5 -2q-6 0 -6 11q0 14 44 81 q56 84 62 91q6 2 9 2q7 0 10 -1q5 -3 42 -77t37 -80z" />
<glyph unicode="&#xcf;" horiz-adv-x="315" d="M197 66q0 -26 -16.5 -48.5t-37.5 -22.5q-32 0 -32 48l-4 632q0 24 17.5 55.5t33.5 31.5q37 0 40 -43q1 -10 1 -117q0 -50 -1 -269t-1 -267zM82 817q-41 0 -51 34l11 89q8 4 26 19l34 -9q16 -7 24 -25q0 -108 -44 -108zM238 816q-41 0 -51 34l11 89q8 5 26 19l34 -9 q16 -7 24 -25q0 -108 -44 -108z" />
<glyph unicode="&#xd0;" horiz-adv-x="512" d="M236 82q-40 -56 -54.5 -69.5t-36.5 -13.5q-67 0 -67 156q0 151 1 226h-22q-21 0 -30 13.5t-9 55.5q0 30 22 30h41q0 12 -0.5 38t-0.5 43q0 68 5.5 87.5t24.5 31.5q39 24 131.5 61t124.5 37q121 0 121 -166q0 -178 -251 -530zM232 381h-87q-5 -147 -5 -213q16 -6 36 -8 q29 27 83 112l78 124q32 51 55 108t23 82q0 18 -16 28.5t-38 10.5q-35 0 -116.5 -31.5t-96.5 -52.5q0 -37 -1 -61q67 -1 84 -7q9 -12 9 -55q0 -34 -8 -37z" />
<glyph unicode="&#xd1;" horiz-adv-x="544" d="M434 14q-23 -16 -58 -16q-23 0 -36 4.5t-33.5 25t-44 68t-55.5 128.5q-10 26 -91 244q0 -14 2.5 -152.5t2.5 -181.5q0 -134 -51 -134q-22 0 -37 17q-7 7 -7 150q0 277 4.5 401t18.5 133q23 15 48 15q46 0 139 -245q95 -257 129 -298q15 108 15 218q0 23 -1.5 61t-4 76.5 t-4.5 73t-3.5 57.5t-1.5 24q0 67 33 67q32 0 49.5 -112t17.5 -322q0 -48 -8 -160q-11 -134 -23 -142zM391 899q0 -9 -9 -23q-6 -8 -53.5 -42t-58.5 -34q-14 0 -49 43.5t-43 43.5q-7 0 -36 -26.5t-37 -26.5q-7 0 -7 15q0 17 42 54.5t62 37.5q13 0 45.5 -43t39.5 -43 q13 0 52 27.5t45 28.5q7 -4 7 -12z" />
<glyph unicode="&#xd2;" horiz-adv-x="487" d="M407 215q-13 -70 -44 -131q-22 -45 -55 -71q-17 -14 -65 -14q-13 0 -45.5 0.5t-56.5 0.5q-52 0 -65 5t-29 30q-9 17 -24 113.5t-15 138.5q0 131 58 289q72 196 176 196q42 0 79.5 -40.5t61.5 -109.5q37 -104 37 -257q0 -85 -13 -150zM232 633q-30 0 -61 -45 q-86 -121 -86 -290q0 -23 11 -107q5 -34 20 -42t51 -8q104 0 140 40.5t36 152.5q0 299 -111 299zM119 1006q31 -38 67 -103.5t36 -102.5q0 -24 -23 -24t-57 66l-39 72q-29 53 -31 78q0 17 18 19q2 0 29 -5z" />
<glyph unicode="&#xd3;" horiz-adv-x="487" d="M407 215q-13 -70 -44 -131q-22 -45 -55 -71q-17 -14 -65 -14q-13 0 -45.5 0.5t-56.5 0.5q-52 0 -65 5t-29 30q-9 17 -24 113.5t-15 138.5q0 131 58 289q72 196 176 196q42 0 79.5 -40.5t61.5 -109.5q37 -104 37 -257q0 -85 -13 -150zM232 633q-30 0 -61 -45 q-86 -121 -86 -290q0 -23 11 -107q5 -34 20 -42t51 -8q104 0 140 40.5t36 152.5q0 299 -111 299zM206 781q-23 -4 -30 -4q-18 3 -18 19q0 22 37 84l45 75q42 68 63 68q24 0 24 -24q0 -43 -73 -157q-12 -20 -48 -61z" />
<glyph unicode="&#xd4;" horiz-adv-x="488" d="M407 215q-13 -70 -44 -131q-22 -45 -55 -71q-17 -14 -65 -14q-13 0 -45.5 0.5t-56.5 0.5q-52 0 -65 5t-29 30q-9 17 -24 113.5t-15 138.5q0 131 58 289q72 196 176 196q42 0 79.5 -40.5t61.5 -109.5q37 -104 37 -257q0 -85 -13 -150zM232 633q-30 0 -61 -45 q-86 -121 -86 -290q0 -23 11 -107q5 -34 20 -42t51 -8q104 0 140 40.5t36 152.5q0 299 -111 299zM311 817q0 -7 -6 -15.5t-15 -8.5q-8 0 -41 55.5t-39 74.5q-9 -11 -62 -93q-19 -27 -30 -38q-2 -2 -5 -2q-6 0 -6 11q0 14 44 81q56 84 62 91q6 2 9 2q7 0 10 -1q5 -3 42 -77 t37 -80z" />
<glyph unicode="&#xd5;" horiz-adv-x="488" d="M407 215q-13 -70 -44 -131q-22 -45 -55 -71q-17 -14 -65 -14q-13 0 -45.5 0.5t-56.5 0.5q-52 0 -65 5t-29 30q-9 17 -24 113.5t-15 138.5q0 131 58 289q72 196 176 196q42 0 79.5 -40.5t61.5 -109.5q37 -104 37 -257q0 -85 -13 -150zM232 633q-30 0 -61 -45 q-86 -121 -86 -290q0 -23 11 -107q5 -34 20 -42t51 -8q104 0 140 40.5t36 152.5q0 299 -111 299zM369 891q0 -8 -9 -23q-6 -11 -53.5 -43.5t-58.5 -32.5q-14 0 -49 43.5t-43 43.5q-7 0 -36 -26.5t-37 -26.5q-7 0 -7 15q0 17 42 54.5t62 37.5q13 0 45.5 -43.5t39.5 -43.5 q13 0 52.5 27.5t45.5 28.5q6 -4 6 -11z" />
<glyph unicode="&#xd6;" horiz-adv-x="490" d="M147 820q-41 0 -51 34l11 89q8 5 26 19l31 -8q17 -4 27 -26q0 -108 -44 -108zM303 820q-41 0 -51 34l11 89q8 5 26 19l31 -8q17 -4 27 -26q0 -108 -44 -108zM407 215q-13 -70 -44 -131q-22 -45 -55 -71q-17 -14 -65 -14q-13 0 -45.5 0.5t-56.5 0.5q-52 0 -65 5t-29 30 q-9 17 -24 113.5t-15 138.5q0 131 58 289q72 196 176 196q42 0 79.5 -40.5t61.5 -109.5q37 -104 37 -257q0 -85 -13 -150zM232 633q-30 0 -61 -45q-86 -121 -86 -290q0 -23 11 -107q5 -34 20 -42t51 -8q104 0 140 40.5t36 152.5q0 299 -111 299z" />
<glyph unicode="&#xd7;" horiz-adv-x="505" d="M414 565l-113 -178l114 -178q0 -113 -31 -116l-22 13q-33 48 -137 187l-84 -101q-69 -82 -77 -82t-29 27q12 52 60 113q79 100 80 103q-97 132 -113 154l-2 17l18 92q16 10 24 10q16 0 26 -16l117 -147l75 103q57 80 80 80t23 -26q-2 0 -9 -55z" />
<glyph unicode="&#xd8;" horiz-adv-x="510" d="M407 215q-13 -70 -44 -131q-22 -45 -55 -71q-16 -13 -60 -13q-14 0 -47 -0.5t-58 -0.5q-35 0 -54 4.5t-25.5 10.5t-16.5 21q-6 10 -13 34q-16 -20 -53 -20q-13 0 -29 2l-8 8v11q0 6 74 101q-10 77 -10 116q0 131 58 289q72 196 176 196q40 0 76 -36.5t57 -97.5 q41 52 77 52q14 0 27 -9l2 -5q-5 -31 -78 -128q17 -85 17 -183q0 -85 -13 -150zM232 633q-30 0 -61 -45q-86 -121 -86 -290q0 -26 1 -38l228 297q-29 76 -82 76zM343 334q0 75 -7 127l-231 -300q11 -20 62 -20q104 0 140 40.5t36 152.5z" />
<glyph unicode="&#xd9;" horiz-adv-x="480" d="M331 44q-35 -44 -81 -44h-156q-42 0 -66.5 92t-24.5 251q0 154 18 267.5t48 113.5q29 0 29 -42q0 -30 -6.5 -166t-6.5 -166q0 -200 48 -200h105q47 0 74 108t27 256q0 18 -2 100t-2 100q0 58 24 58q58 0 58 -226q0 -122 -19 -261q-24 -186 -67 -241zM175 995 q30 -37 55 -87q26 -52 26 -81q0 -20 -24 -20q-22 0 -59 72q-35 73 -42 91q-3 8 -3 14q0 17 20 17q10 -1 27 -6z" />
<glyph unicode="&#xda;" horiz-adv-x="482" d="M331 44q-35 -44 -81 -44h-156q-42 0 -66.5 92t-24.5 251q0 154 18 267.5t48 113.5q29 0 29 -42q0 -30 -6.5 -166t-6.5 -166q0 -200 48 -200h105q47 0 74 108t27 256q0 18 -2 100t-2 100q0 58 24 58q58 0 58 -226q0 -122 -19 -261q-24 -186 -67 -241zM206 781 q-23 -4 -30 -4q-18 3 -18 19q0 22 37 84l45 75q42 68 63 68q24 0 24 -24q0 -43 -73 -157q-12 -20 -48 -61z" />
<glyph unicode="&#xdb;" horiz-adv-x="483" d="M331 44q-35 -44 -81 -44h-156q-42 0 -66.5 92t-24.5 251q0 154 18 267.5t48 113.5q29 0 29 -42q0 -30 -6.5 -166t-6.5 -166q0 -200 48 -200h105q47 0 74 108t27 256q0 18 -2 100t-2 100q0 58 24 58q58 0 58 -226q0 -122 -19 -261q-24 -186 -67 -241zM287 839 q0 -8 -7.5 -22.5t-16.5 -14.5q-3 0 -12.5 13t-22 30t-19.5 24q-33 -52 -53 -52q-8 0 -8 13q0 18 29.5 67.5t42.5 49.5q1 0 8 -7q5 -6 32 -51t27 -50z" />
<glyph unicode="&#xdc;" horiz-adv-x="483" d="M331 44q-35 -44 -81 -44h-156q-42 0 -66.5 92t-24.5 251q0 150 19 265.5t47 115.5q29 0 29 -42q0 -30 -6.5 -166t-6.5 -166q0 -200 48 -200h105q43 0 72 107t29 257q0 18 -2 100t-2 100q0 58 24 58q58 0 58 -226q0 -115 -20 -261q-24 -188 -66 -241zM147 820 q-41 0 -51 34l11 89q8 5 26 19l31 -8q17 -4 27 -26q0 -108 -44 -108zM303 820q-41 0 -51 34l11 89q8 5 26 19l31 -8q17 -4 27 -26q0 -108 -44 -108z" />
<glyph unicode="&#xdd;" horiz-adv-x="469" d="M190 106q-7 -12 -23 -45.5t-30 -50.5t-32 -17q-20 0 -20 28q0 20 54 135.5t59 130.5l-138 173q-56 71 -56 153q0 34 15 68t35 34q7 0 12.5 -4.5t11.5 -15.5t10.5 -21t12 -27.5t12.5 -29.5q20 -44 57 -87q84 -100 91 -108q59 115 110 259l6.5 19.5t13 37t13.5 34.5 q6 13 8.5 18t7 9t11.5 4q23 0 23 -34q0 -70 -110 -328q-72 -169 -154 -335zM234 809q-28 -4 -34 -4q-14 3 -14 15q0 21 27 66l30 59q27 53 54 53q19 0 19 -19q0 -46 -49 -123q-13 -24 -33 -47z" />
<glyph unicode="&#xde;" horiz-adv-x="496" d="M208 212q-1 1 -13.5 -6.5t-33.5 -19t-39 -17.5v-111q0 -26 -16.5 -48.5t-37.5 -22.5q-32 0 -32 48l-3 632q0 26 16 56.5t34 30.5q38 0 41 -43q1 -10 1 -117v-5q15 11 32 19q107 57 189 57q57 0 91 -26t34 -74q0 -101 -62.5 -184.5t-200.5 -168.5zM339 531q-56 0 -134 -38 q-60 -30 -81 -58q0 -22 -0.5 -70t-0.5 -72q40 19 139 92q118 88 118 112q0 34 -41 34z" />
<glyph unicode="&#xdf;" horiz-adv-x="500" d="M129 497q0 -2 0.5 -9.5t0.5 -25v-44.5q0 -15 -0.5 -95.5t-0.5 -136.5q0 -141 2 -197q-29 2 -50 13.5t-21 29.5q0 38 1 214.5t1 215.5q-5 12 -5 28q0 100 100 200q83 81 154 81q85 0 85 -109q0 -74 -81 -177q10 2 12 2q53 0 90 -48q34 -42 34 -121q0 -105 -64.5 -209 t-156.5 -135q-4 -3 -9 -3q-19 0 -19 51q0 25 6.5 45t17.5 21q56 18 105 88.5t49 126.5q0 60 -72 60q-34 0 -71 -12q-17 -9 -28 -9q-34 0 -34 58q0 43 56 110q35 34 62.5 74.5t28.5 61.5q-8 5 -16 5q-37 0 -108 -56q-69 -54 -69 -98z" />
<glyph unicode="&#xe0;" horiz-adv-x="413" d="M119 1006q31 -38 67 -103.5t36 -102.5q0 -24 -23 -24t-57 66l-39 72q-29 53 -31 78q0 17 18 19q2 0 29 -5zM309 -2q-20 0 -32 12t-24 214q-40 -5 -149 -23q-4 -1 -16 -73l-15 -90q-10 -39 -41 -39q-27 0 -27 74q0 141 58 362q87 328 174 328q17 0 31.5 -14.5t16.5 -32.5 l26 -292q1 -16 16 -59.5t15 -65.5q0 -6 -6.5 -37t-6.5 -38q0 -16 6.5 -90t6.5 -92q0 -44 -33 -44zM220 596q0 4 -3 4q-23 -7 -39.5 -54t-40.5 -155l-9 -38q15 1 57 10t56 9q-4 74 -21 224z" />
<glyph unicode="&#xe1;" d="M309 -2q-20 0 -32 12t-24 214q-40 -5 -149 -23q-4 -1 -16 -73l-15 -90q-10 -39 -41 -39q-27 0 -27 74q0 141 58 362q87 328 174 328q17 0 31.5 -14.5t16.5 -32.5l26 -292q1 -16 16 -59.5t15 -65.5q0 -6 -6.5 -37t-6.5 -38q0 -16 6.5 -90t6.5 -92q0 -44 -33 -44zM220 596 q0 4 -3 4q-23 -7 -39.5 -54t-40.5 -155l-9 -38q15 1 57 10t56 9q-4 74 -21 224zM206 781q-23 -4 -30 -4q-18 3 -18 19q0 22 37 84l45 75q42 68 63 68q24 0 24 -24q0 -43 -73 -157q-12 -20 -48 -61z" />
<glyph unicode="&#xe2;" d="M311 817q0 -7 -6 -15.5t-15 -8.5q-8 0 -41 55.5t-39 74.5q-9 -11 -62 -93q-19 -27 -30 -38q-2 -2 -5 -2q-6 0 -6 11q0 14 44 81q56 84 62 91q6 2 9 2q7 0 10 -1q5 -3 42 -77t37 -80zM309 -2q-20 0 -32 12t-24 214q-40 -5 -149 -23q-4 -1 -16 -73l-15 -90q-10 -39 -41 -39 q-27 0 -27 74q0 141 58 362q87 328 174 328q17 0 31.5 -14.5t16.5 -32.5l26 -292q1 -16 16 -59.5t15 -65.5q0 -6 -6.5 -37t-6.5 -38q0 -16 6.5 -90t6.5 -92q0 -44 -33 -44zM220 596q0 4 -3 4q-23 -7 -39.5 -54t-40.5 -155l-9 -38q15 1 57 10t56 9q-4 74 -21 224z" />
<glyph unicode="&#xe3;" d="M309 -2q-20 0 -32 12t-24 214q-40 -5 -149 -23q-4 -1 -16 -73l-15 -90q-10 -39 -41 -39q-27 0 -27 74q0 141 58 362q87 328 174 328q17 0 31.5 -14.5t16.5 -32.5l26 -292q1 -16 16 -59.5t15 -65.5q0 -6 -6.5 -37t-6.5 -38q0 -16 6.5 -90t6.5 -92q0 -44 -33 -44zM220 596 q0 4 -3 4q-23 -7 -39.5 -54t-40.5 -155l-9 -38q15 1 57 10t56 9q-4 74 -21 224zM369 891q0 -9 -9 -23q-6 -8 -53.5 -42t-58.5 -34q-14 0 -49 43.5t-43 43.5q-7 0 -36 -26.5t-37 -26.5q-7 0 -7 15q0 17 42 54.5t62 37.5q13 0 45.5 -43.5t39.5 -43.5q13 0 52.5 27.5t45.5 28.5 q6 -4 6 -11z" />
<glyph unicode="&#xe4;" d="M309 -2q-20 0 -32 12t-24 214q-40 -5 -149 -23q-4 -1 -16 -73l-15 -90q-10 -39 -41 -39q-27 0 -27 74q0 141 58 362q87 328 174 328q17 0 31.5 -14.5t16.5 -32.5l26 -292q1 -16 16 -59.5t15 -65.5q0 -6 -6.5 -37t-6.5 -38q0 -16 6.5 -90t6.5 -92q0 -44 -33 -44zM220 596 q0 4 -3 4q-23 -7 -39.5 -54t-40.5 -155l-9 -38q15 1 57 10t56 9q-4 74 -21 224zM147 820q-41 0 -51 34l11 89q8 5 26 19l31 -8q17 -4 27 -26q0 -108 -44 -108zM303 820q-41 0 -51 34l11 89q8 5 26 19l31 -8q17 -4 27 -26q0 -108 -44 -108z" />
<glyph unicode="&#xe5;" horiz-adv-x="415" d="M301 849q0 -20 -5 -35q-3 -11 -14 -26q-16 -21 -34 -21h-23q-33 0 -45 14.5t-12 53.5q0 28 21.5 65t51.5 37q27 0 43.5 -25.5t16.5 -62.5zM256 839v35q-3 12 -15 12q-31 -28 -31 -51q0 -18 9 -18q37 0 37 22zM309 -2q-20 0 -32 12t-24 214q-40 -5 -149 -23q-4 -1 -16 -73 l-15 -90q-10 -39 -41 -39q-27 0 -27 74q0 141 58 362q87 328 174 328q17 0 31.5 -14.5t16.5 -32.5l26 -292q1 -16 16 -59.5t15 -65.5q0 -6 -6.5 -37t-6.5 -38q0 -16 6.5 -90t6.5 -92q0 -44 -33 -44zM220 596q0 4 -3 4q-23 -7 -39.5 -54t-40.5 -155l-9 -38q15 1 57 10t56 9 q-4 74 -21 224z" />
<glyph unicode="&#xe6;" horiz-adv-x="692" d="M661 690q-287 -143 -305 -167q-8 -43 -9 -150q173 78 201 78q17 0 17 -26q0 -13 0.5 -30.5t0.5 -22.5q0 -25 -7.5 -33.5t-38.5 -21.5l-176 -78q0 -55 -2 -97q12 -4 39 -4q16 0 85.5 3.5t85.5 3.5q59 0 59 -18q0 -95 -12 -112q-12 -16 -188 -16q-53 0 -85 3q-10 -4 -17 -4 q-20 0 -32 12t-24 214q-40 -5 -149 -23q-4 -1 -16 -73l-15 -90q-10 -39 -41 -39q-27 0 -27 74q0 141 58 362q87 328 174 328q17 0 31.5 -14.5t16.5 -32.5l11 -125q7 27 26 44q14 13 83 48q225 117 246 117q12 0 20 -9.5t8 -20.5q0 -33 -18 -80zM220 596q0 4 -3 4 q-23 -7 -39.5 -54t-40.5 -155l-9 -38q15 1 57 10t56 9q-4 74 -21 224z" />
<glyph unicode="&#xe7;" horiz-adv-x="490" d="M416 191q-11 -69 -77.5 -127t-145.5 -72q-9 -14 -22 -30q54 -14 54 -79q0 -41 -21 -75t-52 -34q-30 0 -52.5 13t-22.5 33q0 37 23 37q9 0 29.5 -12t33.5 -12q25 0 25 26q0 49 -65 49q-17 0 -17 9q0 20 36 73q-65 9 -100.5 85.5t-35.5 196.5q0 136 57 291q74 197 186 197 q44 0 76.5 -57t32.5 -112q0 -62 -12.5 -105t-32.5 -43q-26 0 -33 61l-10 77q-10 49 -42 49q-50 0 -94.5 -117t-44.5 -202q0 -173 99 -173q52 0 99 42q13 12 72 84q19 24 32 24q28 0 28 -55q0 -23 -3 -42z" />
<glyph unicode="&#xe8;" horiz-adv-x="429" d="M395 689q-287 -143 -305 -167q-8 -44 -9 -150q173 78 201 78q17 0 17 -26q0 -13 0.5 -30.5t0.5 -22.5q0 -25 -7.5 -33.5t-38.5 -21.5l-176 -78q0 -55 -2 -97q12 -4 39 -4q15 0 85 3.5t86 3.5q59 0 59 -18q0 -96 -12 -112t-188 -16q-87 0 -121 8q-11 41 -11 105 q0 24 4 212l4 176q2 58 8.5 87.5t26.5 47.5q14 13 83 48q225 117 246 117q12 0 20 -9.5t8 -20.5q0 -33 -18 -80zM129 1006q31 -38 67 -103.5t36 -102.5q0 -24 -23 -24t-57 66l-39 72q-29 53 -31 78q0 17 18 19q2 0 29 -5z" />
<glyph unicode="&#xe9;" horiz-adv-x="427" d="M397 689q-287 -143 -305 -167q-8 -44 -9 -150q173 78 201 78q17 0 17 -26q0 -13 0.5 -30.5t0.5 -22.5q0 -25 -7.5 -33.5t-38.5 -21.5l-176 -78q0 -55 -2 -97q12 -4 39 -4q15 0 85 3.5t86 3.5q59 0 59 -18q0 -96 -12 -112t-188 -16q-87 0 -121 8q-11 41 -11 105 q0 24 4 212l4 176q2 58 8.5 87.5t26.5 47.5q14 13 83 48q225 117 246 117q12 0 20 -9.5t8 -20.5q0 -33 -18 -80zM218 781q-23 -4 -30 -4q-18 3 -18 19q0 22 37 84l45 75q42 68 63 68q24 0 24 -24q0 -43 -73 -157q-12 -20 -48 -61z" />
<glyph unicode="&#xea;" horiz-adv-x="429" d="M397 689q-287 -143 -305 -167q-8 -44 -9 -150q173 78 201 78q17 0 17 -26q0 -13 0.5 -30.5t0.5 -22.5q0 -25 -7.5 -33.5t-38.5 -21.5l-176 -78q0 -55 -2 -97q12 -4 39 -4q15 0 85 3.5t86 3.5q59 0 59 -18q0 -96 -12 -112t-188 -16q-87 0 -121 8q-11 41 -11 105 q0 24 4 212l4 176q2 58 8.5 87.5t26.5 47.5q14 13 83 48q225 117 246 117q12 0 20 -9.5t8 -20.5q0 -33 -18 -80zM323 817q0 -7 -6 -15.5t-15 -8.5q-8 0 -41 55.5t-39 74.5q-9 -11 -62 -93q-19 -27 -30 -38q-2 -2 -5 -2q-6 0 -6 11q0 14 44 81q56 84 62 91q6 2 9 2q7 0 10 -1 q5 -3 42 -77t37 -80z" />
<glyph unicode="&#xeb;" horiz-adv-x="435" d="M401 689q-287 -143 -305 -167q-8 -44 -9 -150q173 78 201 78q17 0 17 -26q0 -13 0.5 -30.5t0.5 -22.5q0 -25 -7.5 -33.5t-38.5 -21.5l-176 -78q0 -55 -2 -97q12 -4 39 -4q15 0 85 3.5t86 3.5q59 0 59 -18q0 -96 -12 -112t-188 -16q-87 0 -121 8q-11 41 -11 105 q0 24 4 212l4 176q2 58 8.5 87.5t26.5 47.5q14 13 83 48q225 117 246 117q12 0 20 -9.5t8 -20.5q0 -33 -18 -80zM163 820q-41 0 -51 34l11 89q8 5 26 19l31 -8q17 -4 27 -26q0 -108 -44 -108zM319 820q-41 0 -51 34l11 89q8 5 26 19l31 -8q17 -4 27 -26q0 -108 -44 -108z " />
<glyph unicode="&#xec;" horiz-adv-x="241" d="M162 58q0 -26 -16.5 -48.5t-37.5 -22.5q-32 0 -32 48l-3 632q0 26 16 56.5t34 30.5q38 0 41 -43q1 -10 1 -117q0 -50 -1.5 -269t-1.5 -267zM72 1016q31 -38 67 -103.5t36 -102.5q0 -24 -23 -24q-22 0 -57 66l-39 72q-29 53 -31 78q0 17 18 19q2 0 29 -5z" />
<glyph unicode="&#xed;" horiz-adv-x="241" d="M162 58q0 -26 -16.5 -48.5t-37.5 -22.5q-32 0 -32 48l-3 632q0 26 16 56.5t34 30.5q38 0 41 -43q1 -10 1 -117q0 -50 -1.5 -269t-1.5 -267zM88 781q-23 -4 -30 -4q-18 3 -18 19q0 22 37 84l45 75q42 68 63 68q24 0 24 -24q0 -43 -73 -157q-12 -20 -48 -61z" />
<glyph unicode="&#xee;" horiz-adv-x="297" d="M183 64q0 -26 -16.5 -48.5t-37.5 -22.5q-32 0 -32 48l-3 632q0 26 16 56.5t34 30.5q38 0 41 -43q1 -10 1 -117q0 -50 -1.5 -269t-1.5 -267zM252 822q0 -8 -6 -16t-15 -8q-8 0 -41 55.5t-39 74.5q-9 -11 -62 -93q-19 -27 -30 -38q-2 -2 -5 -2q-6 0 -6 11q0 14 44 81 q56 84 62 91q6 2 9 2q7 0 10 -1q5 -3 42 -77t37 -80z" />
<glyph unicode="&#xef;" horiz-adv-x="315" d="M197 65q0 -26 -16.5 -48.5t-37.5 -22.5q-32 0 -32 48l-3 632q0 26 16 56.5t34 30.5q38 0 41 -43q1 -10 1 -117q0 -50 -1.5 -269t-1.5 -267zM82 817q-41 0 -51 34l11 89q8 4 26 19l31 -8q17 -4 27 -26q0 -108 -44 -108zM238 817q-41 0 -51 34l11 89q8 4 26 19l31 -8 q17 -4 27 -26q0 -108 -44 -108z" />
<glyph unicode="&#xf0;" horiz-adv-x="543" d="M513 639l-97 -36q38 -105 38 -197q0 -74 -9 -139q-6 -42 -20.5 -90.5t-37.5 -97t-58 -80t-73 -31.5q-63 0 -110.5 30t-73.5 80.5t-38.5 108t-12.5 121.5q0 71 41 135.5t93 64.5q55 0 109.5 -70t96.5 -181q1 6 5.5 21.5t6 28t1.5 34.5q0 121 -62 224l-86 -31 q-12 -4 -17 -4q-23 0 -43 55q-4 14 -4 17q0 13 14 19l75 28l-17 23q-8 13 -8 41q0 45 13.5 69t31.5 24q20 0 48.5 -31t56.5 -82q93 32 104 32q12 -8 23.5 -38t11.5 -41q0 -5 -2 -7zM266 135q-15 75 -59.5 158.5t-73.5 83.5q-7 0 -16 -19.5t-9 -34.5q0 -34 12.5 -81.5 t39.5 -88.5t60 -41q23 0 46 23z" />
<glyph unicode="&#xf1;" horiz-adv-x="544" d="M434 14q-23 -16 -58 -16q-40 0 -67 27q-39 39 -102 199q-10 26 -91 244q0 -14 2.5 -152.5t2.5 -181.5q0 -134 -51 -134q-22 0 -37 17q-7 7 -7 150q0 277 4.5 401t18.5 133q23 15 48 15q46 0 145 -262q91 -246 123 -281q15 108 15 218q0 23 -1.5 61t-4 76.5t-4.5 73 t-3.5 57.5t-1.5 24q0 67 33 67q32 0 49.5 -112t17.5 -322q0 -48 -8 -160q-11 -134 -23 -142zM369 891q0 -10 -10 -25q-6 -8 -52.5 -41t-57.5 -33q-14 0 -50 43.5t-42 43.5q-9 0 -37.5 -26.5t-35.5 -26.5q-8 0 -8 15q0 17 42.5 54.5t62.5 37.5q13 0 45 -43.5t39 -43.5 q13 0 52.5 27.5t45.5 28.5q6 -4 6 -11z" />
<glyph unicode="&#xf2;" horiz-adv-x="485" d="M407 215q-13 -70 -44 -131q-22 -45 -55 -71q-17 -14 -65 -14q-13 0 -45.5 0.5t-56.5 0.5q-52 0 -65 5t-29 30q-9 17 -24 113.5t-15 138.5q0 131 58 289q72 196 176 196q42 0 79.5 -40.5t61.5 -109.5q37 -104 37 -257q0 -85 -13 -150zM232 633q-30 0 -61 -45 q-86 -121 -86 -290q0 -23 11 -107q5 -34 20 -42t51 -8q104 0 140 40.5t36 152.5q0 299 -111 299zM119 1006q31 -38 67 -103.5t36 -102.5q0 -24 -23 -24t-57 66l-39 72q-29 53 -31 78q0 17 18 19q2 0 29 -5z" />
<glyph unicode="&#xf3;" horiz-adv-x="487" d="M407 215q-13 -70 -44 -131q-22 -45 -55 -71q-17 -14 -65 -14q-13 0 -45.5 0.5t-56.5 0.5q-52 0 -65 5t-29 30q-9 17 -24 113.5t-15 138.5q0 131 58 289q72 196 176 196q42 0 79.5 -40.5t61.5 -109.5q37 -104 37 -257q0 -85 -13 -150zM232 633q-30 0 -61 -45 q-86 -121 -86 -290q0 -23 11 -107q5 -34 20 -42t51 -8q104 0 140 40.5t36 152.5q0 299 -111 299zM206 781q-23 -4 -30 -4q-18 3 -18 19q0 22 37 84l45 75q42 68 63 68q24 0 24 -24q0 -43 -73 -157q-12 -20 -48 -61z" />
<glyph unicode="&#xf4;" horiz-adv-x="488" d="M407 215q-13 -70 -44 -131q-22 -45 -55 -71q-17 -14 -65 -14q-13 0 -45.5 0.5t-56.5 0.5q-52 0 -65 5t-29 30q-9 17 -24 113.5t-15 138.5q0 131 58 289q72 196 176 196q42 0 79.5 -40.5t61.5 -109.5q37 -104 37 -257q0 -85 -13 -150zM232 633q-30 0 -61 -45 q-86 -121 -86 -290q0 -23 11 -107q5 -34 20 -42t51 -8q104 0 140 40.5t36 152.5q0 299 -111 299zM311 817q0 -7 -6 -15.5t-15 -8.5q-8 0 -41 55.5t-39 74.5q-9 -11 -62 -93q-19 -27 -30 -38q-2 -2 -5 -2q-6 0 -6 11q0 14 44 81q56 84 62 91q6 2 9 2q7 0 10 -1q5 -3 42 -77 t37 -80z" />
<glyph unicode="&#xf5;" horiz-adv-x="488" d="M407 215q-13 -70 -44 -131q-22 -45 -55 -71q-17 -14 -65 -14q-13 0 -45.5 0.5t-56.5 0.5q-52 0 -65 5t-29 30q-9 17 -24 113.5t-15 138.5q0 131 58 289q72 196 176 196q42 0 79.5 -40.5t61.5 -109.5q37 -104 37 -257q0 -85 -13 -150zM232 633q-30 0 -61 -45 q-86 -121 -86 -290q0 -23 11 -107q5 -34 20 -42t51 -8q104 0 140 40.5t36 152.5q0 299 -111 299zM369 891q0 -8 -9 -23q-6 -11 -53.5 -43.5t-58.5 -32.5q-14 0 -49 43.5t-43 43.5q-7 0 -36 -26.5t-37 -26.5q-7 0 -7 15q0 17 42 54.5t62 37.5q13 0 45.5 -43.5t39.5 -43.5 q13 0 52.5 27.5t45.5 28.5q6 -4 6 -11z" />
<glyph unicode="&#xf6;" horiz-adv-x="490" d="M407 215q-13 -70 -44 -131q-22 -45 -55 -71q-17 -14 -65 -14q-13 0 -45.5 0.5t-56.5 0.5q-52 0 -65 5t-29 30q-9 17 -24 113.5t-15 138.5q0 131 58 289q72 196 176 196q42 0 79.5 -40.5t61.5 -109.5q37 -104 37 -257q0 -85 -13 -150zM232 633q-30 0 -61 -45 q-86 -121 -86 -290q0 -23 11 -107q5 -34 20 -42t51 -8q104 0 140 40.5t36 152.5q0 299 -111 299zM147 820q-41 0 -51 34l11 89q8 5 26 19l31 -8q17 -4 27 -26q0 -108 -44 -108zM303 820q-41 0 -51 34l11 89q8 5 26 19l31 -8q17 -4 27 -26q0 -108 -44 -108z" />
<glyph unicode="&#xf7;" horiz-adv-x="465" d="M426 241h-355q-21 0 -30 13.5t-9 55.5q0 30 22 30q351 0 371 -7q9 -12 9 -55q0 -34 -8 -37zM233 69q-41 0 -51 34l11 89q8 4 26 19l34 -9q16 -7 24 -25q0 -108 -44 -108zM250 374q-41 0 -51 34l11 89q8 5 26 19l34 -9q16 -7 24 -25q0 -108 -44 -108z" />
<glyph unicode="&#xf8;" horiz-adv-x="510" d="M407 215q-13 -70 -44 -131q-22 -45 -55 -71q-16 -13 -60 -13q-14 0 -47 -0.5t-58 -0.5q-35 0 -54 4.5t-25.5 10.5t-16.5 21q-7 11 -12 36l-1 -2q-16 -20 -53 -20q-13 0 -29 2l-8 8v11q0 6 74 101q-10 77 -10 116q0 131 58 289q72 196 176 196q40 0 76 -36.5t57 -97.5 q41 52 77 52q14 0 27 -9l2 -5q-5 -31 -78 -128q17 -85 17 -183q0 -85 -13 -150zM232 633q-30 0 -61 -45q-86 -121 -86 -290q0 -26 1 -38l228 297q-29 76 -82 76zM343 334q0 75 -7 127l-231 -300q11 -20 62 -20q104 0 140 40.5t36 152.5z" />
<glyph unicode="&#xf9;" horiz-adv-x="479" d="M331 44q-35 -44 -81 -44h-156q-42 0 -66.5 92t-24.5 251q0 154 18 267.5t48 113.5q29 0 29 -42q0 -30 -6.5 -166t-6.5 -166q0 -200 48 -200h105q47 0 74 108t27 256q0 18 -2 100t-2 100q0 58 24 58q58 0 58 -226q0 -122 -19 -261q-24 -186 -67 -241zM145 1028 q31 -38 67 -103.5t36 -102.5q0 -24 -23 -24t-57 66l-39 72q-29 53 -31 78q0 17 18 19q2 0 29 -5z" />
<glyph unicode="&#xfa;" horiz-adv-x="482" d="M331 44q-35 -44 -81 -44h-156q-42 0 -66.5 92t-24.5 251q0 154 18 267.5t48 113.5q29 0 29 -42q0 -30 -6.5 -166t-6.5 -166q0 -200 48 -200h105q47 0 74 108t27 256q0 18 -2 100t-2 100q0 58 24 58q58 0 58 -226q0 -122 -19 -261q-24 -186 -67 -241zM206 781 q-23 -4 -30 -4q-18 3 -18 19q0 22 37 84l45 75q42 68 63 68q24 0 24 -24q0 -43 -73 -157q-12 -20 -48 -61z" />
<glyph unicode="&#xfb;" horiz-adv-x="484" d="M331 44q-35 -44 -81 -44h-156q-42 0 -66.5 92t-24.5 251q0 154 18 267.5t48 113.5q29 0 29 -42q0 -30 -6.5 -166t-6.5 -166q0 -200 48 -200h105q47 0 74 108t27 256q0 18 -2 100t-2 100q0 58 24 58q58 0 58 -226q0 -122 -19 -261q-24 -186 -67 -241zM311 817 q0 -7 -6 -15.5t-15 -8.5q-8 0 -41 55.5t-39 74.5q-9 -11 -62 -93q-19 -27 -30 -38q-2 -2 -5 -2q-6 0 -6 11q0 14 44 81q56 84 62 91q6 2 9 2q7 0 10 -1q5 -3 42 -77t37 -80z" />
<glyph unicode="&#xfc;" horiz-adv-x="483" d="M331 44q-35 -44 -81 -44h-156q-42 0 -66.5 92t-24.5 251q0 154 18 267.5t48 113.5q29 0 29 -42q0 -30 -6.5 -166t-6.5 -166q0 -200 48 -200h105q47 0 74 108t27 256q0 18 -2 100t-2 100q0 58 24 58q58 0 58 -226q0 -122 -19 -261q-24 -186 -67 -241zM147 820 q-41 0 -51 34l11 89q8 5 26 19l31 -8q17 -4 27 -26q0 -108 -44 -108zM303 820q-41 0 -51 34l11 89q8 5 26 19l31 -8q17 -4 27 -26q0 -108 -44 -108z" />
<glyph unicode="&#xfd;" horiz-adv-x="469" d="M190 106q-7 -12 -23 -45.5t-30 -50.5t-32 -17q-20 0 -20 28q0 20 54 135.5t59 130.5l-138 173q-56 71 -56 153q0 34 15 68t35 34q7 0 12.5 -4.5t11.5 -15.5t10.5 -21t12 -27.5t12.5 -29.5q20 -44 57 -87q84 -100 91 -108q59 115 110 259l6.5 19.5t13 37t13.5 34.5 q6 13 8.5 18t7 9t11.5 4q23 0 23 -34q0 -70 -110 -328q-72 -169 -154 -335zM234 809q-28 -4 -34 -4q-14 3 -14 15q0 21 27 66l30 59q27 53 54 53q19 0 19 -19q0 -46 -49 -123q-13 -24 -33 -47z" />
<glyph unicode="&#xfe;" horiz-adv-x="502" d="M208 212q-1 1 -13.5 -6.5t-33.5 -19t-39 -17.5v-42.5v-41.5v-27q0 -26 -16.5 -48.5t-37.5 -22.5q-32 0 -32 48l-3 632q0 26 16 56.5t34 30.5q38 0 41 -43q1 -10 1 -117v-5q15 11 32 19q107 57 189 57q57 0 91 -26t34 -74q0 -101 -62.5 -184.5t-200.5 -168.5zM339 531 q-56 0 -134 -38q-60 -30 -81 -58q0 -22 -0.5 -70t-0.5 -72q40 19 139 92q118 88 118 112q0 34 -41 34z" />
<glyph unicode="&#xff;" horiz-adv-x="471" d="M190 106q-7 -12 -23 -45.5t-30 -50.5t-32 -17q-20 0 -20 28q0 20 54 135.5t59 130.5l-138 173q-56 71 -56 153q0 34 15 68t35 34q7 0 12.5 -4.5t11.5 -15.5t10.5 -21t12 -27.5t12.5 -29.5q20 -44 57 -87q84 -100 91 -108q59 115 110 259l6.5 19.5t13 37t13.5 34.5 q6 13 8.5 18t7 9t11.5 4q23 0 23 -34q0 -70 -110 -328q-72 -169 -154 -335zM147 820q-41 0 -51 34l11 89q8 5 26 19l31 -8q17 -4 27 -26q0 -108 -44 -108zM303 820q-41 0 -51 34l11 89q8 5 26 19l31 -8q17 -4 27 -26q0 -108 -44 -108z" />
<glyph unicode="&#x104;" horiz-adv-x="409" d="M342 42q0 -31 -8 -47q-3 -6 -22 -23.5t-19 -44.5q0 -31 23 -31q13 0 29.5 3t25.5 3q23 0 23 -37q0 -39 -17 -52.5t-58 -13.5q-32 0 -59 36.5t-27 76.5q0 27 5.5 45t18.5 39t15 26q-10 38 -19 202q-40 -5 -149 -23q-4 -1 -16 -73l-15 -90q-10 -39 -41 -39q-27 0 -27 74 q0 141 58 362q87 328 174 328q17 0 31.5 -14.5t16.5 -32.5l26 -292q1 -16 16 -59.5t15 -65.5q0 -6 -6.5 -37t-6.5 -38q0 -16 6.5 -90t6.5 -92zM220 596q0 4 -3 4q-23 -7 -39.5 -54t-40.5 -155l-9 -38q15 1 57 10t56 9q-4 74 -21 224z" />
<glyph unicode="&#x105;" horiz-adv-x="392" d="M342 42q0 -31 -8 -47q-3 -6 -22 -23.5t-19 -44.5q0 -31 23 -31q13 0 29.5 3t25.5 3q23 0 23 -37q0 -39 -17 -52.5t-58 -13.5q-32 0 -59 36.5t-27 76.5q0 27 5.5 45t18.5 39t15 26q-10 38 -19 202q-40 -5 -149 -23q-4 -1 -16 -73l-15 -90q-10 -39 -41 -39q-27 0 -27 74 q0 141 58 362q87 328 174 328q17 0 31.5 -14.5t16.5 -32.5l26 -292q1 -16 16 -59.5t15 -65.5q0 -6 -6.5 -37t-6.5 -38q0 -16 6.5 -90t6.5 -92zM220 596q0 4 -3 4q-23 -7 -39.5 -54t-40.5 -155l-9 -38q15 1 57 10t56 9q-4 74 -21 224z" />
<glyph unicode="&#x106;" horiz-adv-x="462" d="M416 191q-12 -74 -94.5 -138t-160.5 -64q-72 0 -113.5 78.5t-41.5 204.5q0 136 57 291q74 197 186 197q44 0 76.5 -57t32.5 -112q0 -62 -12.5 -105t-32.5 -43q-26 0 -33 61l-10 77q-10 49 -42 49q-50 0 -94.5 -117t-44.5 -202q0 -173 99 -173q52 0 99 42q13 12 72 84 q19 24 32 24q28 0 28 -55q0 -23 -3 -42zM189 773q-23 -4 -30 -4q-18 3 -18 19q0 22 37 84l45 75q42 68 63 68q24 0 24 -24q0 -43 -73 -157q-12 -20 -48 -61z" />
<glyph unicode="&#x107;" horiz-adv-x="462" d="M416 191q-12 -74 -94.5 -138t-160.5 -64q-72 0 -113.5 78.5t-41.5 204.5q0 136 57 291q74 197 186 197q44 0 76.5 -57t32.5 -112q0 -62 -12.5 -105t-32.5 -43q-26 0 -33 61l-10 77q-10 49 -42 49q-50 0 -94.5 -117t-44.5 -202q0 -173 99 -173q52 0 99 42q13 12 72 84 q19 24 32 24q28 0 28 -55q0 -23 -3 -42zM189 773q-23 -4 -30 -4q-18 3 -18 19q0 22 37 84l45 75q42 68 63 68q24 0 24 -24q0 -43 -73 -157q-12 -20 -48 -61z" />
<glyph unicode="&#x118;" horiz-adv-x="429" d="M399 689q-287 -143 -305 -167q-8 -44 -9 -150q173 78 201 78q17 0 17 -26q0 -13 0.5 -30.5t0.5 -22.5q0 -25 -7.5 -33.5t-38.5 -21.5l-176 -78q0 -55 -2 -97q12 -4 39 -4q16 0 85.5 3.5t85.5 3.5q59 0 59 -18q0 -77 -7 -101q-4 -26 -6 -29q-3 -6 -22 -23.5t-19 -44.5 q0 -31 23 -31q13 0 29.5 3t25.5 3q23 0 23 -37q0 -39 -17 -52.5t-58 -13.5q-32 0 -59 36.5t-27 76.5q0 47 26 87q-58 -2 -112 -2q-87 0 -121 8q-11 41 -11 105q0 24 4 212l4 176q2 58 8.5 87.5t26.5 47.5q14 13 83 48q225 117 246 117q12 0 20 -9.5t8 -20.5q0 -33 -18 -80z " />
<glyph unicode="&#x119;" horiz-adv-x="433" d="M399 689q-287 -143 -305 -167q-8 -44 -9 -150q173 78 201 78q17 0 17 -26q0 -13 0.5 -30.5t0.5 -22.5q0 -25 -7.5 -33.5t-38.5 -21.5l-176 -78q0 -55 -2 -97q12 -4 39 -4q16 0 85.5 3.5t85.5 3.5q59 0 59 -18q0 -77 -7 -101q-4 -26 -6 -29q-3 -6 -22 -23.5t-19 -44.5 q0 -31 23 -31q13 0 29.5 3t25.5 3q23 0 23 -37q0 -39 -17 -52.5t-58 -13.5q-32 0 -59 36.5t-27 76.5q0 47 26 87q-58 -2 -112 -2q-87 0 -121 8q-11 41 -11 105q0 24 4 212l4 176q2 58 8.5 87.5t26.5 47.5q14 13 83 48q225 117 246 117q12 0 20 -9.5t8 -20.5q0 -33 -18 -80z " />
<glyph unicode="&#x131;" horiz-adv-x="238" d="M162 58q0 -26 -16.5 -48.5t-37.5 -22.5q-32 0 -32 48l-3 592q0 26 16 56.5t34 30.5q38 0 41 -43q1 -10 1 -117q0 -50 -1.5 -249t-1.5 -247z" />
<glyph unicode="&#x132;" horiz-adv-x="553" d="M162 58q0 -26 -16.5 -48.5t-37.5 -22.5q-30 0 -35 48v589q0 26 16 56.5t34 30.5q38 0 41 -43q1 -10 1 -117q0 -50 -1.5 -247.5t-1.5 -245.5zM486 619q-14 -10 -30 -18t-22 -12v-381q-2 -26 -2.5 -65.5t-1.5 -59.5t-4.5 -42.5t-12.5 -31.5t-23 -9h-137q-38 0 -38 36 q0 121 30 121q6 0 23 -8t21 -8h61q15 0 15 33v384l-30 -16q-73 -42 -98 -47q-23 8 -23 28q0 82 23 113q27 17 276 133l20 9q8 0 14 -13t6 -26q0 -72 -67 -120z" />
<glyph unicode="&#x133;" horiz-adv-x="554" d="M162 58q0 -26 -16.5 -48.5t-37.5 -22.5q-30 0 -35 48v589q0 26 16 56.5t34 30.5q38 0 41 -43q1 -10 1 -117q0 -50 -1.5 -247.5t-1.5 -245.5zM486 619q-14 -10 -30 -18t-22 -12v-381q-2 -26 -2.5 -65.5t-1.5 -59.5t-4.5 -42.5t-12.5 -31.5t-23 -9h-137q-38 0 -38 36 q0 121 30 121q6 0 23 -8t21 -8h61q15 0 15 33v384l-30 -16q-73 -42 -98 -47q-23 8 -23 28q0 82 23 113q27 17 276 133l20 9q8 0 14 -13t6 -26q0 -72 -67 -120z" />
<glyph unicode="&#x141;" horiz-adv-x="478" d="M284 409l-153 -57v-183q13 0 73.5 -3t74.5 -3q41 0 83.5 20.5t49.5 20.5q24 0 24 -44q0 -93 -29 -125q-35 -38 -137 -38q-145 0 -207 8q-15 27 -15 116q0 10 1 32.5t1 36.5v132l-21 -8q-9 -4 -18 -4q-18 0 -18 54q0 10 1 17q3 28 28 37l28 10v249q0 28 17.5 56t45.5 28 q22 0 22 -39q0 -25 -2 -125t-2 -141q34 12 62.5 22.5t43 16t25 9.5t15.5 5.5t8 2.5q11 -11 11 -47q0 -49 -12 -56z" />
<glyph unicode="&#x142;" horiz-adv-x="459" d="M284 409l-153 -57v-183q13 0 73.5 -3t74.5 -3q41 0 83.5 20.5t49.5 20.5q24 0 24 -44q0 -93 -29 -125q-35 -38 -137 -38q-145 0 -207 8q-15 27 -15 116q0 10 1 32.5t1 36.5v132l-21 -8q-9 -4 -18 -4q-18 0 -18 54q0 10 1 17q3 28 28 37l28 10v249q0 28 17.5 56t45.5 28 q22 0 22 -39q0 -25 -2 -125t-2 -141q34 12 62.5 22.5t43 16t25 9.5t15.5 5.5t8 2.5q11 -11 11 -47q0 -49 -12 -56z" />
<glyph unicode="&#x143;" horiz-adv-x="537" d="M434 14q-23 -16 -58 -16q-40 0 -67 27q-39 39 -102 199q-10 26 -91 244q0 -14 2.5 -152.5t2.5 -181.5q0 -134 -51 -134q-22 0 -37 17q-7 7 -7 150q0 277 4.5 401t18.5 133q23 15 48 15q46 0 145 -262q91 -246 123 -281q15 108 15 218q0 23 -1.5 61t-4 76.5t-4.5 73 t-3.5 57.5t-1.5 24q0 67 33 67q32 0 49.5 -112t17.5 -322q0 -48 -8 -160q-11 -134 -23 -142zM230 696q-23 -4 -30 -4q-18 3 -18 19q0 22 37 84l45 75q42 68 63 68q24 0 24 -24q0 -43 -73 -157q-12 -20 -48 -61z" />
<glyph unicode="&#x144;" horiz-adv-x="537" d="M434 14q-23 -16 -58 -16q-40 0 -67 27q-39 39 -102 199q-10 26 -91 244q0 -14 2.5 -152.5t2.5 -181.5q0 -134 -51 -134q-22 0 -37 17q-7 7 -7 150q0 277 4.5 401t18.5 133q23 15 48 15q46 0 145 -262q91 -246 123 -281q15 108 15 218q0 23 -1.5 61t-4 76.5t-4.5 73 t-3.5 57.5t-1.5 24q0 67 33 67q32 0 49.5 -112t17.5 -322q0 -48 -8 -160q-11 -134 -23 -142zM230 696q-23 -4 -30 -4q-18 3 -18 19q0 22 37 84l45 75q42 68 63 68q24 0 24 -24q0 -43 -73 -157q-12 -20 -48 -61z" />
<glyph unicode="&#x152;" horiz-adv-x="746" d="M731 699q-29 -15 -79.5 -42t-82 -43.5t-66.5 -35.5t-54 -30t-23 -16q-7 -40 -7 -110q0 -27 1 -39q171 77 198 77q17 0 17 -26q0 -13 0.5 -30.5t0.5 -22.5q0 -25 -7.5 -33.5t-38.5 -21.5l-176 -78q0 -55 -2 -97q12 -4 39 -4q16 0 85.5 3.5t85.5 3.5q59 0 59 -18 q0 -96 -12 -112q-14 -18 -199 -18q-60 0 -110 10q-6 19 -9 47q-19 -32 -43 -50q-17 -14 -65 -14q-13 0 -45.5 0.5t-56.5 0.5q-52 0 -65 5t-29 30q-9 17 -24 113.5t-15 138.5q0 131 58 289q72 196 176 196q40 0 76.5 -38t61.5 -104q5 8 12 14q14 13 83 48q225 117 246 117 q12 0 20 -9.5t8 -20.5q0 -33 -18 -80zM232 633q-30 0 -61 -45q-86 -121 -86 -290q0 -23 11 -107q5 -34 20 -42t51 -8q104 0 140 40.5t36 152.5q0 299 -111 299z" />
<glyph unicode="&#x153;" horiz-adv-x="746" d="M731 699q-29 -15 -79.5 -42t-82 -43.5t-66.5 -35.5t-54 -30t-23 -16q-7 -40 -7 -110q0 -27 1 -39q171 77 198 77q17 0 17 -26q0 -13 0.5 -30.5t0.5 -22.5q0 -25 -7.5 -33.5t-38.5 -21.5l-176 -78q0 -55 -2 -97q12 -4 39 -4q16 0 85.5 3.5t85.5 3.5q59 0 59 -18 q0 -96 -12 -112q-14 -18 -199 -18q-60 0 -110 10q-6 19 -9 47q-19 -32 -43 -50q-17 -14 -65 -14q-13 0 -45.5 0.5t-56.5 0.5q-52 0 -65 5t-29 30q-9 17 -24 113.5t-15 138.5q0 131 58 289q72 196 176 196q40 0 76.5 -38t61.5 -104q5 8 12 14q14 13 83 48q225 117 246 117 q12 0 20 -9.5t8 -20.5q0 -33 -18 -80zM232 633q-30 0 -61 -45q-86 -121 -86 -290q0 -23 11 -107q5 -34 20 -42t51 -8q104 0 140 40.5t36 152.5q0 299 -111 299z" />
<glyph unicode="&#x15a;" horiz-adv-x="463" d="M202 796q-23 -4 -30 -4q-18 3 -18 19q0 22 37 84l45 75q42 68 63 68q24 0 24 -24q0 -43 -73 -157q-12 -20 -48 -61zM343 374q-26 0 -26 40q0 8 4.5 36t4.5 36q0 43 -40 89.5t-81 46.5q-65 0 -65 -58t49 -162q8 -17 25.5 -52t28.5 -58.5t23.5 -51.5t19 -48.5t6.5 -33.5 q0 -135 -15 -147q-13 -10 -34 -12h-213q-40 0 -40 74q0 34 10.5 60.5t35.5 26.5q17 0 21 -19q19 -11 95 -11q38 0 54 4q0 9 -21 54l-95 202q-40 84 -40 151q0 102 45 160.5t127 58.5q78 0 132.5 -82t54.5 -179q0 -50 -18.5 -87.5t-47.5 -37.5z" />
<glyph unicode="&#x15b;" horiz-adv-x="463" d="M202 796q-23 -4 -30 -4q-18 3 -18 19q0 22 37 84l45 75q42 68 63 68q24 0 24 -24q0 -43 -73 -157q-12 -20 -48 -61zM343 374q-26 0 -26 40q0 8 4.5 36t4.5 36q0 43 -40 89.5t-81 46.5q-65 0 -65 -58t49 -162q8 -17 25.5 -52t28.5 -58.5t23.5 -51.5t19 -48.5t6.5 -33.5 q0 -135 -15 -147q-13 -10 -34 -12h-213q-40 0 -40 74q0 34 10.5 60.5t35.5 26.5q17 0 21 -19q19 -11 95 -11q38 0 54 4q0 9 -21 54l-95 202q-40 84 -40 151q0 102 45 160.5t127 58.5q78 0 132.5 -82t54.5 -179q0 -50 -18.5 -87.5t-47.5 -37.5z" />
<glyph unicode="&#x178;" horiz-adv-x="471" d="M190 106q-7 -12 -23 -45.5t-30 -50.5t-32 -17q-20 0 -20 28q0 20 54 135.5t59 130.5l-138 173q-56 71 -56 153q0 34 15 68t35 34q7 0 12.5 -4.5t11.5 -15.5t10.5 -21t12 -27.5t12.5 -29.5q20 -44 57 -87q84 -100 91 -108q59 115 110 259l6.5 19.5t13 37t13.5 34.5 q6 13 8.5 18t7 9t11.5 4q23 0 23 -34q0 -70 -110 -328q-72 -169 -154 -335zM147 820q-41 0 -51 34l11 89q8 5 26 19l31 -8q17 -4 27 -26q0 -108 -44 -108zM303 820q-41 0 -51 34l11 89q8 5 26 19l31 -8q17 -4 27 -26q0 -108 -44 -108z" />
<glyph unicode="&#x179;" horiz-adv-x="466" d="M202 796q-23 -4 -30 -4q-18 3 -18 19q0 22 37 84l45 75q42 68 63 68q24 0 24 -24q0 -43 -73 -157q-12 -20 -48 -61zM391 7q-10 -5 -25 -5h-358q-12 0 -12 15q0 81 27 138q12 24 113 204.5t127 239.5q-36 -1 -87 -17l-34.5 -11.5t-36.5 -12t-31 -8.5t-29 -4 q-23 0 -30.5 9.5t-7.5 43.5q0 49 18.5 73t70.5 41q145 47 247 47q20 0 25.5 -7t5.5 -28q0 -98 -61 -224q-7 -14 -52.5 -94t-86 -156t-46.5 -100q9 0 79 3t91 3q102 0 114 -19v-13q0 -34 -21 -118z" />
<glyph unicode="&#x17a;" horiz-adv-x="466" d="M202 796q-23 -4 -30 -4q-18 3 -18 19q0 22 37 84l45 75q42 68 63 68q24 0 24 -24q0 -43 -73 -157q-12 -20 -48 -61zM391 7q-10 -5 -25 -5h-358q-12 0 -12 15q0 81 27 138q12 24 113 204.5t127 239.5q-36 -1 -87 -17l-34.5 -11.5t-36.5 -12t-31 -8.5t-29 -4 q-23 0 -30.5 9.5t-7.5 43.5q0 49 18.5 73t70.5 41q145 47 247 47q20 0 25.5 -7t5.5 -28q0 -98 -61 -224q-7 -14 -52.5 -94t-86 -156t-46.5 -100q9 0 79 3t91 3q102 0 114 -19v-13q0 -34 -21 -118z" />
<glyph unicode="&#x17b;" horiz-adv-x="466" d="M391 7q-10 -5 -25 -5h-358q-12 0 -12 15q0 81 27 138q12 24 113 204.5t127 239.5q-36 -1 -87 -17l-34.5 -11.5t-36.5 -12t-31 -8.5t-29 -4q-23 0 -30.5 9.5t-7.5 43.5q0 49 18.5 73t70.5 41q145 47 247 47q20 0 25.5 -7t5.5 -28q0 -98 -61 -224q-7 -14 -52.5 -94 t-86 -156t-46.5 -100q9 0 79 3t91 3q102 0 114 -19v-13q0 -34 -21 -118zM211 803q-41 0 -51 34l11 89q8 4 26 19l31 -8q17 -4 27 -26q0 -108 -44 -108z" />
<glyph unicode="&#x17c;" horiz-adv-x="466" d="M391 7q-10 -5 -25 -5h-358q-12 0 -12 15q0 81 27 138q12 24 113 204.5t127 239.5q-36 -1 -87 -17l-34.5 -11.5t-36.5 -12t-31 -8.5t-29 -4q-23 0 -30.5 9.5t-7.5 43.5q0 49 18.5 73t70.5 41q145 47 247 47q20 0 25.5 -7t5.5 -28q0 -98 -61 -224q-7 -14 -52.5 -94 t-86 -156t-46.5 -100q9 0 79 3t91 3q102 0 114 -19v-13q0 -34 -21 -118zM211 803q-41 0 -51 34l11 89q8 4 26 19l31 -8q17 -4 27 -26q0 -108 -44 -108z" />
<glyph unicode="&#x192;" horiz-adv-x="534" d="M516 647q0 -45 -20 -98q-6 -16 -23 -16q-6 0 -13.5 8t-7.5 14q0 7 1 20t1 19q0 17 -14 38t-22 23q-1 -1 -9 -11.5t-10 -14t-10 -17t-14 -28.5t-17 -40t-24.5 -60.5t-30.5 -82.5l50 10q30 6 50 6q13 0 13 -31q0 -79 -30 -101q-7 -5 -22 -9t-28.5 -6t-40.5 -5.5t-43 -5.5 q-18 -28 -86 -221q-66 -183 -95 -183q-22 0 -23 18v5q0 4 0.5 11.5t0.5 16.5q0 10 -22 47q14 86 28 116q16 33 38 33q4 0 10 -1.5t11 -1.5q7 0 12 1l68 150q-38 -6 -41 -6q-23 0 -23 44q0 22 11 51.5t26 41.5q36 4 68 11q27 60 56.5 137t42.5 105q53 111 108 123 q74 -32 74 -110z" />
<glyph unicode="&#x2c6;" horiz-adv-x="406" d="M300 661q0 -7 -6 -15.5t-15 -8.5q-8 0 -41 55.5t-39 74.5q-9 -11 -62 -93q-19 -27 -30 -38q-2 -2 -5 -2q-6 0 -6 11q0 14 44 81q56 84 62 91q6 2 9 2q7 0 10 -1q5 -3 42 -77t37 -80z" />
<glyph unicode="&#x2c7;" horiz-adv-x="454" d="M145 1028q55 -71 87 -146l56 94q42 68 63 68q24 0 24 -24q0 -43 -73 -157q-12 -20 -48 -61q-23 -4 -30 -4h-2q-21 3 -54 66l-39 72q-29 53 -31 78q0 17 18 19q2 0 29 -5z" />
<glyph unicode="&#x2d8;" horiz-adv-x="568" d="M422 985q0 29 27 29q14 0 26 -8.5t12 -27.5q-7 -36 -21 -67t-38.5 -60.5t-65.5 -46t-94 -16.5q-29 0 -75.5 17t-69.5 40q-38 38 -38 75q0 12 8.5 24.5t19.5 12.5t24 -16t26.5 -34.5t43.5 -34.5t70 -16q66 0 105.5 33t39.5 96z" />
<glyph unicode="&#x2d9;" horiz-adv-x="401" d="M216 820q-41 0 -51 34l11 89q8 5 26 19l31 -8q17 -4 27 -26q0 -108 -44 -108z" />
<glyph unicode="&#x2da;" horiz-adv-x="416" d="M281 903q0 -25 -6 -42q-5 -15 -17 -31q-20 -26 -41 -26h-27q-40 0 -54.5 17.5t-14.5 64.5q0 34 26 78.5t62 44.5q32 0 52 -30.5t20 -75.5zM227 891v42q-3 15 -18 15q-37 -34 -37 -62q0 -21 10 -21q45 0 45 26z" />
<glyph unicode="&#x2db;" horiz-adv-x="833" d="M267 14q21 26 56 26q17 0 17 -8q0 -25 -6 -37q-3 -6 -22 -23.5t-19 -44.5q0 -31 23 -31q13 0 29.5 3t25.5 3q23 0 23 -37q0 -39 -17 -52.5t-58 -13.5q-32 0 -59 36.5t-27 76.5q0 60 34 102z" />
<glyph unicode="&#x2dc;" horiz-adv-x="598" d="M543 742q0 -13 -15 -34q-9 -13 -94 -64q-82 -49 -99 -49q-27 0 -85 64q-59 65 -73 65q-15 0 -64 -39t-62 -39t-13 21q0 26 73.5 81.5t105.5 55.5q24 0 78 -64q52 -64 69 -64q22 0 89.5 40.5t78.5 42.5q11 -5 11 -17z" />
<glyph unicode="&#x2dd;" horiz-adv-x="441" d="M96 781q-23 -4 -30 -4q-18 3 -18 19q0 22 37 84l45 75q42 68 63 68q24 0 24 -24q0 -43 -73 -157q-12 -20 -48 -61zM241 781q-23 -4 -30 -4q-18 3 -18 19q0 22 37 84l45 75q42 68 63 68q24 0 24 -24q0 -43 -73 -157q-12 -20 -48 -61z" />
<glyph unicode="&#x3a9;" horiz-adv-x="487" d="M192 1l-9 -1h-12q-34 0 -45 1h-97q-8 0 -11 34q-1 15 -1 68q0 44 7 44h29q-15 88 -15 140q0 131 58 289q72 196 176 196q42 0 79.5 -40.5t61.5 -109.5q37 -104 37 -257q0 -85 -13 -150q-9 -43 -17 -66q31 0 34 -4q3 -34 3 -87q0 -59 -4 -59h-160q-8 0 -11 36q-1 17 -1 65 q0 41 6 43l12 4q41 17 57.5 62t16.5 125q0 299 -111 299q-30 0 -61 -45q-86 -121 -86 -290q0 -23 11 -107q5 -38 29 -46q35 -3 38 -8q4 -13 4 -35q0 -8 -0.5 -23t-0.5 -23q0 -55 -4 -55z" />
<glyph unicode="&#x3c0;" horiz-adv-x="581" d="M534 486q0 -15 -4.5 -48t-10.5 -43q-3 -14 -76 -39q-1 -117 -1 -288q0 -26 -16.5 -48.5t-37.5 -22.5q-32 0 -32 48l-2 284q-45 -10 -64 -10q-24 0 -61 34q-10 8 -16 10q-1 -120 -1 -295q0 -26 -16.5 -48.5t-37.5 -22.5q-32 0 -32 48l-2 319q-9 -3 -30.5 -11.5t-37.5 -13 t-30 -4.5q-6 0 -9.5 25.5t-3.5 43.5q0 38 67 71.5t109 33.5q31 0 78 -27l17.5 -10.5t16.5 -9.5t12.5 -4.5t17.5 -2.5q34 0 101 24.5t91 26.5q11 -6 11 -20z" />
<glyph unicode="&#x2010;" horiz-adv-x="451" d="M393 216h-305q-21 0 -30 13.5t-9 55.5q0 30 22 30q301 0 321 -7q9 -12 9 -55q0 -34 -8 -37z" />
<glyph unicode="&#x2011;" horiz-adv-x="316" d="M323 216h-305q-21 0 -30 13.5t-9 55.5q0 30 22 30q301 0 321 -7q9 -12 9 -55q0 -34 -8 -37z" />
<glyph unicode="&#x2012;" horiz-adv-x="692" d="M684 216h-645q-21 0 -30 13.5t-9 55.5q0 30 22 30q544 0 661 -7q9 -12 9 -55q0 -34 -8 -37z" />
<glyph unicode="&#x2013;" horiz-adv-x="646" d="M589 234h-514q-27 0 -35 23q-4 10 -4 46q0 30 22 30q514 0 535 -7q9 -17 9 -55q0 -37 -13 -37z" />
<glyph unicode="&#x2014;" horiz-adv-x="995" d="M959 237l-893 -3q-27 0 -35 23q-4 10 -4 46q0 30 22 30q902 0 914 -4q9 -17 9 -55q0 -37 -13 -37z" />
<glyph unicode="&#x2015;" horiz-adv-x="1031" d="M979 237l-913 -3q-27 0 -35 23q-4 10 -4 46q0 30 22 30q922 0 934 -4q9 -17 9 -55q0 -37 -13 -37z" />
<glyph unicode="&#x2018;" horiz-adv-x="209" d="M173 771l-53 -104h19q8 -8 17 -11q9 -4 16 -40q-32 -112 -77 -112q-9 0 -17 11l-12 17q-14 33 -14 69q0 39 23.5 103.5t49.5 92.5l27 6q21 0 21 -32z" />
<glyph unicode="&#x2019;" horiz-adv-x="197" d="M52 571l53 104h-19q-8 8 -17 11q-9 4 -16 40q32 112 77 112q9 0 17 -11l12 -17q14 -33 14 -69q0 -39 -23.5 -103.5t-49.5 -92.5l-27 -6q-21 0 -21 32z" />
<glyph unicode="&#x201a;" horiz-adv-x="214" d="M36 -119l54 107h-19q-8 8 -17 11q-9 4 -16 40q32 112 77 112q9 0 17 -11l12 -17q14 -33 14 -69q0 -39 -24 -105t-50 -94l-27 -6q-21 0 -21 32z" />
<glyph unicode="&#x201b;" horiz-adv-x="203" d="M130 586q-3 -28 -19 -28q-4 0 -32 11q-18 26 -29.5 78t-11.5 97q0 22 2 31q7 42 25 65q17 23 33 23q23 -5 42 -40t24 -84q-8 -24 -19.5 -34t-35.5 -10q-7 0 -13 3z" />
<glyph unicode="&#x201c;" horiz-adv-x="290" d="M131 857l-53 -104h20q15 -8 19 -12t7 -13l6 -26q-14 -50 -35 -80.5t-42 -30.5q-9 0 -20 13q-23 29 -23 83q0 42 24 105.5t50 90.5l26 6q14 0 17.5 -7.5t3.5 -24.5zM273 824l-53 -104h19q8 -8 17 -11q9 -4 16 -40q-32 -112 -77 -112q-9 0 -17 11l-12 17q-14 33 -14 69 q0 39 23.5 103.5t49.5 92.5l27 6q21 0 21 -32z" />
<glyph unicode="&#x201d;" horiz-adv-x="312" d="M182 613l53 104h-20q-15 8 -19 12t-7 13l-6 26q14 50 35 80.5t42 30.5q9 0 20 -13q23 -29 23 -83q0 -42 -24 -105.5t-50 -90.5l-26 -6q-14 0 -17.5 7.5t-3.5 24.5zM40 646l53 104h-19q-8 8 -17 11q-9 4 -16 40q32 112 77 112q9 0 17 -11l12 -17q14 -33 14 -69 q0 -39 -23.5 -103.5t-49.5 -92.5l-27 -6q-21 0 -21 32z" />
<glyph unicode="&#x201e;" horiz-adv-x="494" d="M244 -145l51 102h-20q-15 8 -19 12t-7 13l-6 26q14 50 35 80.5t42 30.5q9 0 20 -13q23 -29 23 -83q0 -42 -23 -104.5t-49 -89.5l-26 -6q-14 0 -17.5 7.5t-3.5 24.5zM102 -112l51 104h-19q-8 8 -17 11q-9 4 -16 38q14 50 34.5 81t42.5 31q9 0 17 -11l12 -17q14 -33 14 -69 q0 -39 -22.5 -103t-48.5 -91l-27 -6q-21 0 -21 32z" />
<glyph unicode="&#x201f;" horiz-adv-x="357" d="M130 586q-3 -28 -19 -28q-4 0 -32 11q-18 26 -29.5 78t-11.5 97q0 22 2 31q7 42 25 65q17 23 33 23q23 -5 42 -40t24 -84q-8 -24 -19.5 -34t-35.5 -10q-7 0 -13 3zM290 576q-3 -28 -19 -28q-4 0 -32 11q-18 26 -29.5 78t-11.5 97q0 22 2 31q7 42 25 65q17 23 33 23 q23 -5 42 -40t24 -84q-8 -24 -19.5 -34t-35.5 -10q-7 0 -13 3z" />
<glyph unicode="&#x2020;" horiz-adv-x="406" d="M241 -44q0 -26 -16.5 -48.5t-37.5 -22.5q-32 0 -32 48l-2 451h-88q-21 0 -30 13.5t-9 55.5q0 30 22 30h104v82q0 26 16 56.5t34 30.5q38 0 41 -43q1 -10 1 -117v-10q112 -2 125 -6q9 -12 9 -55q0 -34 -8 -37h-126q-3 -426 -3 -428z" />
<glyph unicode="&#x2021;" horiz-adv-x="392" d="M231 -68q0 -26 -16.5 -48.5t-37.5 -22.5q-32 0 -32 48l-1 127h-88q-23 0 -30.5 11t-7.5 48q0 30 22 30h104l-1 205h-88q-21 0 -30 13.5t-9 55.5q0 30 22 30h104v112q0 26 16 56.5t34 30.5q38 0 41 -43q1 -10 1 -147v-10q112 -2 125 -6q9 -12 9 -55q0 -34 -8 -37h-126 q-2 -130 -2 -206q116 -3 119 -11q5 -22 5 -50q0 -27 -13 -27h-112v-104z" />
<glyph unicode="&#x2022;" horiz-adv-x="297" d="M154 245q-40 0 -51 35l11 89q8 5 26 19l30 -11q21 -7 28 -23q0 -109 -44 -109z" />
<glyph unicode="&#x2026;" horiz-adv-x="480" d="M71 0q-41 0 -51 34l11 89q8 5 26 19l34 -9q16 -7 24 -25q0 -108 -44 -108zM233 0q-41 0 -51 34l11 89q8 5 26 19l34 -9q16 -7 24 -25q0 -108 -44 -108zM395 0q-41 0 -51 34l11 89q8 5 26 19l34 -9q16 -7 24 -25q0 -108 -44 -108z" />
<glyph unicode="&#x2030;" horiz-adv-x="1158" d="M972 297q0 -87 -53 -205q-61 -136 -138 -136q-34 0 -56.5 47t-22.5 108q0 46 22 108q23 67 74.5 131t87.5 64q37 0 61.5 -34.5t24.5 -82.5zM908 298l-3 6l-5 1q-40 0 -88 -82.5t-48 -131.5q0 -13 13 -13q37 4 71 59q30 48 60 161zM710 307q0 -87 -53 -205 q-61 -136 -138 -136q-34 0 -56.5 47t-22.5 108q0 46 22 108q24 69 74 132t88 63q37 0 61.5 -34.5t24.5 -82.5zM646 308l-3 6l-5 1q-41 0 -88.5 -82t-47.5 -132q0 -12 13 -13q42 11 71 59q30 48 60 161zM618 646q0 -22 -20 -48l-33 -43l-259 -435q-70 -117 -95 -117 q-11 0 -21 19.5t-10 41.5q0 39 35 83l21 22l333 535q7 12 23 12q26 0 26 -70zM318 496q0 -90 -52 -161.5t-122 -71.5q-34 0 -54 38.5t-20 100.5q0 77 60 176q58 96 118 96q31 0 50.5 -52t19.5 -126zM250 488q0 55 -24 55q-29 -17 -60 -70t-31 -81q1 -9 15 -9q31 0 65.5 37 t34.5 68z" />
<glyph unicode="&#x2039;" horiz-adv-x="445" d="M412 513q0 -23 -12 -46t-31 -36q-18 -9 -46.5 -25.5t-86 -49t-120.5 -67.5q36 -30 106.5 -74t116.5 -67q63 -33 63 -51l-4 -47q-2 -31 -9 -41t-23 -10q-14 0 -166 90q-152 91 -174 111q-7 19 -7 62q0 45 4 74q4 22 9.5 29.5t34.5 22.5l169 91q135 72 154 72q22 0 22 -38z " />
<glyph unicode="&#x203a;" horiz-adv-x="425" d="M393 314q2 -15 2 -35q0 -21 -4 -57q-2 -21 -8.5 -29t-34.5 -24q-57 -31 -132.5 -76t-118 -70t-51.5 -26h-4q-20 0 -23 32q0 25 23 58q7 10 14.5 18.5t20.5 18.5t23 17t33.5 21t41 24t56 32.5t67.5 39.5q-17 16 -83.5 53t-122.5 70.5t-58 47.5l-1 9l5 65q4 40 30 40 q12 0 37.5 -15.5t122.5 -79.5q74 -49 111 -76.5t45 -37.5t9 -20z" />
<glyph unicode="&#x203f;" horiz-adv-x="955" d="M16 9v24q3 7 19 7q20 0 35 -9q50 -29 159.5 -58.5t209.5 -29.5q62 0 155.5 24t167.5 49t81 26q18 2 25 2q64 0 64 -43q0 -17 -6 -33.5t-14 -20.5q-92 -39 -210.5 -63t-221.5 -24q-66 0 -147 14q-48 8 -117.5 28.5t-134.5 51t-65 55.5z" />
<glyph unicode="&#x2044;" horiz-adv-x="323" d="M529 794q0 -24 -14 -52l-350 -663l-32 -75q-11 -26 -26 -44.5t-27 -18.5q-37 21 -37 71q0 31 25 78l401 745q13 21 26 21q10 0 15 -5q19 -20 19 -57z" />
<glyph unicode="&#x20ac;" horiz-adv-x="468" d="M314 213q36 39 75 39q27 0 27 -24q0 -33 -28 -77q-38 -58 -95 -104.5t-81 -46.5q-37 0 -73 28.5t-59 77.5q-32 68 -32 182q0 125 65 282q78 189 186 189q40 0 66 -51t26 -106q0 -68 -41 -68q-5 0 -15 2q-23 76 -45 76q-41 0 -78.5 -48t-58.5 -112.5t-21 -119.5v-49 q0 -38 25.5 -81.5t55.5 -43.5h29q41 18 72 55zM319 478v-53q0 -10 -5 -12q-23 -8 -212 -8q-29 0 -48.5 8.5t-19.5 23.5v13t0.5 13t1 11t2 10.5t3.5 7.5t5.5 5.5t8.5 1.5q69 0 117 -2q22 -1 51 -2t36 -1q1 0 9.5 -0.5t14.5 -0.5q21 0 28 -2.5t8 -12.5zM302 247h-248 q-23 0 -30.5 11t-7.5 48q0 30 22 30q269 0 272 -12q5 -22 5 -50q0 -27 -13 -27z" />
<glyph unicode="&#x2122;" horiz-adv-x="718" d="M349 756l-98 -49q-1 -42 -1 -235q0 -103 -5.5 -145.5t-25.5 -42.5q-14 0 -14 29l1 373l-58 -28q-38 -19 -55 -19q-16 0 -16 39q0 59 29 74q45 23 208 94q1 0 12 5t21.5 9.5t11.5 4.5q18 0 18 -32q0 -59 -28 -77zM681 342q0 -23 -8 -35.5t-19 -12.5t-18 23.5t-7 51.5 q0 7 -2 66t-6.5 149t-9.5 139q-12 -24 -25 -59l-39 -101q-53 -134 -69 -134q-11 0 -21 43t-17.5 97t-11.5 65q-21 -34 -26 -120.5t-9 -153t-24 -66.5q-31 0 -31 108q0 105 8 164q11 76 43 137.5t64 61.5q34 0 52 -115q26 81 57.5 143.5t54.5 62.5q39 0 53 -137 q11 -110 11 -377z" />
<glyph unicode="&#x2202;" horiz-adv-x="492" d="M256 -32q-63 0 -110.5 30t-73.5 80.5t-38.5 108t-12.5 121.5q0 71 41 135.5t93 64.5q55 0 109.5 -70t96.5 -181q1 6 5.5 21.5t6 28t1.5 34.5q0 156 -106 287q-5 5 -34 44q-8 13 -8 41q0 45 13.5 69t31.5 24q28 0 71 -57.5t77.5 -154.5t34.5 -188q0 -74 -9 -139 q-6 -42 -20.5 -90.5t-37.5 -97t-58 -80t-73 -31.5zM266 135q-15 75 -59.5 158.5t-73.5 83.5q-7 0 -16 -19.5t-9 -34.5q0 -34 12.5 -81.5t39.5 -88.5t60 -41q23 0 46 23z" />
<glyph unicode="&#x2206;" horiz-adv-x="690" d="M622 5q-4 0 -40 -0.5t-92 -1.5t-108 -1q-298 0 -340 24q-2 2 -2 14q0 8 10 36l132 321q93 195 158 236q33 -32 56.5 -62.5t83.5 -138.5t150 -293q8 -17 22 -51q15 -35 15 -54q0 -29 -45 -29zM555 96q-163 335 -226 410q-51 -67 -85 -150l-103 -258q60 -5 233 -5 q40 0 101.5 1.5t79.5 1.5z" />
<glyph unicode="&#x220f;" horiz-adv-x="502" d="M338 287q0 305 1 326l-182 -11q-3 -336 -3 -344l-6 -249q-11 -10 -23 -10q-15 0 -26.5 13.5t-11.5 29.5v555l-36 -2q-19 0 -27.5 17.5t-10.5 72.5v10q0 29 16 31q241 14 333 17q9 16 25 16q17 0 23 -14h27q24 0 27 -1q11 -36 11 -99q0 -24 -9 -24l-51 -3q-2 -266 -7 -607 q-8 -15 -22 -15q-19 0 -35 22t-16 53q0 41 1.5 121t1.5 95z" />
<glyph unicode="&#x2211;" horiz-adv-x="596" d="M531 -80h-436q-21 0 -21 57q0 64 42 108q40 33 254 247q-61 80 -226 209q-1 1 -12.5 10.5t-17 15t-14 15t-12.5 18.5t-4 18q2 33 10.5 52.5t16.5 25t22 10.5q12 4 51 9t98 11t68 7q180 22 185 22q22 -4 22 -24q0 -3 -2 -13q-15 -57 -59 -68q-25 -6 -96 -16t-78 -10 l-64 -9l19 -18q41 -38 81.5 -72t60.5 -50.5t26 -25.5q7 -28 7 -93q0 -38 -5 -77q0 -23 -9 -40t-33 -42q-53 -57 -164 -152l-13 -11q288 -1 307 -7q9 -16 9 -72q0 -35 -13 -35z" />
<glyph unicode="&#x221a;" horiz-adv-x="562" d="M533 668l-300 -755q-5 -14 -23 -14q-22 0 -26 18l-125 282q-22 49 -22 95q0 17 16 46.5t30 29.5q24 0 39 -49l108 -208l99 246q115 287 183 395q11 19 29 19q13 -3 13 -20q-9 -65 -21 -85z" />
<glyph unicode="&#x221e;" horiz-adv-x="707" d="M542 159q-55 -8 -75 -8q-58 0 -91 21.5t-70 78.5q-19 -24 -55 -40.5t-71 -16.5q-65 0 -109 40.5t-44 106.5q0 63 45.5 117.5t110.5 54.5q92 0 140 -68q25 45 53.5 66.5t72.5 25.5q12 1 35 1q116 0 157 -63q29 -46 29 -115q0 -60 -34.5 -113t-93.5 -88zM179 274 q68 45 75 73q0 17 -17 47.5t-35 45.5q-23 -16 -37.5 -49t-14.5 -61q6 -56 29 -56zM455 220q90 74 90 173q0 46 -21 80q-6 6 -7 6q-50 -9 -79.5 -56t-29.5 -106q0 -30 15 -62t32 -35z" />
<glyph unicode="&#x222b;" horiz-adv-x="519" d="M496 647q0 -45 -20 -98q-3 -7 -18.5 -11.5t-24.5 -4.5q-6 0 -13.5 8t-7.5 14q0 7 1 20t1 19q0 17 -15 39.5t-24 24.5q-38 -51 -112 -257l-51 -142q-15 -24 -106 -281q-66 -183 -95 -183q-22 0 -23 18v5q0 4 0.5 11.5t0.5 16.5q0 7 -6.5 17.5t-16 22.5t-12.5 17 q14 86 28 116q16 33 38 33q5 0 46 -12l129 352q56 151 99 242q53 111 108 123q94 -40 94 -110z" />
<glyph unicode="&#x2248;" horiz-adv-x="618" d="M539 224q13 0 13 -17q0 -19 -16 -37q-14 -15 -99.5 -67.5t-105.5 -52.5q-28 0 -91 69q-62 68 -76 68q-16 0 -70 -41.5t-64 -41.5q-13 0 -13 23q0 28 77.5 86t110.5 58q28 0 85 -68q57 -67 72 -67q24 0 95.5 44t81.5 44zM600 379q0 -12 -15 -34q-12 -16 -92.5 -64.5 t-100.5 -48.5q-28 0 -86 64q-59 65 -72 65q-16 0 -65 -39t-61 -39q-13 0 -13 21q0 26 72.5 81.5t106.5 55.5q24 0 78 -64q52 -64 69 -64q23 0 89 40.5t79 42.5q11 -5 11 -17z" />
<glyph unicode="&#x2260;" horiz-adv-x="489" d="M416 480q0 -13 -8 -29l-42 -71q49 -2 50 -14v-53q0 -10 -5 -12q-15 -5 -97 -7l-42 -71q141 -2 144 -11q5 -22 5 -50q0 -27 -13 -27h-189l-35 -60l-21 -43q-16 -35 -34 -35q-23 11 -23 39q0 15 15 44l33 55h-17q-23 0 -30.5 11t-7.5 48q0 30 22 30h87l42 69h-91 q-29 0 -48.5 8.5t-19.5 23.5v13t0.5 13t1 11t2 10.5t3.5 7.5t5.5 5.5t8.5 1.5q69 0 117 -2q18 -1 44 -2t32 -1l73 120q4 12 19 12q5 0 7 -2q12 -9 12 -32z" />
<glyph unicode="&#x2264;" horiz-adv-x="549" d="M499 715q0 -28 -13.5 -56.5t-34.5 -43.5q-87 -44 -290 -156q27 -23 82.5 -52t112 -55t69.5 -33q1 0 9 -4.5t13.5 -8t14 -9.5t14 -11t9.5 -11.5t4 -12.5l-6 -75q-3 -36 -10.5 -47t-26.5 -11q-17 0 -189 103q-173 104 -198 126q-8 21 -8 71q0 53 5 84q4 25 10.5 33t39.5 26 q64 34 192 104q154 82 176 82q25 0 25 -43zM475 6h-355q-21 0 -30 13.5t-9 55.5q0 30 22 30q351 0 371 -7q9 -12 9 -55q0 -34 -8 -37z" />
<glyph unicode="&#x2265;" horiz-adv-x="558" d="M494 451q0 -58 -17 -138q-5 -24 -13 -31.5t-42 -22.5q-34 -14 -97 -40.5t-96.5 -40.5t-74 -30.5t-61.5 -24t-27 -7.5q-27 0 -27 36q0 26 33 65q9 11 18 19.5t25 18.5t28 16.5t40.5 20t48 22t66 29t80.5 35.5q-17 20 -87 69.5t-128.5 93.5t-58.5 59v10l14 72q11 53 29 53 q19 0 44 -17.5t133 -106.5q122 -101 146 -123.5t24 -36.5zM462 2h-355q-21 0 -30 13.5t-9 55.5q0 30 22 30q351 0 371 -7q9 -12 9 -55q0 -34 -8 -37z" />
<glyph unicode="&#x25ca;" horiz-adv-x="468" d="M424 367q-5 -21 -119 -176q-110 -153 -119 -162q-10 -7 -16 -7t-65 117q-51 103 -51 111q0 69 60 157l164 244q8 9 17 9t19 -13.5t22 -43t23.5 -61t30 -83t34.5 -92.5zM335 333q-78 182 -80 184l-5 -3q-122 -148 -122 -178q0 -8 34 -83t50 -98q17 19 67 92.5t56 85.5z " />
<glyph unicode="&#x25fc;" horiz-adv-x="775" d="M0 775h775v-775h-775v775z" />
<glyph unicode="&#xf723;" horiz-adv-x="90" d="M1754 950q0 -40 -23 -66q-6 -6 -284 -12q-133 -3 -579.5 -7t-610.5 -4q-7 0 -28 2.5t-27 2.5q-8 0 -20.5 -7.5t-22.5 -7.5q-14 0 -29 9h-6q-62 -33 -108 -258q-39 -184 -39 -300q0 -107 28 -175l30 -62q14 -30 20 -66q-9 -17 -28 -17q-5 0 -15 2q-37 26 -61 124.5 t-24 225.5q0 160 43 326.5t116 289.5q12 20 20.5 25t29.5 5l1587 13q15 0 23 -13t8 -30z" />
<glyph unicode="&#xf735;" horiz-adv-x="90" d="M1707 -109q0 -43 -32 -43l-1587 12q-21 0 -29.5 5.5t-20.5 25.5q-71 118 -115 288.5t-44 326.5q0 211 51 307q19 36 38 44q2 1 9 1q30 0 30 -16q-5 -32 -24 -74t-27.5 -65t-15 -66t-6.5 -104q0 -135 31 -296q41 -219 111 -256l7 -1q4 1 10 4t10.5 5t8.5 2q7 0 20 -8 t22 -8q7 0 28 2.5t27 2.5q445 0 1191 -12q22 0 76 -1t83 -1.5t66 -3t59 -6.5q23 -26 23 -65z" />
<glyph unicode="&#xf74a;" horiz-adv-x="145" d="M1245 570q0 -634 -273 -1027l-985 -1q-17 0 -32 5l-18 22l-4 95q0 5 -30 14l-37 12q-10 8 -33 39q-109 152 -109 474q0 251 67 523q78 320 208 474q19 22 32 22l1104 -39q46 -55 81 -293q29 -200 29 -320zM1161 476q0 271 -75 497q-9 9 -19 9q-3 0 -12 -1.5t-12 -1.5 q-26 0 -61 31l-951 28q-104 -104 -171 -376q-58 -231 -58 -420q0 -90 21 -178q11 -50 47 -167l16 -16l1060 -6l44 -22q20 -11 27 -45q8 5 11 12q133 276 133 656z" />
<glyph unicode="&#xf74b;" horiz-adv-x="133" d="M1535 567q0 -635 -272 -1027q-1182 2 -1184 2q-32 0 -47 27l-4 95q0 5 -13.5 9.5t-30.5 9t-22 7.5q-11 7 -34 39q-109 152 -109 474q0 251 67 523q78 320 208 474q19 22 33 22l1299 -42q45 -54 80 -293q29 -200 29 -320zM1451 473q0 267 -74 497q-11 9 -19 9 q-2 0 -11.5 -1.5t-13.5 -1.5q-26 0 -60 31l-1147 31q-104 -104 -171 -376q-58 -231 -58 -420q0 -106 21 -178l49 -169l14 -12l1255 -10l43 -23q21 -12 28 -45q7 4 12 13q132 274 132 655z" />
</font>
</defs>
</svg>
