<?xml version="1.0" standalone="no"?>
<!DOCTYPE svg PUBLIC "-//W3C//DTD SVG 1.1//EN" "http://www.w3.org/Graphics/SVG/1.1/DTD/svg11.dtd" >
<svg xmlns="http://www.w3.org/2000/svg">
<metadata>Generated by IcoMoon</metadata>
<defs>
<font id="chords" horiz-adv-x="1024">
<font-face units-per-em="1024" ascent="960" descent="-64" />
<missing-glyph horiz-adv-x="1024" />
<glyph unicode="&#x20;" d="" horiz-adv-x="512" />
<glyph unicode="&#x23;" d="M181 213.5q0 35-12.75 52.25t-38.25 16.25h-13.5q-4.5 243-16 275.5-2 3.5-5.75 9t-4.75 7.5q-18.5 0-18.5-75 0-41 5.5-104 5-78.5 5-104.5 0-14.5-2-22.5-18.5-13.5-32-13.5-6 172-29.5 172-8.5 0-8.5-47l6.5-144.5q-10.5-10.5-29-19.5t-23.5-17.5q-9-13.5-9-42 0-18 6-52 7.5-42 17.5-42 8 0 41 17.5 4-20 4-52.5 0-9-33.5-33.5-33-24-33-53.5 0-11.5 49-69.5 20.5 7.5 27 12.5h5q6-204.5 18.5-225.5 3-7 13-7 10.5 0 10.5 26.5 0 12-12.5 218 6.5 9.5 25.5 12.5 7-18 11.5-87 4.5-78 12-99.5 3-13.5 10.5-13.5 14.5 0 14.5 36 0 63.5-12.5 182.5 3 3.5 17.25 18.25t21.75 23.25q19.5 21 19.5 61.5 0 16-12.5 40-13.5 26.5-28.5 26.5-7.5 0-27.5-16l-3.5 63.5q42.5 26 44 27.5 21.5 17 21.5 43zM88 123.5q0.5-14.5 1-27.25t1-18.25v-6q0-11-12-17-6-3-23.5-10.5-6.5 36.5-6.5 52.5 1.5 5.5 17.5 15 4 1.5 12.25 6t10.25 5.5z" horiz-adv-x="222" />
<glyph unicode="&#x28;" d="M300.5 5q99.5 0 99.5 72.5 0 40-60.5 40-113 0-174 59.5-61.5 60-61.5 172 0 110.5 71.5 273.5 29.5 67 39 88 26 64.5 26 90 0 32-12.5 32-4 0-6-3.5-65.5-104.5-125-270-68.5-186-68.5-290 0-118 76.5-191.5 75.5-72.5 195.5-72.5z" horiz-adv-x="272" />
<glyph unicode="&#x29;" d="M47.5 881q-95 0-95-72.5 0-40 64.5-40 63.5 0 100.5-79 27.5-61 27.5-135 0-108.5-71.5-273.5-9.5-21-39-88-25.5-59.5-25.5-90 0-32 11-32 4.5 0 7.5 3 62.5 100.5 124.5 270.5 69 191.5 69 288.5 0 91-39 163-49.5 85-134.5 85z" horiz-adv-x="220" />
<glyph unicode="&#x2b;" d="M342 242q-7.5 17.5-25.5 17.5-32.5 0-97.5-5-6.5 64-5 118.5v24q-14 7-26.5 7-20.5 0-40-13.5-6-34-6-102v-41q-30.5-2-58.5-5.5-36-7.5-49-25.5-22.5-30-22.5-53 0-9.5 9-9.5 64 0 128 4 9-73.5 18.5-128 12.5-11 28.5-11 43 0 43 70.5 0 9.5-9 77 56 5.5 74.5 15.5 26 12.5 38 60z" horiz-adv-x="350" />
<glyph unicode="&#x2d;" d="M53 200q30 0 131.5 21.5 100.5 21.5 126 34 8.5 4.5 23.5 41 14 36.5 14 49t-15 12.5q-10 0-84-16.5-30-7-89.5-21.5-15-2.5-46-7-38.5-6-43-10.5-10.5-10.5-25.5-41-15.5-33.5-15.5-43 0-18.5 23.5-18.5z" horiz-adv-x="372" />
<glyph unicode="&#x2f;" d="M371.5 806.5q0 1.5 0.5 4.75t0.5 5.25q0 16-14 27t-30 11q-22.5 0-130-264-130-315.5-287.5-764-36-102-36-130 0-22 8.75-31.5t27.25-6.5q16.5 10.5 109.5 269.5 12 34 47.25 137.5t55.25 160.5q47 133.5 91 245.5 94.5 243.5 157.5 335z" horiz-adv-x="250" />
<glyph unicode="&#x30;" d="M274.5 305.5q0 132-24.5 205-11 31-24.5 55.5-18.5 21-36 40.5 4 23 4 37 0 55.5-55.5 55.5-50 0-96-130-39-108-39-175.5 0-73.5 18.5-137 22-80.5 66.5-119 24.5-21.5 50-21.5 59 0 100.5 68 36 59.5 36 121.5zM198.5 333.5q0-28.5-13-58.5-17-35-43-35-11.5 0-26 14.5-53 45-53 129 0 40.5 23.5 101.5 26 72 54.5 83v-91.5q24.5-3 44-61.5 13-48 13-81.5z" horiz-adv-x="274" />
<glyph unicode="&#x31;" d="M236.5 184v102q-38-9.5-80-21.5l-9 429.5q-9.5 11-37 11-23.5 0-33.5-10 0-27-37-120-36-92-36-127 0-20.5 11.5-35 10.5-15 29.5-15 10 0 17.5 6 5 27 14.5 63.5 9-83.5 9-175 0-27-2-35-9-3-40-6-28.5-3-40-8.5l-8-107.5q4-1 19.5-1 105.5 0 221 49.5z" horiz-adv-x="222" />
<glyph unicode="&#x32;" d="M289 275q-11.5 21-14.5 54-15.5-5.5-82-51-55-38-79-38l-6 1q43 121 64.5 182.5 34 100.5 34 195.5 0 90-55.5 90-75.5 0-117.5-81-34-66.5-34-148.5 0-26.5 2-47 3-31 3-46 9-3 19.5-3 18 0 35 13.5 17.5 13.5 17.5 31.5v47q0 98.5 51 98.5 11 0 11-7 0-5-5-16.5-6-12-6-13.5-10.5-28-30.25-83t-30.25-83q-32.5-96-32.5-171 0-84 52-84 62 0 130 47.5 73 53 73 111.5z" horiz-adv-x="298" />
<glyph unicode="&#x33;" d="M259 339.5q0 128-93 128-2 0-6.25-0.5t-6.25-0.5q41 77.5 41 150.5 0 30.5-13.5 58.5-17.5 29.5-47 29.5-64.5 0-100-74.5-30-58.5-30-132.5 0-22 4-38.5 10-11.5 25-11.5 12.5 0 22.5 10 5.5 23 20.5 75 19 50 50 50 10 0 10-7 0-20-46-85-10-14-30.5-42.25t-31-42.75v-18.5q0-45 2-53 6-34 32-34 55.5 51 91 51 40 0 40-12 0-18-23.5-49-24.5-34-40-42-3 21-29.5 34.5-46-37-46-82 0-81.5 62-81.5 55 0 101.5 85 41 77.5 41 135z" horiz-adv-x="253" />
<glyph unicode="&#x34;" d="M301 312q0 83.5-13.5 114.5-28-7-45-12.5-6 69-9 134.5-0.5 14.5-1.5 43t-1.5 43q-3 49.5-18.5 83-40.5-9-110.5-137.5-53.5-97.5-80-170-27.5-76-27.5-118.5 0-61.5 65.5-61.5 50 0 117.5 26.5 21-88.5 26-137h69.5q3 20.5 3 44 0 21.5-12.5 114.5 38 14 38 34zM159.5 391.5q-36-11-67.5-14 19 48 56.5 116.5 1.5-44.5 11-102.5z" horiz-adv-x="301" />
<glyph unicode="&#x35;" d="M229.5 350.5q0 52-36 95.5-38 44-87 44-19 0-33-12.5v8.5q0 70.5 18.5 95 6 9 35 21.5 18.5 6 18.5 35v78q-91.5-33.5-115-66-23.5-32-23.5-126.5 0-117 10.5-157 6-25.5 35.5-25.5 39 42 61.5 42 16 0 37-19.5 19.5-21 19.5-37 0-34-27.5-64.5t-58.5-30.5q-9 0-19.5 21.5-10.5 15.5-15.5 28.5-24-19-27.5-21.5v-84q13-36 23.5-44 15.5-15.5 48-15.5 71 0 107.5 87.5 28 65 28 147z" horiz-adv-x="227" />
<glyph unicode="&#x36;" d="M285.5 399q0 146.5-72.5 146.5-43 0-86-84-32-62-45-122 0 37 15.5 129 19 109.5 39.5 109.5 21.5 0 22.5 2 17.5 28 17.5 88 0 39-42 39-55 0-98-180-34-146-34-232.5 0-62 26.5-109.5 32.5-61.5 88.5-61.5 31 0 64.5 24.5 51.5 37.5 79.5 113.5 23.5 63.5 23.5 137.5zM219 384.5q0-31.5-26.5-71.5-26.5-42-54.5-45 4 22.5 30 76.5 27.5 55 45 63.5 6-7.5 6-23.5z" horiz-adv-x="283" />
<glyph unicode="&#x37;" d="M161 122.5q26 10 29.5 26.5 24 110.5 29.5 130 66.5 303 66.5 357.5 0 69.5-106.5 69.5-41.5 0-98-11-66-14.5-90-37v-143.5q105 37 166.5 37 12.5 0 45.5-2 3-3 3-6.5 0-0.5-0.5-1.75t-0.5-2.25q-16-38.5-47.5-184-32.5-142.5-32.5-184.5 0-20.5 9-29.5 5-8.5 26-18.5z" horiz-adv-x="275" />
<glyph unicode="&#x38;" d="M167 118.5q59.5 0 90 47 26.5 40 26.5 103.5 0 34-11 75.5-11.5 44.5-35 64.5-11 9-34.5 26.5 20 40.5 20 97.5 0 64.5-26.5 114.5-34 60.5-93 60.5-38 0-60.5-47-17.5-35.5-17.5-80 0-50.5 16.5-78.5 8-18 50-61.5-77.5-27.5-77.5-132.5 0-24 7-41.5l3-11.5q1.5-10 3-12.5 43.5-124.5 139.5-124.5zM154.5 533q0-28.5-15-28.5-20.5 0-32 25.5-10 20.5-10 42 0 22.5 14 22.5 21 0 33-21.5 10-21 10-40zM175 277q0-46-22.5-46t-34.5 36q-10.5 28-10.5 54 0 32 19.5 35 7-3.5 11-2 37-17.5 37-77z" horiz-adv-x="274" />
<glyph unicode="&#x39;" d="M229.5 485q0 83.5-24.5 143-34 82-105.5 82-99.5 0-99.5-155.5 0-209 103.5-209 13 0 30.5 43 15.5 39.5 15.5 57.5 0 17.5-21.5 26.5-34.5 14-39 18.5-21.5 15-21.5 49 0 33 33 33 25 0 44-30 18.5-29 18.5-56 0-48.5-15.5-115-18-71.5-44-105-16.5 0-31-6.5-10-11.5-10-52 0-50.5 15.5-73 11-7 28.5-7 13.5 0 22.5 6 53 37 81 162 19.5 94.5 19.5 188.5z" horiz-adv-x="230" />
<glyph unicode="&#x41;" d="M390-13q0 5-4 42-22 154.5-67.5 353.5-23.5 118.5-33 172-32.5 128-81.5 131-85-49.5-140.5-320.5-44-217-44-382 0-18 4-34.5h68.5q2 14 2 23.5 0 4-4 39-4 22-4 38.5 7.5 19 92 52.5 1.5 0.5 14.5 5.25t38 13.75 54 19q5-16.5 11.5-79 4.5-53 15.5-78 14.5-34.5 53-34.5 25.5 0 25.5 38.5zM244.5 275q0-21-124.5-63.5 0 49.5 21.5 135 23.5 98.5 50 122 16-26.5 34-94 19-71.5 19-99.5z" horiz-adv-x="406" />
<glyph unicode="&#x42;" d="M435 243q-9 60-41 98.5-30 36-74.5 36-16-1-45-5.5 113.5 76 101.5 229.5-7.5 92.5-118 92.5-79.5 0-164-96.5-82.5-94.5-82.5-176 0-68.5 37.5-68.5 20 0 43 9 0-35 6.5-106.5 7.5-96 9-106.5-44-21.5-44-94 0-63 24.5-90.5 23.5-26.5 86-26.5 118 0 192.5 79 72 75 72 184 0 16.5-3.5 42zM281.5 548.5q0-8.5-9-29-42.5-89-116-133-14 61.5-14 76 0 30.5 37.5 75.5 37 46 68 46 12.5 0 23.5-11 10-13.5 10-24.5zM270.5 275q33 0 55-20.5 22.5-22.5 22.5-54.5 0-12.5-7-34.5-44-123-133-123-11.5 0-17.5 1-13.5 21.5-16.5 79-3 26.5-3 84 10 29.5 39 49t60.5 19.5z" horiz-adv-x="459" />
<glyph unicode="&#x43;" d="M428 19q0 37-18.5 64.5h-232.5q-100 9-100 191.5 0 64 27.5 125t74.5 103.5q28.5 25.5 43 25.5 32 0 32-72 0-3.5-0.5-19t-0.5-27q-1-20.5-1-45 0-101.5 53-104.5 16 9.5 36 12.5 11.5 61 11.5 125 0 112-19.5 176-32.5 104.5-120 104.5-102 0-154.5-162-39-115-39-246.5 0-265.5 89-322.5h299q20.5 29.5 20.5 70.5z" horiz-adv-x="455" />
<glyph unicode="&#x44;" d="M476 322q0 162.5-31.5 242.5-49.5 122-189.5 122-79 0-140.5-51-40-33-97-117v-155.5l35.5 30.5q15-51.5 27-120.5 1-8 6.5-48.25t10-74.75l-43.5 10.5q9-119.5 16.5-177.5 24-20 106.5-35.5 65-14.5 115-14.5 119 0 161.5 145.5 23.5 82.5 23.5 243.5zM429 348.5q0-56-17.5-118.5-23-79-59-97.5-24-13-79-13-23.5 0-61.5 9-39 9-59.5 19.5-2.5 23-7.75 69t-7.75 69q-10.5 80-29.5 135.5 119 107.5 174 107.5 58.5 0 105.5-61.5 42-59.5 42-119z" horiz-adv-x="509" />
<glyph unicode="&#x45;" d="M385 73q0 21.5-35 21.5-83.5 0-222-11-26.5 8.5-26.5 56.5 42 17 110.5 43 61.5 22.5 78 37.5 26.5 25 26.5 81 0 13 2 25.5 3 19 3 28 0 31.5-21.5 31.5-11 0-184.5-73.5-24.5-1.5-24.5 21.5 0 33 42 83 32 39.5 71 65.5 25.5 17.5 68.5 33.5 27 10 36.5 24.5 13.5 21 22 76 7 48.5 8 45 0 14.5-5.25 21.5t-15.25 6h-4q-85-14-183.5-99-107.5-91-107.5-169 0-77 15.5-245 15-182 33.5-233.5h260.5q29 0 36.5 33 15.5 79 15.5 97z" horiz-adv-x="414" />
<glyph unicode="&#x46;" d="M295 191q6 9 6 48 0 91-23.5 91-15 0-82-27.5-68.5-27.5-103.5-27.5-8 0-11 1l-4 144.5q27 20.5 75.5 48 7.5 3.5 20.5 9.75t24 11.25 21 9.5q46 22.5 54.5 42 6 12 6 36v18.5q-1 8-1 18.5 0 11-0.25 21.5t-0.5 16.5-0.25 7q-6 28.5-27.5 28.5-29.5 0-116-42-85-42.5-106.5-67.5-8-23.5-8-61.5 0-91.5 12-232.5 4.5-55 9-107.25t7.25-83.25 3.25-41q3-64 4.5-68.5 9-39 46-39 11 0 11 66 0 44-5 112.5 11 12.5 87 34.5 80.5 22 101.5 33z" horiz-adv-x="332" />
<glyph unicode="&#x47;" d="M470-45.5q-2 94-2 143.5-4.5 102.5-27.5 157.5-32.5 74.5-103.5 74.5-106.5 0-143.5-23.5l3-142h122v-24.5q-38.5-37-102.5-37-66.5 0-102.5 39-35.5 38.5-35.5 106.5 0 70 41 164.5 47.5 113 106.5 113 32 0 51-39 10.5-31.5 27.5-72 18-38.5 61.5-38.5 14.5 0 14.5 18.5 0 15-7.5 61-10 41-14 61.5-18.5 88.5-34 117-30.5 52-101.5 52-104 0-159.5-159.5-42-118-42-248 0-133 36-219 49-122 161.5-122 47.5 0 91.5 19.5 26 11 66.5 38 30 20 40 21.5 6-9 6-17.5 0-7.5-3-19.5t-3-18.5q0-11.5 3-23.5 31 1.5 50 16.5z" horiz-adv-x="512" />
<glyph unicode="&#x5b;" d="M284.5-488q100.5 0 100.5 145.5 0 80-61.5 80-138.5 0-196.5 176-39 115-39 287.5 0 221 71.5 547 32 141.5 41 178 24 114 24 179.5 0 62.5-11.5 62.5-5 0-7-7.5-102-325-160-757.5-33.5-244-33.5-360.5 0-362.5 161.5-487.5 54.5-43 110.5-43z" horiz-adv-x="240" />
<glyph unicode="&#x5d;" d="M31.5 1218q-96 0-96-146.5 0-78.5 65.5-78.5 71 0 106.5-188.5 21.5-118.5 21.5-241 0-214-71.5-545.5-7-30-41-178.5-23.5-104.5-23.5-179 0-27 2-37 1.5-26.5 9-26.5 4.5 0 7.5 7 97.5 319 159.5 758 34 248 34 361.5 0 145-30 283.5-46 211-143.5 211z" horiz-adv-x="204" />
<glyph unicode="&#x61;" d="M236.5-37.5q0 43-40 237.5-22.5 105-22.5 105.5-23.5 77.5-55 79-40.5-25.5-73-167-27.5-120.5-27.5-193.5 0-40 11-88h54.5q3 20 3 36 0 1-0.5 5.75t-0.5 8.25v15.5q41.5 21 67.5 31 1.5-11 5-31.25t4.5-26.25q9-33 40-33 33.5 0 33.5 20.5zM128 124.5q0-4-34-11.5 10.5 62.5 19.5 89h3q11.5-69 11.5-77.5z" horiz-adv-x="256" />
<glyph unicode="&#x62;" d="M264 112q0 43.5-29.5 70-8.5 4.5-20.75 12.75t-15.25 9.75q3.5 5.5 11.5 18 21.5 33.5 21.5 96.5 0 65.5-60.5 65.5-46.5 0-102.5-60.5t-56-111.5q0-47 26.5-47 7.5 0 19.5 3 0-14 5-111.5-28.5-11.5-28.5-58.5 0-42.5 15-57.5 14.5-16.5 56.5-16.5 77.5 0 120 56.5 37.5 50.5 37.5 131zM176 292.5q0-16.5-22.5-45-20-24.5-38-36l-1 25.5q0 19.5 19.5 39t38 19.5q4 0 4-3zM211 88.5q0-24.5-25.5-53-26.5-28-51.5-28h-6q-5 10-5 54.5v25.5q15 34 47 34 9 0 25.5-11.5 15.5-11 15.5-21.5z" horiz-adv-x="288" />
<glyph unicode="&#x63;" d="M268.5-9.5q0 17-3.5 27.5-8 10-14 21.5h-131q-46.5 0-46.5 87 0 73 50.5 118.5 13 11.5 19.5 11.5 17.5 0 17.5-42l-1-6q-0.5-6-0.5-11.5v-23.5q0-64.5 32-64.5 5.5 5.5 26.5 7 8.5 48.5 8.5 82 0 171-89.5 171-59.5 0-93-95-24.5-71.5-24.5-146.5 0-156.5 58.5-191.5h172q18.5 24.5 18.5 54.5z" horiz-adv-x="288" />
<glyph unicode="&#x64;" d="M289 156q0 98.5-18.5 143.5-31 72.5-113 72.5-48 0-80.5-26.5-26.5-21.5-55.5-68.5l-1-112.5 20.5 6q8-35 14.5-90l-21.5 5q5-86 10-120 14-25.5 54.5-31.5 18.5-3 65.5-3 47.5 0 67.5 11 57.5 34 57.5 214zM242.5 161.5q0-61-8-77-14.5-25.5-66.5-25.5-30 0-56.5 15-19.5 71-19.5 114 0 29 20.5 48 21 19.5 49.5 19.5 25.5 0 54-33 26.5-34 26.5-61z" horiz-adv-x="320" />
<glyph unicode="&#x65;" d="M235.5 37.5q-3.5 5-56.5 5-52 0-87-3v14.5q14 5 41.75 15.75t41.25 15.75q30 17.5 30 73.5 0 48.5-21.5 48.5-4.5 0-103.5-40l-6.5 5q0 17 63.5 61.5 9.5 4.5 55.5 29.5 16 11 20.5 56.5 0 5.5 0.5 11.5l0.5 6q0 38-18.5 38-47 0-112.5-59.5-64.5-60-64.5-108.5 0-45.5 10-140.5 10-104.5 20.5-133l148.5-1q28 0 37 30.5 4 20 4 55.5 0 12.5-3 18.5z" horiz-adv-x="256" />
<glyph unicode="&#x66;" d="M193.5 114q0 62.5-26.5 62.5-6.5 0-40-14-34-15-47-16.5l-2 58.5q1 1 6.5 4.25t19.75 11.75 27.75 16.5q40.5 25 46 35 4.5 9 4.5 24.5 0 2.5-0.5 6.25t-1 9.25-1 9q-2 11-4 32-4.5 21.5-22.5 21.5-16.5 0-67.5-27-51-28-62.5-42-5-14.5-5-38.5 0-28 10-161 9-149 13.5-156.5 7.5-18.5 30.5-18.5 17.5 0 17.5 23.5 0 12.5-3 37-2 16.5-2 38.5 0 4.5 1 4.5 8 9.5 48 21.5 43 11.5 54.5 17 5 11.5 5 41z" horiz-adv-x="208" />
<glyph unicode="&#x67;" d="M292-57q0 89-6.5 127-15 78-61 101.5 13 16.5 13 54.5 0 146-92 146-61.5 0-96.5-95-27.5-73-27.5-147.5 0-78.5 23.5-131 30.5-71.5 98.5-71.5 28.5 0 53 12 16 8 46 30 3.5-27 3.5-72 0-52 5-72.5 20.5 1.5 35.5 18.5 5.5 41.5 5.5 100zM203 176.5l-1.5-2q-59 0-87-20.5l3.5-84 67.5-6q-6-18.5-44-18.5-60.5 0-60.5 68.5 0 39 17.5 83 20.5 58.5 49 58.5 20 0 30.5-33 12-39.5 25-46z" horiz-adv-x="320" />
<glyph unicode="&#x68;" d="M264 95.5v26q0 52-16 77.5l-15.5-8q-5 23-5 89 0 52.5-5.5 90-14 10.5-33.5 10.5-12 0-23.5-5v-190.5q-36-7-57.5-10.5-5.5 28.5-4 87 0 69.5-2 87-18 4.5-24.5 4.5-22.5 0-35-12.5v-102.5q0-51 1-70.5l-28.5-4q-3-12-3-30 0-38.5 11-77.5l35 8q2-20 2-47 0-73 5-78 7.5-5 25.5-5 17 0 29 6 3 41.5 3 60.5 0 29.5-3 70.5 35.5 1.5 59 13.5 1.5-15 11.5-80 9-61 18.5-70.5 2.5-4 16.5-4 22.5 0 32.5 10 0 1 0.5 6t0.5 8.5q0 29.5-14.5 138z" horiz-adv-x="288" />
<glyph unicode="&#x69;" d="M110.5 526q-9 9-25.5 9l-41-9q-9-22-9-54.5 0-27.5 9-48 9.5-9.5 22.5-9.5 0.5 0 4 1t12.5 3.5 17.5 5q12 24.5 12 67.5 0 15-2 35zM129 6.5q0 1-1.25 13t-4 42-5.75 62q-12 123-10.5 200.5v25.5q-13.5 13.5-30.5 13.5-22.5 0-35-12.5-5-53.5-5-120.5 0-59.5 10-144.5 10.5-110.5 13.5-145.5 12.5-15.5 30.5-15.5 38 0 38 82z" horiz-adv-x="176" />
<glyph unicode="&#x6a;" d="M240.5 278q7.5 36.5 7.5 50 0 23-11.25 35.25t-32.75 12.25q-13.5 0-48.5-21.5-55-33.5-90-76-46-54.5-46-105.5 0-63.5 40-63.5 8 0 11 12.5 1.5 10 4.5 18.5 10.5 41.5 53 79.5 57 52.5 112.5 58.5zM219 5.5l-6 46q-10 92.5-10 122v13.5q-1.5 16 2 46-17.5 7-24 7-10.5 0-32.5-17.5v-70.5q0-21 6-59.5 6.5-43 6.5-56 0-5.5-7.5-5.5-9.5 0-33.5 19.5-25 20.5-30 20.5-14 0-14-31.5 0-14.5 1-22.5 6-55 76.5-80 18.5-6 23.5-6 42 0 42 74.5z" horiz-adv-x="288" />
<glyph unicode="&#x6b;" d="M240.5-71l-1 99q0 2.5-60.5 24.5-59.5 20-61 35 102 132.5 105 275.5-27.5 5-38.5 5-22.5 0-22.5-11 0-36-83-183.5-3 19.5-5.5 98.5-3 69-11 92-4 0-12.75 0.5t-12.75 0.5q-5.5 0-13.25-0.5t-10.25-0.5q6-286.5 37.5-428h38q14.5 0 14.5 19.5v12q1.5-1 67.5-21.5 43.5-14 69.5-17z" horiz-adv-x="256" />
<glyph unicode="&#x6c;" d="M310.5-58q-10.5 91.5-15.5 126-107-6-117-6-43 0-84 5-9 73.5-12 147.5-5.5 104-11.5 136-12.5 12.5-43 12.5-4-18-4-69.5 0-114.5 7-172 8.5-85.5 20.5-126 5-18 17.5-53.5 70.5-6 127-6 53.5 0 115 6z" horiz-adv-x="336" />
<glyph unicode="&#x6d;" d="M343-66q-32.5 123-32.5 354.5 0 41.5 1 56-8.5 7-16.5 13.5t-13.5 11-7 5.5q-18-47-46-128-37-98.5-63.5-98.5-30.5 0-52.5 43-13 25.5-30.5 89-21 66-26.5 75h-43q6-90 8-148.5 2-93 4-136.5 4.5-119 16.5-125 10-7 26.5-7 21.5 0 36 11.5 0 57.5 7 92 30.5-27.5 59.5-27.5 49.5 0 83 85l1-1q12-99 38-164h51z" horiz-adv-x="368" />
<glyph unicode="&#x6e;" d="M311.5-22v17.5q0 21-9.5 55-10.5 31-15.5 53.5-20.5 75-20.5 172 0 21.5 2.5 47 2 41 2 47-9.5 14.5-26 14.5-1 0-5.25-0.5t-7.75-0.5q-6-1-12.5-1-14-46-14-119 0-44 7-112.5-85.5 93.5-124 137.5-5 24-7 45-13 8-29 8-10 0-19-3-9.5-71.5-9.5-128 0-197.5 19.5-254 11-7 26.5-7 22.5 0 22.5 28.5 0 11-4 77-6 52.5-6 75.5 87.5-78 184-199.5h39q6.5 33.5 6.5 47z" horiz-adv-x="336" />
<glyph unicode="&#x6f;" d="M229.5 129.5q0 52.5-11.5 106.5-13 49-34.5 86-32.5 54.5-69 54.5-3.5 0-20.5-13.5-73.5-60-73.5-217 0-218 111.5-218 97.5 0 97.5 201.5zM148.5 218.5q11 0 18.5-42 5-36 5-51 0-83-44-83-22.5 0-40 40-14.5 31-14.5 58.5 0 38 13.5 60 10.5-8 25.5-8 22 0 35 25.5h1z" horiz-adv-x="256" />
<glyph unicode="&#x70;" d="M105.5 49.5q33 14 50 22.5 54 37 55.5 182.5v4q0 53-25.5 86-30.5 35-82 35-38 0-63.5-36-24.5-35-24.5-75.5 0-43 19.5-174.5 18.5-145.5 29.5-156.5 20.5-1 46-1zM154.5 233q-13.5-52-71.5-62.5-4 22-4 39 0 58.5 32.5 58.5 10.5 0 24.5-12.5 13-13 18.5-22.5z" horiz-adv-x="240" />
<glyph unicode="&#x71;" d="M279.5-30q-43 41.5-57.5 65.5 7.5 49.5 7.5 89 0 5.5-0.5 14t-0.5 12.5q-3 65-28 133-34 92.5-86 92.5-6 0-24.5-14.5-69.5-59-69.5-215 0-218 111.5-218 34 0 58.5 27.5 21.5-24.5 27.5-27.5zM173 128.5l1-1q0-2-2 2l-3 7-62.5-42q11.5-27.5 24.5-52-28 0-43 38-14.5 29.5-14.5 60.5 0 38 13.5 60 10.5-8 25.5-8 22 0 35 25.5 1 1 2 1 18.5 0 21.5-90 0-3 1-3 1 1 1 2z" horiz-adv-x="288" />
<glyph unicode="&#x72;" d="M260-71l-2 94q-13.5 6-26.5 6-8.5 0.5-24.75 1.75t-24.25 1.75q-38.5 4.5-40 14 93 119.5 93 205 0 55.5-15.5 84-21.5 36.5-74.5 36.5-50.5 0-90-52-40-51.5-40-101.5 0-72 37.5-81 0-91 25-199.5h59q54 0 123-9zM177 252.5q0-22.5-32.5-65.5-24.5-31-48-61.5-1 6-3.75 20.25t-3.75 21.75q-3 21-14 37 34.5 62.5 77.5 62.5 24.5 0 24.5-14.5z" horiz-adv-x="288" />
<glyph unicode="&#x73;" d="M166-67q75.5 0 104.5 38 25.5 35 25.5 113.5 0 108.5-133 108.5l-21.5-1h-1q-22-1.5-30 1-15.5 0-15.5 7 0 26.5 45.5 46.5 32.5 14.5 66.5 16 7 46.5 7 56.5 0 7.5-13.5 30.5-12 20.5-22.5 20.5-12.5 0-47-16-113.5-58-113.5-167 0-103.5 64.5-103.5 136 0 136-28.5 0-11-22.5-9.5h-17.5q-20.5 0-26.5 13.5-6 14-13.5 14-10 0-30.5-9-18-8-26.5-16.5l-10.5-115.5v1h95.5z" horiz-adv-x="320" />
<glyph unicode="&#x74;" d="M249 386.5q-43-3-53.5-6-39.5-12.5-93-42-15-8-44.75-24.75t-44.25-25.25l5-128q0-1.5 2-1.5 3 0 77 37l14-265 30 6q14.5 3 27.5 17.5l-9.5 269q66 33 82 33 11.5 0 11.5 52 0 19-4 78z" horiz-adv-x="272" />
<glyph unicode="&#x75;" d="M270.5 112q0 167-56.5 232.5-15.5 15.5-25.5 15.5h-25.5q-10.5-88.5-11.5-107.5 66.5-19 66.5-118 0-43-5-58-10-27-46-27-64.5 0-83 65.5-9 30.5-9 121 0 21 3 60.5t3 59.5h-58.5q0-35-2-60.5-2-28.5-2-59.5 0-183.5 59.5-290 47.5-17 113.5-17 79 0 79 183z" horiz-adv-x="288" />
<glyph unicode="&#x76;" d="M176-31l61.5 387v5q1 11-6 16.25t-22.5 5.25q-13 0-21.5-5-29.5-112.5-50.5-255-48 85-48 177 0 22 2 32-13.5 6-27.5 6-12.5 0-24.5-6-18.5-9-18.5-110 0-58.5 39-153.5 38-96 80-132 26.5 23 36.5 33z" horiz-adv-x="256" />
<glyph unicode="&#x77;" d="M376 137.5q0 162.5-108.5 237-28-63.5-28-134.5 71-68 71-124 0-17.5-13.5-34.5-11.5-14.5-32-14.5-70.5 0-70.5 143.5 0 25.5 3 65.5-28 20.5-38 20.5-35.5 0-35.5-122 0-85.5-7.5-100.5-29.5 28-29.5 174.5 0 57 4 111.5h-54q-16.5-67.5-16.5-189.5 0-64 22.5-135 28-95.5 76-95.5 29 0 52 47 44.5-54 94-54 61 0 90.5 76.5 20.5 54.5 20.5 128z" horiz-adv-x="400" />
<glyph unicode="&#x78;" d="M296 40.5q0 16-75 114.5 57.5 124 60.5 219.5l-71.5-34q3-28.5-37-127-114 130.5-129 139.5-27.5-38-27.5-102.5 0-19 3-23.5 4-15.5 106.5-133.5-42-104.5-42-153.5 3-2 11-2 28 0 66 41 3 20.5 12 56.5 57.5-73 71.5-97.5h33q18.5 27.5 18.5 102.5z" horiz-adv-x="320" />
<glyph unicode="&#x79;" d="M287.5 315q0 28-2 40-6 21.5-27.5 21.5-12 0-31.5-8.5 7.5-48-35-103.5-42-56-89-56-22.5 0-22.5 34.5 0 22 12 76-18 4-25.5 4-31.5 0-47-22.5-5-43.5-5-82 0-127 86-127 17 0 33.5 4 8.5-80 8.5-159.5h57q6.5 51 6.5 96.5 0 5.5-0.5 22t-0.5 28q-2 24.5-2 50 84.5 78 84.5 182.5z" horiz-adv-x="304" />
<glyph unicode="&#x7a;" d="M317.5-54q0 11.5 3 36 4 33 4 37 0 43-78.5 43-5.5 0-46.5-2-21.5-1-48-1h-9q4.5 34 35.5 109.5 25 62 25 117.5 0 82-70 82-34.5 0-65.5-35.5-2-2.5-44-64.5-5-25.5-5-57.5 0-29.5 6-50 9.5-9.5 21.5-9.5 10.5 0 26.5 9.5 4 22.5 17.5 54 18 38 37 38 4 0 4-7.5 0-14.5-33.5-100-34-85.5-34-125 0-48.5 5-58.5 8.5-25.5 45-25.5 46.5 0 101.5 5 28 1 64 3t38.5 2z" horiz-adv-x="352" />
<glyph unicode="&#xa7;" d="M135 58q0 32.5-20.5 69.5-24 41-54 41-22 0-35-8-4-3-11.75-8.75t-11.75-8.75l-22.5 348q-34.5-12.5-41-15.5l41-770h30.5q85 69.5 110 157 15 55.5 15 195.5zM84-14q0-29-24.5-68.5-25.5-41-47-55l-4.5 94q26 52 61.5 62.5 14.5-8 14.5-33z" horiz-adv-x="168" />
<glyph unicode="&#xb1;" d="M120 293.5q-98-28.5-121-54.5l-9 289-33-7.5 8-606q10.5-4 26-4 24.5 0 58 18.5 34 19 43 41l12.5-374q29 7 38 12.5zM86 155q0-51.5 2-74.5-24.5-30.5-82-38l-3 64.5q31.5 36.5 83 48z" horiz-adv-x="182" />
<glyph unicode="&#xba;" d="M291 178.5q0 24-13.5 83-13.5 52-27.5 81-12.5 22.5-28 40-19 15.5-39.5 34 2 12 2 17 0 50.5-60.5 50.5-45 0-82-87-32-73-32-127 0-69.5 43-140.5 49-82 114-82 50 0 87 40t37 91zM143.5 319q25.5-3 49-45 19.5-41.5 19.5-68.5 0-23.5-12.5-43-14-20.5-37.5-20.5-31.5 0-61.5 42-29 38-29 70.5 0 29.5 18.5 74.5 22.5 51 46 56.5z" horiz-adv-x="304" />
<glyph unicode="&#xf8;" d="M244.77 444.803q22.91-45.286 22.91-75.122 0-23.975-15.451-47.417-13.319-21.311-39.426-21.311-9.59 0-21.311 7.459 18.648 53.278 53.278 136.391zM134.485 362.755q-16.516 30.368-16.516 59.138 0 33.032 19.713 79.384 23.975 54.343 49.016 60.204l5.86-60.204zM101.985 280.174q-50.614-128.399-50.614-164.096 0-21.311 9.323-30.901t29.036-9.057q13.852 5.86 40.491 67.662 1.598 4.795 5.594 14.652t10.656 27.971 13.053 34.63q27.172-20.778 60.204-20.778 53.278 0 91.638 41.557 39.426 42.622 39.426 96.965 0 40.491-18.648 107.089-19.713 67.13-43.688 98.031 49.016 108.686 105.491 187.538 0 1.598 0.799 5.061t0.799 5.061q0 15.451-15.451 29.303-15.983 12.254-33.032 12.254-25.573 0-110.818-184.342 7.992 66.597-62.335 66.597-49.548 0-88.441-91.638-34.098-77.786-34.098-136.391 0-83.113 50.614-157.17z" horiz-adv-x="416" />
<glyph unicode="&#x2206;" d="M23.348-56.531q89.147 4.533 209.266 24.929 163.937 26.444 182.069 58.927 3.025 6.042 3.025 30.975 0 111.81-55.148 282.547-64.97 194.155-142.784 237.219-79.325-58.172-142.028-274.237-57.415-188.867-57.415-314.277 0-33.995 3.025-46.082zM303.626 150.47q0-3.779-11.333-9.068-104.256-26.444-157.138-30.975 0 42.305 30.975 147.316 32.485 117.853 53.637 122.385 26.444-49.103 52.882-113.32 30.975-82.347 30.975-116.342z" horiz-adv-x="440" />
<glyph unicode="&#x266d;" d="M270.969 532.813q0-131.75-8.234-192.781-10.656-78.953-41.656-132.719t-99.781-111.406h-38.266l-46.5 884.469q9.203 6.781 22.039 10.414t24.945 7.508l18.891-360.859q13.563 11.141 23.25 17.922 18.891 13.078 48.922 13.078 34.875 0 65.633-43.352t30.758-92.273zM207.031 435.453v3.633t0.484 6.055q0 12.594-2.906 20.828-4.844 12.594-15.5 17.438-28.094-7.75-46.016-29.547-11.141-13.078-28.094-47.469l5.813-117.219q28.578 19.375 50.859 57.156 15.5 25.672 27.125 61.031 3.875 14.047 8.234 28.094z" horiz-adv-x="323" />
<glyph unicode="&#x266e;" d="M235.702-32.5q-10.323-7.039-28.624-10.793-8.447-1.877-10.793-3.285l-22.055 422.784q-5.631-17.362-30.97-39.417-31.439-27.685-63.348-27.685-8.447 0-14.077 0.939t-13.139 4.693l-36.131 692.596q3.754 1.877 9.854 1.877 7.039 0 16.658-1.173t12.435-0.704l16.893-325.651q11.731 13.608 58.186 34.724 38.478 17.831 64.755 25.808zM168.131 501.493q-0.939 18.77-1.877 39.416-2.346 41.293-3.285 45.047-25.339-7.039-51.147-25.339-20.177-14.077-31.909-27.685l4.223-75.078q26.746 4.693 46.454 14.077 24.87 11.731 37.539 29.562z" horiz-adv-x="264" />
<glyph unicode="&#x266f;" d="M348.292 597.218q0-27.217-2.112-47.159t-9.15-32.612q-5.161-10.793-28.625-26.511t-45.986-30.737v-31.439q12.2 2.815 37.305 15.25t28.858 12.435q7.039 0 10.089-15.25t3.050-38.243q0-20.177-1.408-35.193t-3.285-17.362q-2.346-13.139-23.462-29.562-23.931-15.954-28.623-19.708-3.285-7.977-3.285-28.155 0-14.547 1.877-39.885 4.223-57.247 4.223-65.694 0-14.547-2.815-18.77-3.754-8.447-16.423-16.189t-21.116-7.742q-3.754 0-4.693 2.346-3.754 16.423-9.385 59.594-10.323 77.425-12.2 80.709-0.939-0.939-12.669-8.915-6.569-4.693-8.681-8.447t-2.112-14.077q0-11.262 1.408-36.6 3.285-59.124 3.285-78.831 0-20.647-1.642-32.378t-5.866-16.423q-8.447-4.223-15.484-4.223-4.223 0-6.804 0.469t-14.781 3.754q-2.815 3.285-10.089 71.559t-9.15 72.029q-2.346 0-24.401-12.669t-29.562-12.669q-3.754 0-4.693 2.815-4.223 7.039-8.681 24.401t-4.458 24.87q7.508 23.462 13.374 31.909t42.466 51.147v37.539q-15.016-11.731-35.663-23.931-29.093-17.362-35.663-13.608-5.161 4.223-7.508 15.954t-2.346 26.746q0 17.831 2.815 41.293 0.939 7.508 2.815 19.708 6.569 15.016 35.663 39.885t30.97 31.204 2.346 14.311 0.469 20.177q0 24.87-2.815 54.432 0 30.5-1.877 57.247t-3.754 57.247q0 15.954 0.939 21.819t4.693 17.596q6.569 22.993 13.608 46.454 10.793 31.439 20.647 31.439 7.977 0 13.139-72.732 2.346-34.724 6.569-135.61 2.815-72.732 6.569-72.732 5.631 0 15.016 6.335t17.831 11.966q1.408 2.346 1.408 15.016 0 20.647-2.815 65.224-6.1 96.663-6.1 97.133-3.285 64.755-3.285 106.048 0 25.339 0.469 42.701t2.346 35.193q6.569 25.339 19.238 48.801 14.547 27.215 29.562 38.947 5.161 0 7.273-18.77t2.112-50.678q0-27.215-0.704-55.37t-1.173-44.578q0-120.594 3.050-179.249t7.742-61.001q15.484 11.262 32.846 19.004t38.008 13.374q2.815-5.631 7.039-15.954t4.223-16.423zM212.681 440.023l-33.316-24.87v-42.232l33.316 24.87v42.232z" horiz-adv-x="392" />
</font>
</defs>
</svg>
